<svg width="366" height="145" viewBox="0 0 366 145" fill="none" xmlns="http://www.w3.org/2000/svg">
<rect x="0.5" y="0.5" width="365" height="144" rx="19.5" fill="#242424" stroke="url(#paint0_linear_1_262)"/>
<rect x="29.483" y="33.1877" width="77.034" height="77.034" rx="23.1102" fill="#DEDFE3"/>
<path d="M59.5343 67.4142V67.0542C59.5343 66.1418 60.2689 65.385 61.2158 65.3221L68.1124 64.8641L77.65 78.8356V66.5732L75.1951 66.2476V66.0767C75.1951 65.1535 75.9465 64.3917 76.9054 64.3428L83.1806 64.023V64.9214C83.1806 65.3431 82.8654 65.7038 82.4333 65.7765L80.9232 66.0306V85.8892L79.028 86.5375C77.4447 87.0792 75.6821 86.4994 74.7757 85.1388L65.5164 71.2394V84.5056L68.3664 85.0482L68.3267 85.3112C68.2023 86.1349 67.4874 86.7579 66.6226 86.7962L59.5343 87.11C59.4406 86.2242 60.108 85.4317 61.0286 85.3355L61.961 85.2381V67.5498L59.5343 67.4142Z" fill="#242424"/>
<path fill-rule="evenodd" clip-rule="evenodd" d="M76.3279 48.6079L47.9109 50.538C46.2087 50.6536 44.8893 52.0149 44.8893 53.6555V81.1507C44.8893 82.6922 45.4227 84.1899 46.4055 85.4078L52.5326 93.001C53.5232 94.2286 55.0822 94.9046 56.6951 94.8059L88.2348 92.8745C89.8513 92.7756 91.1097 91.4862 91.1097 89.9289V58.6695C91.1097 57.706 90.6206 56.8031 89.7994 56.2509L79.8152 49.5357C78.7977 48.8513 77.5665 48.5238 76.3279 48.6079ZM49.32 54.0844C48.9248 53.7933 49.1129 53.1868 49.6094 53.1514L76.519 51.2313C77.3764 51.1702 78.2284 51.405 78.9217 51.8937L84.3209 55.699C84.5259 55.8435 84.4298 56.1554 84.176 56.1691L55.6788 57.7109C54.8164 57.7575 53.9651 57.5055 53.2794 57.0005L49.32 54.0844ZM54.3422 62.5442C54.3422 61.6233 55.0901 60.8625 56.0465 60.8107L86.1761 59.1784C87.1082 59.1279 87.8929 59.841 87.8929 60.7386V87.8059C87.8929 88.7252 87.1476 89.4852 86.1931 89.5392L56.2542 91.2338C55.2169 91.2925 54.3422 90.4996 54.3422 89.5005V62.5442Z" fill="#242424"/>
<path d="M140.662 55.4347H137.474C137.384 54.9119 137.216 54.4489 136.972 54.0455C136.727 53.6364 136.423 53.2898 136.06 53.0057C135.696 52.7216 135.281 52.5085 134.815 52.3665C134.355 52.2188 133.858 52.1449 133.324 52.1449C132.375 52.1449 131.534 52.3835 130.801 52.8608C130.068 53.3324 129.494 54.0256 129.08 54.9403C128.665 55.8494 128.457 56.9602 128.457 58.2727C128.457 59.608 128.665 60.733 129.08 61.6477C129.5 62.5568 130.074 63.2443 130.801 63.7102C131.534 64.1705 132.372 64.4006 133.315 64.4006C133.838 64.4006 134.327 64.3324 134.781 64.196C135.241 64.054 135.653 63.8466 136.017 63.5739C136.386 63.3011 136.696 62.9659 136.946 62.5682C137.202 62.1705 137.378 61.7159 137.474 61.2045L140.662 61.2216C140.543 62.0511 140.284 62.8295 139.886 63.5568C139.494 64.2841 138.98 64.9261 138.344 65.483C137.707 66.0341 136.963 66.4659 136.111 66.7784C135.259 67.0852 134.313 67.2386 133.273 67.2386C131.739 67.2386 130.369 66.8835 129.165 66.1733C127.96 65.4631 127.011 64.4375 126.318 63.0966C125.625 61.7557 125.278 60.1477 125.278 58.2727C125.278 56.392 125.628 54.7841 126.327 53.4489C127.026 52.108 127.977 51.0824 129.182 50.3722C130.386 49.6619 131.75 49.3068 133.273 49.3068C134.244 49.3068 135.148 49.4432 135.983 49.7159C136.818 49.9886 137.563 50.3892 138.216 50.9176C138.869 51.4403 139.406 52.0824 139.827 52.8438C140.253 53.5994 140.531 54.4631 140.662 55.4347ZM146.026 49.5455V67H142.941V49.5455H146.026ZM154.514 67.2557C153.202 67.2557 152.068 66.983 151.114 66.4375C150.165 65.8864 149.435 65.108 148.924 64.1023C148.412 63.0909 148.156 61.9006 148.156 60.5312C148.156 59.1847 148.412 58.0028 148.924 56.9858C149.441 55.9631 150.162 55.1676 151.088 54.5994C152.014 54.0256 153.103 53.7386 154.353 53.7386C155.159 53.7386 155.921 53.8693 156.637 54.1307C157.358 54.3864 157.995 54.7841 158.546 55.3239C159.103 55.8636 159.54 56.5511 159.858 57.3864C160.176 58.2159 160.335 59.2045 160.335 60.3523V61.2983H149.605V59.2188H157.378C157.372 58.6278 157.245 58.1023 156.995 57.642C156.745 57.1761 156.395 56.8097 155.946 56.5426C155.503 56.2756 154.986 56.142 154.395 56.142C153.764 56.142 153.21 56.2955 152.733 56.6023C152.256 56.9034 151.884 57.3011 151.617 57.7955C151.355 58.2841 151.222 58.821 151.216 59.4062V61.2216C151.216 61.983 151.355 62.6364 151.634 63.1818C151.912 63.7216 152.301 64.1364 152.801 64.4261C153.301 64.7102 153.887 64.8523 154.557 64.8523C155.006 64.8523 155.412 64.7898 155.776 64.6648C156.139 64.5341 156.455 64.3438 156.722 64.0938C156.989 63.8438 157.191 63.5341 157.327 63.1648L160.208 63.4886C160.026 64.25 159.679 64.9148 159.168 65.483C158.662 66.0455 158.014 66.483 157.225 66.7955C156.435 67.1023 155.531 67.2557 154.514 67.2557ZM166.233 67.2642C165.403 67.2642 164.656 67.1165 163.991 66.821C163.332 66.5199 162.809 66.0767 162.423 65.4915C162.042 64.9062 161.852 64.1847 161.852 63.3267C161.852 62.5881 161.988 61.9773 162.261 61.4943C162.534 61.0114 162.906 60.625 163.377 60.3352C163.849 60.0455 164.38 59.8267 164.971 59.679C165.568 59.5256 166.184 59.4148 166.821 59.3466C167.588 59.267 168.21 59.196 168.687 59.1335C169.164 59.0653 169.511 58.9631 169.727 58.8267C169.948 58.6847 170.059 58.4659 170.059 58.1705V58.1193C170.059 57.4773 169.869 56.9801 169.488 56.6278C169.108 56.2756 168.559 56.0994 167.843 56.0994C167.088 56.0994 166.488 56.2642 166.045 56.5938C165.608 56.9233 165.312 57.3125 165.159 57.7614L162.278 57.3523C162.505 56.5568 162.88 55.892 163.403 55.358C163.926 54.8182 164.565 54.4148 165.321 54.1477C166.076 53.875 166.912 53.7386 167.826 53.7386C168.457 53.7386 169.085 53.8125 169.71 53.9602C170.335 54.108 170.906 54.3523 171.423 54.6932C171.94 55.0284 172.355 55.4858 172.667 56.0653C172.985 56.6449 173.145 57.3693 173.145 58.2386V67H170.179V65.2017H170.076C169.889 65.5653 169.625 65.9062 169.284 66.2244C168.948 66.5369 168.525 66.7898 168.014 66.983C167.508 67.1705 166.914 67.2642 166.233 67.2642ZM167.034 64.9972C167.653 64.9972 168.19 64.875 168.645 64.6307C169.099 64.3807 169.448 64.0511 169.693 63.642C169.943 63.233 170.068 62.7869 170.068 62.304V60.7614C169.971 60.8409 169.806 60.9148 169.573 60.983C169.346 61.0511 169.091 61.1108 168.806 61.1619C168.522 61.2131 168.241 61.2585 167.963 61.2983C167.684 61.3381 167.443 61.3722 167.238 61.4006C166.778 61.4631 166.366 61.5653 166.002 61.7074C165.639 61.8494 165.352 62.0483 165.142 62.304C164.931 62.554 164.826 62.8778 164.826 63.2756C164.826 63.8438 165.034 64.2727 165.448 64.5625C165.863 64.8523 166.392 64.9972 167.034 64.9972ZM175.767 67V53.9091H178.758V56.0909H178.895C179.133 55.3352 179.542 54.7528 180.122 54.3438C180.707 53.929 181.375 53.7216 182.125 53.7216C182.295 53.7216 182.486 53.7301 182.696 53.7472C182.912 53.7585 183.091 53.7784 183.233 53.8068V56.6449C183.102 56.5994 182.895 56.5597 182.611 56.5256C182.332 56.4858 182.062 56.4659 181.801 56.4659C181.238 56.4659 180.733 56.5881 180.284 56.8324C179.841 57.071 179.491 57.4034 179.236 57.8295C178.98 58.2557 178.852 58.7472 178.852 59.304V67H175.767ZM190.276 67V53.9091H193.267V56.0909H193.403C193.642 55.3352 194.051 54.7528 194.631 54.3438C195.216 53.929 195.883 53.7216 196.633 53.7216C196.804 53.7216 196.994 53.7301 197.205 53.7472C197.42 53.7585 197.599 53.7784 197.741 53.8068V56.6449C197.611 56.5994 197.403 56.5597 197.119 56.5256C196.841 56.4858 196.571 56.4659 196.31 56.4659C195.747 56.4659 195.241 56.5881 194.793 56.8324C194.349 57.071 194 57.4034 193.744 57.8295C193.489 58.2557 193.361 58.7472 193.361 59.304V67H190.276ZM204.482 67.2557C203.204 67.2557 202.096 66.9744 201.158 66.4119C200.221 65.8494 199.494 65.0625 198.977 64.0511C198.465 63.0398 198.21 61.858 198.21 60.5057C198.21 59.1534 198.465 57.9687 198.977 56.9517C199.494 55.9347 200.221 55.1449 201.158 54.5824C202.096 54.0199 203.204 53.7386 204.482 53.7386C205.761 53.7386 206.869 54.0199 207.806 54.5824C208.744 55.1449 209.468 55.9347 209.979 56.9517C210.497 57.9687 210.755 59.1534 210.755 60.5057C210.755 61.858 210.497 63.0398 209.979 64.0511C209.468 65.0625 208.744 65.8494 207.806 66.4119C206.869 66.9744 205.761 67.2557 204.482 67.2557ZM204.499 64.7841C205.193 64.7841 205.772 64.5937 206.238 64.2131C206.704 63.8267 207.051 63.3097 207.278 62.6619C207.511 62.0142 207.627 61.2926 207.627 60.4972C207.627 59.696 207.511 58.9716 207.278 58.3239C207.051 57.6705 206.704 57.1506 206.238 56.7642C205.772 56.3778 205.193 56.1847 204.499 56.1847C203.789 56.1847 203.198 56.3778 202.727 56.7642C202.261 57.1506 201.911 57.6705 201.678 58.3239C201.451 58.9716 201.337 59.696 201.337 60.4972C201.337 61.2926 201.451 62.0142 201.678 62.6619C201.911 63.3097 202.261 63.8267 202.727 64.2131C203.198 64.5937 203.789 64.7841 204.499 64.7841ZM216.661 67.2642C215.831 67.2642 215.084 67.1165 214.419 66.821C213.76 66.5199 213.237 66.0767 212.851 65.4915C212.47 64.9062 212.28 64.1847 212.28 63.3267C212.28 62.5881 212.416 61.9773 212.689 61.4943C212.962 61.0114 213.334 60.625 213.806 60.3352C214.277 60.0455 214.808 59.8267 215.399 59.679C215.996 59.5256 216.612 59.4148 217.249 59.3466C218.016 59.267 218.638 59.196 219.115 59.1335C219.593 59.0653 219.939 58.9631 220.155 58.8267C220.377 58.6847 220.487 58.4659 220.487 58.1705V58.1193C220.487 57.4773 220.297 56.9801 219.916 56.6278C219.536 56.2756 218.987 56.0994 218.272 56.0994C217.516 56.0994 216.916 56.2642 216.473 56.5938C216.036 56.9233 215.74 57.3125 215.587 57.7614L212.706 57.3523C212.933 56.5568 213.308 55.892 213.831 55.358C214.354 54.8182 214.993 54.4148 215.749 54.1477C216.504 53.875 217.34 53.7386 218.254 53.7386C218.885 53.7386 219.513 53.8125 220.138 53.9602C220.763 54.108 221.334 54.3523 221.851 54.6932C222.368 55.0284 222.783 55.4858 223.095 56.0653C223.414 56.6449 223.573 57.3693 223.573 58.2386V67H220.607V65.2017H220.504C220.317 65.5653 220.053 65.9062 219.712 66.2244C219.377 66.5369 218.953 66.7898 218.442 66.983C217.936 67.1705 217.343 67.2642 216.661 67.2642ZM217.462 64.9972C218.081 64.9972 218.618 64.875 219.073 64.6307C219.527 64.3807 219.877 64.0511 220.121 63.642C220.371 63.233 220.496 62.7869 220.496 62.304V60.7614C220.399 60.8409 220.235 60.9148 220.002 60.983C219.774 61.0511 219.519 61.1108 219.235 61.1619C218.95 61.2131 218.669 61.2585 218.391 61.2983C218.112 61.3381 217.871 61.3722 217.666 61.4006C217.206 61.4631 216.794 61.5653 216.431 61.7074C216.067 61.8494 215.78 62.0483 215.57 62.304C215.36 62.554 215.254 62.8778 215.254 63.2756C215.254 63.8438 215.462 64.2727 215.877 64.5625C216.291 64.8523 216.82 64.9972 217.462 64.9972ZM231.053 67.2301C230.024 67.2301 229.104 66.9659 228.292 66.4375C227.479 65.9091 226.837 65.142 226.365 64.1364C225.894 63.1307 225.658 61.9091 225.658 60.4716C225.658 59.017 225.897 57.7898 226.374 56.7898C226.857 55.7841 227.507 55.0256 228.326 54.5142C229.144 53.9972 230.056 53.7386 231.061 53.7386C231.828 53.7386 232.459 53.8693 232.953 54.1307C233.448 54.3864 233.84 54.696 234.13 55.0597C234.419 55.4176 234.644 55.7557 234.803 56.0739H234.931V49.5455H238.024V67H234.99V64.9375H234.803C234.644 65.2557 234.414 65.5937 234.113 65.9517C233.811 66.304 233.414 66.6051 232.919 66.8551C232.425 67.1051 231.803 67.2301 231.053 67.2301ZM231.914 64.6989C232.567 64.6989 233.124 64.5227 233.584 64.1705C234.044 63.8125 234.394 63.3153 234.632 62.679C234.871 62.0426 234.99 61.3011 234.99 60.4545C234.99 59.608 234.871 58.8722 234.632 58.2472C234.399 57.6222 234.053 57.1364 233.593 56.7898C233.138 56.4432 232.578 56.2699 231.914 56.2699C231.226 56.2699 230.652 56.4489 230.192 56.8068C229.732 57.1648 229.385 57.6591 229.152 58.2898C228.919 58.9205 228.803 59.642 228.803 60.4545C228.803 61.2727 228.919 62.0028 229.152 62.6449C229.391 63.2812 229.74 63.7841 230.201 64.1534C230.667 64.517 231.238 64.6989 231.914 64.6989ZM240.832 67V53.9091H243.781V56.1335H243.934C244.207 55.3835 244.659 54.7983 245.289 54.3778C245.92 53.9517 246.673 53.7386 247.548 53.7386C248.434 53.7386 249.182 53.9545 249.789 54.3864C250.403 54.8125 250.835 55.3949 251.085 56.1335H251.221C251.511 55.4062 252 54.8267 252.687 54.3949C253.38 53.9574 254.201 53.7386 255.15 53.7386C256.355 53.7386 257.338 54.1193 258.099 54.8807C258.861 55.642 259.241 56.7528 259.241 58.2131V67H256.147V58.6903C256.147 57.8778 255.932 57.2841 255.5 56.9091C255.068 56.5284 254.539 56.3381 253.914 56.3381C253.17 56.3381 252.588 56.571 252.167 57.0369C251.753 57.4972 251.545 58.0966 251.545 58.8352V67H248.52V58.5625C248.52 57.8864 248.315 57.3466 247.906 56.9432C247.503 56.5398 246.974 56.3381 246.321 56.3381C245.878 56.3381 245.474 56.4517 245.111 56.679C244.747 56.9006 244.457 57.2159 244.241 57.625C244.025 58.0284 243.917 58.5 243.917 59.0398V67H240.832ZM265.658 67.2642C264.829 67.2642 264.082 67.1165 263.417 66.821C262.758 66.5199 262.235 66.0767 261.849 65.4915C261.468 64.9062 261.278 64.1847 261.278 63.3267C261.278 62.5881 261.414 61.9773 261.687 61.4943C261.959 61.0114 262.332 60.625 262.803 60.3352C263.275 60.0455 263.806 59.8267 264.397 59.679C264.993 59.5256 265.61 59.4148 266.246 59.3466C267.013 59.267 267.635 59.196 268.113 59.1335C268.59 59.0653 268.937 58.9631 269.153 58.8267C269.374 58.6847 269.485 58.4659 269.485 58.1705V58.1193C269.485 57.4773 269.295 56.9801 268.914 56.6278C268.533 56.2756 267.985 56.0994 267.269 56.0994C266.513 56.0994 265.914 56.2642 265.471 56.5938C265.033 56.9233 264.738 57.3125 264.584 57.7614L261.704 57.3523C261.931 56.5568 262.306 55.892 262.829 55.358C263.351 54.8182 263.991 54.4148 264.746 54.1477C265.502 53.875 266.337 53.7386 267.252 53.7386C267.883 53.7386 268.51 53.8125 269.135 53.9602C269.76 54.108 270.332 54.3523 270.849 54.6932C271.366 55.0284 271.78 55.4858 272.093 56.0653C272.411 56.6449 272.57 57.3693 272.57 58.2386V67H269.604V65.2017H269.502C269.314 65.5653 269.05 65.9062 268.709 66.2244C268.374 66.5369 267.951 66.7898 267.439 66.983C266.934 67.1705 266.34 67.2642 265.658 67.2642ZM266.459 64.9972C267.079 64.9972 267.616 64.875 268.07 64.6307C268.525 64.3807 268.874 64.0511 269.118 63.642C269.368 63.233 269.493 62.7869 269.493 62.304V60.7614C269.397 60.8409 269.232 60.9148 268.999 60.983C268.772 61.0511 268.516 61.1108 268.232 61.1619C267.948 61.2131 267.667 61.2585 267.388 61.2983C267.11 61.3381 266.868 61.3722 266.664 61.4006C266.204 61.4631 265.792 61.5653 265.428 61.7074C265.064 61.8494 264.778 62.0483 264.567 62.304C264.357 62.554 264.252 62.8778 264.252 63.2756C264.252 63.8438 264.459 64.2727 264.874 64.5625C265.289 64.8523 265.817 64.9972 266.459 64.9972ZM275.192 71.9091V53.9091H278.227V56.0739H278.405C278.565 55.7557 278.789 55.4176 279.079 55.0597C279.369 54.696 279.761 54.3864 280.255 54.1307C280.749 53.8693 281.38 53.7386 282.147 53.7386C283.158 53.7386 284.07 53.9972 284.883 54.5142C285.701 55.0256 286.349 55.7841 286.826 56.7898C287.309 57.7898 287.55 59.017 287.55 60.4716C287.55 61.9091 287.315 63.1307 286.843 64.1364C286.371 65.142 285.729 65.9091 284.917 66.4375C284.104 66.9659 283.184 67.2301 282.155 67.2301C281.405 67.2301 280.783 67.1051 280.289 66.8551C279.795 66.6051 279.397 66.304 279.096 65.9517C278.8 65.5937 278.57 65.2557 278.405 64.9375H278.278V71.9091H275.192ZM278.218 60.4545C278.218 61.3011 278.337 62.0426 278.576 62.679C278.82 63.3153 279.17 63.8125 279.624 64.1705C280.084 64.5227 280.641 64.6989 281.295 64.6989C281.977 64.6989 282.548 64.517 283.008 64.1534C283.468 63.7841 283.815 63.2812 284.048 62.6449C284.286 62.0028 284.405 61.2727 284.405 60.4545C284.405 59.642 284.289 58.9205 284.056 58.2898C283.823 57.6591 283.477 57.1648 283.016 56.8068C282.556 56.4489 281.982 56.2699 281.295 56.2699C280.636 56.2699 280.076 56.4432 279.616 56.7898C279.155 57.1364 278.806 57.6222 278.567 58.2472C278.334 58.8722 278.218 59.608 278.218 60.4545Z" fill="white"/>
<path d="M126.486 92.4659V97H124.999V89.3636H126.426V90.6065H126.521C126.696 90.2022 126.971 89.8774 127.346 89.6321C127.724 89.3868 128.199 89.2642 128.773 89.2642C129.293 89.2642 129.749 89.3736 130.14 89.5923C130.531 89.8078 130.834 90.1293 131.05 90.5568C131.265 90.9844 131.373 91.513 131.373 92.1428V97H129.886V92.3217C129.886 91.7682 129.742 91.3357 129.454 91.0241C129.165 90.7093 128.769 90.5518 128.266 90.5518C127.921 90.5518 127.614 90.6264 127.346 90.7756C127.081 90.9247 126.87 91.1435 126.714 91.4318C126.562 91.7169 126.486 92.0616 126.486 92.4659ZM136.583 97.1541C135.867 97.1541 135.242 96.9901 134.709 96.6619C134.175 96.3338 133.761 95.8748 133.466 95.2848C133.171 94.6948 133.023 94.0054 133.023 93.2166C133.023 92.4245 133.171 91.7318 133.466 91.1385C133.761 90.5452 134.175 90.0845 134.709 89.7564C135.242 89.4283 135.867 89.2642 136.583 89.2642C137.299 89.2642 137.924 89.4283 138.457 89.7564C138.991 90.0845 139.405 90.5452 139.7 91.1385C139.995 91.7318 140.143 92.4245 140.143 93.2166C140.143 94.0054 139.995 94.6948 139.7 95.2848C139.405 95.8748 138.991 96.3338 138.457 96.6619C137.924 96.9901 137.299 97.1541 136.583 97.1541ZM136.588 95.9062C137.052 95.9062 137.437 95.7836 137.741 95.5384C138.046 95.2931 138.272 94.9666 138.418 94.5589C138.567 94.1513 138.641 93.7022 138.641 93.2116C138.641 92.7244 138.567 92.277 138.418 91.8693C138.272 91.4583 138.046 91.1286 137.741 90.88C137.437 90.6314 137.052 90.5071 136.588 90.5071C136.121 90.5071 135.733 90.6314 135.425 90.88C135.12 91.1286 134.893 91.4583 134.744 91.8693C134.598 92.277 134.525 92.7244 134.525 93.2116C134.525 93.7022 134.598 94.1513 134.744 94.5589C134.893 94.9666 135.12 95.2931 135.425 95.5384C135.733 95.7836 136.121 95.9062 136.588 95.9062ZM145.367 89.3636V90.5568H141.195V89.3636H145.367ZM142.314 87.5341H143.801V94.7578C143.801 95.0462 143.844 95.2633 143.93 95.4091C144.016 95.5516 144.127 95.6494 144.263 95.7024C144.402 95.7521 144.553 95.777 144.715 95.777C144.835 95.777 144.939 95.7687 145.029 95.7521C145.118 95.7356 145.188 95.7223 145.237 95.7124L145.506 96.9403C145.42 96.9735 145.297 97.0066 145.138 97.0398C144.979 97.0762 144.78 97.0961 144.541 97.0994C144.15 97.1061 143.786 97.0365 143.448 96.8906C143.11 96.7448 142.836 96.5194 142.627 96.2145C142.419 95.9096 142.314 95.5268 142.314 95.0661V87.5341ZM147.011 97V89.3636H148.498V97H147.011ZM147.762 88.1854C147.503 88.1854 147.281 88.0992 147.096 87.9268C146.913 87.7512 146.822 87.5424 146.822 87.3004C146.822 87.0552 146.913 86.8464 147.096 86.674C147.281 86.4983 147.503 86.4105 147.762 86.4105C148.02 86.4105 148.241 86.4983 148.423 86.674C148.609 86.8464 148.701 87.0552 148.701 87.3004C148.701 87.5424 148.609 87.7512 148.423 87.9268C148.241 88.0992 148.02 88.1854 147.762 88.1854ZM153.714 97.1541C152.998 97.1541 152.373 96.9901 151.84 96.6619C151.306 96.3338 150.892 95.8748 150.597 95.2848C150.302 94.6948 150.154 94.0054 150.154 93.2166C150.154 92.4245 150.302 91.7318 150.597 91.1385C150.892 90.5452 151.306 90.0845 151.84 89.7564C152.373 89.4283 152.998 89.2642 153.714 89.2642C154.43 89.2642 155.055 89.4283 155.588 89.7564C156.122 90.0845 156.536 90.5452 156.831 91.1385C157.126 91.7318 157.274 92.4245 157.274 93.2166C157.274 94.0054 157.126 94.6948 156.831 95.2848C156.536 95.8748 156.122 96.3338 155.588 96.6619C155.055 96.9901 154.43 97.1541 153.714 97.1541ZM153.719 95.9062C154.183 95.9062 154.567 95.7836 154.872 95.5384C155.177 95.2931 155.403 94.9666 155.548 94.5589C155.698 94.1513 155.772 93.7022 155.772 93.2116C155.772 92.7244 155.698 92.277 155.548 91.8693C155.403 91.4583 155.177 91.1286 154.872 90.88C154.567 90.6314 154.183 90.5071 153.719 90.5071C153.252 90.5071 152.864 90.6314 152.556 90.88C152.251 91.1286 152.024 91.4583 151.874 91.8693C151.729 92.277 151.656 92.7244 151.656 93.2116C151.656 93.7022 151.729 94.1513 151.874 94.5589C152.024 94.9666 152.251 95.2931 152.556 95.5384C152.864 95.7836 153.252 95.9062 153.719 95.9062ZM160.419 92.4659V97H158.933V89.3636H160.36V90.6065H160.454C160.63 90.2022 160.905 89.8774 161.279 89.6321C161.657 89.3868 162.133 89.2642 162.706 89.2642C163.227 89.2642 163.682 89.3736 164.074 89.5923C164.465 89.8078 164.768 90.1293 164.983 90.5568C165.199 90.9844 165.306 91.513 165.306 92.1428V97H163.82V92.3217C163.82 91.7682 163.676 91.3357 163.387 91.0241C163.099 90.7093 162.703 90.5518 162.199 90.5518C161.855 90.5518 161.548 90.6264 161.279 90.7756C161.014 90.9247 160.804 91.1435 160.648 91.4318C160.496 91.7169 160.419 92.0616 160.419 92.4659ZM168.279 97.0945C168.008 97.0945 167.774 96.9983 167.578 96.8061C167.383 96.6106 167.285 96.3752 167.285 96.1001C167.285 95.8284 167.383 95.5964 167.578 95.4041C167.774 95.2086 168.008 95.1108 168.279 95.1108C168.551 95.1108 168.785 95.2086 168.98 95.4041C169.176 95.5964 169.274 95.8284 169.274 96.1001C169.274 96.2824 169.227 96.4498 169.135 96.6023C169.045 96.7514 168.926 96.8707 168.777 96.9602C168.627 97.0497 168.462 97.0945 168.279 97.0945ZM174.482 97.1541C173.742 97.1541 173.106 96.9867 172.572 96.652C172.042 96.3139 171.634 95.8482 171.349 95.255C171.064 94.6617 170.922 93.9822 170.922 93.2166C170.922 92.4411 171.068 91.7566 171.359 91.1634C171.651 90.5668 172.062 90.1011 172.592 89.7663C173.123 89.4316 173.747 89.2642 174.467 89.2642C175.047 89.2642 175.564 89.3719 176.018 89.5874C176.472 89.7995 176.838 90.0978 177.116 90.4822C177.398 90.8667 177.566 91.3158 177.619 91.8295H176.172C176.092 91.4716 175.91 91.1634 175.625 90.9048C175.343 90.6463 174.965 90.517 174.491 90.517C174.077 90.517 173.714 90.6264 173.403 90.8452C173.094 91.0606 172.854 91.3688 172.682 91.7699C172.509 92.1676 172.423 92.6383 172.423 93.1818C172.423 93.7386 172.508 94.2192 172.677 94.6236C172.846 95.0279 173.085 95.3411 173.393 95.5632C173.704 95.7853 174.071 95.8963 174.491 95.8963C174.773 95.8963 175.028 95.8449 175.257 95.7422C175.489 95.6361 175.683 95.4853 175.839 95.2898C175.998 95.0942 176.109 94.8589 176.172 94.5838H177.619C177.566 95.0777 177.405 95.5185 177.136 95.9062C176.868 96.294 176.508 96.599 176.058 96.821C175.61 97.0431 175.085 97.1541 174.482 97.1541ZM182.425 97.1541C181.709 97.1541 181.084 96.9901 180.551 96.6619C180.017 96.3338 179.603 95.8748 179.308 95.2848C179.013 94.6948 178.865 94.0054 178.865 93.2166C178.865 92.4245 179.013 91.7318 179.308 91.1385C179.603 90.5452 180.017 90.0845 180.551 89.7564C181.084 89.4283 181.709 89.2642 182.425 89.2642C183.141 89.2642 183.766 89.4283 184.299 89.7564C184.833 90.0845 185.247 90.5452 185.542 91.1385C185.837 91.7318 185.985 92.4245 185.985 93.2166C185.985 94.0054 185.837 94.6948 185.542 95.2848C185.247 95.8748 184.833 96.3338 184.299 96.6619C183.766 96.9901 183.141 97.1541 182.425 97.1541ZM182.43 95.9062C182.894 95.9062 183.278 95.7836 183.583 95.5384C183.888 95.2931 184.114 94.9666 184.259 94.5589C184.409 94.1513 184.483 93.7022 184.483 93.2116C184.483 92.7244 184.409 92.277 184.259 91.8693C184.114 91.4583 183.888 91.1286 183.583 90.88C183.278 90.6314 182.894 90.5071 182.43 90.5071C181.963 90.5071 181.575 90.6314 181.267 90.88C180.962 91.1286 180.735 91.4583 180.585 91.8693C180.44 92.277 180.367 92.7244 180.367 93.2116C180.367 93.7022 180.44 94.1513 180.585 94.5589C180.735 94.9666 180.962 95.2931 181.267 95.5384C181.575 95.7836 181.963 95.9062 182.43 95.9062ZM187.644 97V89.3636H189.071V90.6065H189.165C189.324 90.1856 189.584 89.8575 189.946 89.6222C190.307 89.3835 190.739 89.2642 191.243 89.2642C191.754 89.2642 192.181 89.3835 192.526 89.6222C192.874 89.8608 193.131 90.1889 193.297 90.6065H193.376C193.558 90.1989 193.848 89.8741 194.246 89.6321C194.644 89.3868 195.118 89.2642 195.668 89.2642C196.361 89.2642 196.926 89.4813 197.363 89.9155C197.804 90.3497 198.025 91.0043 198.025 91.8793V97H196.538V92.0185C196.538 91.5014 196.397 91.1269 196.115 90.8949C195.834 90.6629 195.497 90.5469 195.106 90.5469C194.622 90.5469 194.246 90.696 193.978 90.9943C193.709 91.2893 193.575 91.6688 193.575 92.1328V97H192.093V91.924C192.093 91.5097 191.964 91.1766 191.706 90.9247C191.447 90.6728 191.111 90.5469 190.696 90.5469C190.415 90.5469 190.154 90.6214 189.916 90.7706C189.681 90.9164 189.49 91.1203 189.344 91.3821C189.202 91.6439 189.13 91.9472 189.13 92.2919V97H187.644Z" fill="#868898"/>
<defs>
<linearGradient id="paint0_linear_1_262" x1="13.8828" y1="-8.28375e-07" x2="29.1753" y2="159.727" gradientUnits="userSpaceOnUse">
<stop stop-color="#3E3E3E"/>
<stop offset="1" stop-color="#3E3E3E" stop-opacity="0"/>
</linearGradient>
</defs>
</svg>
