<svg width="407" height="434" viewBox="0 0 290 434" fill="none" xmlns="http://www.w3.org/2000/svg">
<rect width="407" height="434" rx="20" fill="#DDD6CF"/>
<rect x="29" y="35" width="73" height="32" rx="16" fill="#B1ABA6"/>
<path d="M47.8894 56L45.1654 47.36H46.6534L48.9334 54.596L51.2434 47.36H52.7314L50.0074 56H47.8894ZM53.1491 56L55.8731 47.36H57.9911L60.7151 56H59.2271L56.7551 48.248H57.0791L54.6371 56H53.1491ZM54.6671 54.128V52.778H59.2031V54.128H54.6671ZM62.8799 56V47.36H64.3259V54.644H68.1419V56H62.8799ZM73.5984 56.18C72.9104 56.18 72.3044 56.04 71.7804 55.76C71.2604 55.48 70.8524 55.086 70.5564 54.578C70.2644 54.07 70.1184 53.474 70.1184 52.79V47.372L71.5824 47.36V52.754C71.5824 53.078 71.6364 53.368 71.7444 53.624C71.8564 53.88 72.0064 54.098 72.1944 54.278C72.3824 54.454 72.5984 54.588 72.8424 54.68C73.0864 54.772 73.3384 54.818 73.5984 54.818C73.8664 54.818 74.1204 54.772 74.3604 54.68C74.6044 54.584 74.8204 54.448 75.0084 54.272C75.1964 54.092 75.3444 53.874 75.4524 53.618C75.5604 53.362 75.6144 53.074 75.6144 52.754V47.36H77.0784V52.79C77.0784 53.474 76.9304 54.07 76.6344 54.578C76.3424 55.086 75.9344 55.48 75.4104 55.76C74.8904 56.04 74.2864 56.18 73.5984 56.18ZM79.7151 56V47.36H85.2951V48.716H81.1611V50.846H84.5751V52.202H81.1611V54.644H85.2951V56H79.7151Z" fill="white"/>
<path d="M154.782 219.429V185.141H156.978V219.429H154.782ZM161.117 196.11C160.992 194.941 160.465 194.03 159.536 193.378C158.617 192.726 157.42 192.4 155.947 192.4C154.911 192.4 154.023 192.556 153.282 192.869C152.54 193.182 151.973 193.606 151.581 194.141C151.188 194.677 150.987 195.289 150.978 195.976C150.978 196.548 151.107 197.043 151.366 197.463C151.634 197.883 151.996 198.24 152.451 198.535C152.906 198.82 153.411 199.061 153.965 199.258C154.518 199.454 155.076 199.619 155.639 199.753L158.21 200.396C159.246 200.637 160.242 200.963 161.197 201.374C162.162 201.785 163.023 202.303 163.782 202.928C164.55 203.553 165.157 204.307 165.604 205.191C166.05 206.075 166.273 207.111 166.273 208.299C166.273 209.906 165.863 211.321 165.041 212.544C164.22 213.759 163.032 214.71 161.478 215.397C159.934 216.076 158.063 216.415 155.867 216.415C153.732 216.415 151.88 216.085 150.308 215.424C148.745 214.763 147.522 213.799 146.638 212.531C145.763 211.263 145.29 209.718 145.218 207.897H150.107C150.179 208.852 150.473 209.647 150.991 210.281C151.509 210.915 152.183 211.388 153.014 211.701C153.853 212.013 154.791 212.169 155.826 212.169C156.907 212.169 157.853 212.009 158.666 211.687C159.487 211.357 160.13 210.901 160.594 210.321C161.059 209.732 161.295 209.044 161.304 208.258C161.295 207.544 161.086 206.955 160.675 206.49C160.264 206.017 159.688 205.624 158.947 205.312C158.215 204.99 157.358 204.705 156.375 204.455L153.255 203.651C150.996 203.071 149.21 202.191 147.897 201.012C146.594 199.825 145.942 198.249 145.942 196.284C145.942 194.668 146.379 193.253 147.254 192.039C148.138 190.824 149.339 189.882 150.857 189.212C152.375 188.534 154.094 188.195 156.014 188.195C157.96 188.195 159.666 188.534 161.13 189.212C162.604 189.882 163.76 190.815 164.599 192.012C165.439 193.199 165.872 194.566 165.898 196.11H161.117ZM179.218 216.375C177.432 216.375 175.833 216.04 174.423 215.37C173.012 214.692 171.891 213.763 171.061 212.585C170.239 211.406 169.802 210.058 169.748 208.54H174.57C174.659 209.665 175.146 210.584 176.03 211.299C176.914 212.004 177.976 212.357 179.218 212.357C180.191 212.357 181.057 212.134 181.816 211.687C182.575 211.241 183.173 210.62 183.611 209.825C184.048 209.031 184.263 208.124 184.254 207.107C184.263 206.071 184.044 205.151 183.597 204.347C183.151 203.544 182.539 202.914 181.762 202.459C180.986 201.995 180.093 201.762 179.084 201.762C178.262 201.754 177.454 201.905 176.659 202.218C175.865 202.53 175.235 202.941 174.771 203.45L170.284 202.713L171.717 188.57H187.629V192.722H175.829L175.039 199.994H175.199C175.708 199.396 176.427 198.901 177.356 198.508C178.284 198.106 179.302 197.905 180.41 197.905C182.07 197.905 183.553 198.298 184.856 199.084C186.16 199.861 187.187 200.932 187.937 202.298C188.687 203.664 189.062 205.227 189.062 206.986C189.062 208.799 188.642 210.415 187.803 211.835C186.973 213.245 185.816 214.357 184.334 215.17C182.861 215.973 181.155 216.375 179.218 216.375ZM192.299 210.91V206.959L203.938 188.57H207.233V194.195H205.224L197.389 206.611V206.825H213.635V210.91H192.299ZM205.385 216V209.705L205.438 207.937V188.57H210.126V216H205.385ZM218.165 216L229.831 192.909V192.722H216.29V188.57H234.974V192.815L223.321 216H218.165ZM247.998 216.375C246.686 216.366 245.404 216.138 244.154 215.692C242.904 215.237 241.779 214.5 240.779 213.482C239.779 212.455 238.984 211.093 238.395 209.397C237.806 207.691 237.516 205.58 237.524 203.062C237.524 200.713 237.774 198.619 238.274 196.78C238.775 194.941 239.493 193.387 240.431 192.119C241.368 190.842 242.498 189.869 243.82 189.199C245.15 188.529 246.637 188.195 248.28 188.195C250.003 188.195 251.53 188.534 252.86 189.212C254.2 189.891 255.28 190.82 256.102 191.998C256.923 193.168 257.432 194.49 257.628 195.963H252.74C252.49 194.909 251.976 194.07 251.199 193.445C250.432 192.811 249.458 192.494 248.28 192.494C246.378 192.494 244.913 193.32 243.886 194.972C242.869 196.624 242.355 198.892 242.346 201.776H242.534C242.971 200.99 243.538 200.316 244.235 199.753C244.931 199.191 245.717 198.758 246.592 198.454C247.476 198.142 248.409 197.985 249.391 197.985C250.999 197.985 252.441 198.369 253.717 199.137C255.003 199.905 256.021 200.963 256.771 202.312C257.521 203.651 257.892 205.187 257.883 206.919C257.892 208.723 257.481 210.343 256.651 211.781C255.82 213.21 254.664 214.335 253.182 215.156C251.699 215.978 249.972 216.384 247.998 216.375ZM247.972 212.357C248.945 212.357 249.815 212.12 250.583 211.647C251.351 211.174 251.958 210.535 252.405 209.732C252.851 208.928 253.07 208.026 253.061 207.026C253.07 206.044 252.856 205.156 252.418 204.361C251.99 203.566 251.396 202.937 250.637 202.472C249.878 202.008 249.012 201.776 248.039 201.776C247.315 201.776 246.641 201.914 246.016 202.191C245.391 202.468 244.846 202.852 244.382 203.343C243.918 203.825 243.552 204.388 243.284 205.031C243.025 205.664 242.891 206.343 242.882 207.066C242.891 208.022 243.114 208.901 243.552 209.705C243.989 210.509 244.592 211.151 245.36 211.634C246.128 212.116 246.998 212.357 247.972 212.357Z" fill="#242424"/>
<path d="M143.396 245.048C143.336 244.536 143.09 244.138 142.658 243.855C142.226 243.571 141.697 243.43 141.07 243.43C140.611 243.43 140.21 243.504 139.866 243.652C139.526 243.801 139.259 244.005 139.067 244.264C138.878 244.524 138.784 244.819 138.784 245.149C138.784 245.426 138.85 245.663 138.981 245.862C139.116 246.058 139.288 246.222 139.497 246.353C139.706 246.481 139.925 246.587 140.155 246.672C140.384 246.753 140.595 246.818 140.787 246.869L141.839 247.152C142.108 247.223 142.409 247.321 142.739 247.445C143.073 247.57 143.391 247.74 143.695 247.956C144.002 248.169 144.255 248.442 144.453 248.776C144.652 249.109 144.752 249.519 144.752 250.005C144.752 250.564 144.605 251.07 144.312 251.522C144.022 251.974 143.597 252.333 143.037 252.599C142.481 252.865 141.805 252.999 141.009 252.999C140.268 252.999 139.625 252.879 139.082 252.64C138.543 252.4 138.118 252.066 137.808 251.638C137.501 251.21 137.327 250.713 137.287 250.146H138.582C138.615 250.537 138.747 250.861 138.976 251.117C139.209 251.37 139.502 251.559 139.856 251.684C140.214 251.805 140.598 251.866 141.009 251.866C141.488 251.866 141.918 251.788 142.299 251.633C142.68 251.475 142.982 251.255 143.204 250.976C143.427 250.692 143.538 250.362 143.538 249.984C143.538 249.64 143.442 249.361 143.25 249.145C143.058 248.929 142.805 248.754 142.491 248.619C142.178 248.484 141.839 248.366 141.475 248.265L140.2 247.901C139.391 247.668 138.75 247.336 138.278 246.904C137.806 246.473 137.57 245.908 137.57 245.21C137.57 244.63 137.727 244.124 138.041 243.693C138.357 243.258 138.782 242.921 139.315 242.681C139.851 242.438 140.45 242.317 141.11 242.317C141.778 242.317 142.371 242.437 142.891 242.676C143.41 242.912 143.821 243.236 144.125 243.647C144.432 244.059 144.593 244.526 144.61 245.048H143.396ZM146.367 255.73V245.048H147.521V246.282H147.662C147.75 246.147 147.871 245.975 148.026 245.766C148.185 245.554 148.411 245.365 148.704 245.2C149.001 245.031 149.402 244.947 149.908 244.947C150.562 244.947 151.138 245.111 151.637 245.438C152.136 245.765 152.526 246.228 152.806 246.828C153.085 247.429 153.225 248.137 153.225 248.953C153.225 249.775 153.085 250.488 152.806 251.092C152.526 251.692 152.138 252.157 151.642 252.488C151.147 252.815 150.575 252.978 149.928 252.978C149.429 252.978 149.029 252.896 148.729 252.731C148.429 252.562 148.198 252.371 148.036 252.159C147.875 251.943 147.75 251.765 147.662 251.623H147.561V255.73H146.367ZM147.541 248.932C147.541 249.519 147.627 250.037 147.799 250.485C147.971 250.93 148.222 251.279 148.552 251.532C148.883 251.781 149.287 251.906 149.766 251.906C150.265 251.906 150.681 251.775 151.015 251.512C151.352 251.245 151.605 250.888 151.774 250.439C151.946 249.988 152.032 249.485 152.032 248.932C152.032 248.386 151.948 247.894 151.779 247.456C151.614 247.014 151.363 246.665 151.025 246.409C150.692 246.149 150.272 246.019 149.766 246.019C149.281 246.019 148.873 246.142 148.542 246.388C148.212 246.631 147.962 246.972 147.794 247.41C147.625 247.845 147.541 248.352 147.541 248.932ZM158.018 252.978C157.27 252.978 156.624 252.813 156.081 252.483C155.542 252.149 155.125 251.684 154.832 251.087C154.542 250.487 154.397 249.789 154.397 248.993C154.397 248.197 154.542 247.496 154.832 246.889C155.125 246.279 155.533 245.803 156.056 245.463C156.582 245.119 157.196 244.947 157.897 244.947C158.302 244.947 158.701 245.014 159.096 245.149C159.49 245.284 159.849 245.503 160.173 245.807C160.497 246.107 160.754 246.505 160.947 247C161.139 247.496 161.235 248.106 161.235 248.831V249.337H155.247V248.305H160.021C160.021 247.867 159.933 247.476 159.758 247.132C159.586 246.788 159.34 246.517 159.02 246.318C158.703 246.119 158.329 246.019 157.897 246.019C157.422 246.019 157.01 246.137 156.663 246.373C156.319 246.606 156.054 246.909 155.869 247.284C155.683 247.658 155.591 248.059 155.591 248.487V249.175C155.591 249.762 155.692 250.259 155.894 250.667C156.1 251.072 156.385 251.38 156.749 251.593C157.113 251.802 157.536 251.906 158.018 251.906C158.332 251.906 158.615 251.862 158.868 251.775C159.124 251.684 159.345 251.549 159.531 251.37C159.716 251.188 159.859 250.962 159.96 250.692L161.114 251.016C160.992 251.407 160.788 251.751 160.502 252.048C160.215 252.341 159.861 252.57 159.44 252.736C159.018 252.897 158.544 252.978 158.018 252.978ZM163.959 248.143V252.817H162.766V245.048H163.919V246.262H164.02C164.202 245.867 164.479 245.551 164.849 245.311C165.22 245.068 165.699 244.947 166.286 244.947C166.812 244.947 167.272 245.055 167.667 245.271C168.061 245.483 168.368 245.807 168.587 246.242C168.806 246.673 168.916 247.22 168.916 247.88V252.817H167.722V247.961C167.722 247.351 167.564 246.876 167.247 246.535C166.93 246.191 166.495 246.019 165.942 246.019C165.561 246.019 165.22 246.102 164.92 246.267C164.624 246.432 164.389 246.673 164.217 246.99C164.045 247.307 163.959 247.692 163.959 248.143ZM173.745 252.978C173.098 252.978 172.526 252.815 172.031 252.488C171.535 252.157 171.147 251.692 170.868 251.092C170.588 250.488 170.448 249.775 170.448 248.953C170.448 248.137 170.588 247.429 170.868 246.828C171.147 246.228 171.537 245.765 172.036 245.438C172.535 245.111 173.111 244.947 173.766 244.947C174.271 244.947 174.671 245.031 174.964 245.2C175.261 245.365 175.487 245.554 175.642 245.766C175.8 245.975 175.923 246.147 176.011 246.282H176.112V242.459H177.306V252.817H176.153V251.623H176.011C175.923 251.765 175.799 251.943 175.637 252.159C175.475 252.371 175.244 252.562 174.944 252.731C174.644 252.896 174.244 252.978 173.745 252.978ZM173.907 251.906C174.386 251.906 174.791 251.781 175.121 251.532C175.451 251.279 175.703 250.93 175.875 250.485C176.046 250.037 176.132 249.519 176.132 248.932C176.132 248.352 176.048 247.845 175.88 247.41C175.711 246.972 175.461 246.631 175.131 246.388C174.801 246.142 174.393 246.019 173.907 246.019C173.401 246.019 172.98 246.149 172.643 246.409C172.309 246.665 172.058 247.014 171.889 247.456C171.724 247.894 171.641 248.386 171.641 248.932C171.641 249.485 171.726 249.988 171.894 250.439C172.066 250.888 172.319 251.245 172.653 251.512C172.99 251.775 173.408 251.906 173.907 251.906ZM179.373 252.817V245.048H180.566V252.817H179.373ZM179.98 243.753C179.747 243.753 179.546 243.674 179.378 243.516C179.213 243.357 179.13 243.167 179.13 242.944C179.13 242.722 179.213 242.531 179.378 242.373C179.546 242.214 179.747 242.135 179.98 242.135C180.212 242.135 180.411 242.214 180.576 242.373C180.745 242.531 180.829 242.722 180.829 242.944C180.829 243.167 180.745 243.357 180.576 243.516C180.411 243.674 180.212 243.753 179.98 243.753ZM183.661 248.143V252.817H182.468V245.048H183.621V246.262H183.722C183.904 245.867 184.18 245.551 184.551 245.311C184.922 245.068 185.401 244.947 185.988 244.947C186.514 244.947 186.974 245.055 187.368 245.271C187.763 245.483 188.07 245.807 188.289 246.242C188.508 246.673 188.618 247.22 188.618 247.88V252.817H187.424V247.961C187.424 247.351 187.265 246.876 186.949 246.535C186.632 246.191 186.197 246.019 185.644 246.019C185.263 246.019 184.922 246.102 184.622 246.267C184.325 246.432 184.091 246.673 183.919 246.99C183.747 247.307 183.661 247.692 183.661 248.143ZM193.649 255.892C193.073 255.892 192.577 255.817 192.163 255.669C191.748 255.524 191.402 255.332 191.126 255.092C190.853 254.856 190.635 254.604 190.473 254.334L191.424 253.666C191.532 253.808 191.669 253.97 191.834 254.152C191.999 254.337 192.225 254.497 192.511 254.632C192.801 254.77 193.181 254.84 193.649 254.84C194.277 254.84 194.794 254.688 195.202 254.384C195.61 254.081 195.814 253.606 195.814 252.958V251.38H195.713C195.625 251.522 195.5 251.697 195.339 251.906C195.18 252.112 194.951 252.296 194.651 252.457C194.354 252.616 193.953 252.695 193.447 252.695C192.82 252.695 192.257 252.547 191.758 252.25C191.262 251.953 190.869 251.522 190.58 250.955C190.293 250.389 190.15 249.701 190.15 248.892C190.15 248.096 190.29 247.403 190.569 246.813C190.849 246.22 191.239 245.761 191.738 245.438C192.237 245.111 192.813 244.947 193.467 244.947C193.973 244.947 194.374 245.031 194.671 245.2C194.971 245.365 195.2 245.554 195.359 245.766C195.521 245.975 195.645 246.147 195.733 246.282H195.855V245.048H197.008V253.039C197.008 253.707 196.856 254.249 196.552 254.668C196.252 255.089 195.848 255.398 195.339 255.593C194.833 255.792 194.27 255.892 193.649 255.892ZM193.609 251.623C194.088 251.623 194.492 251.513 194.823 251.294C195.153 251.075 195.404 250.76 195.576 250.348C195.748 249.937 195.834 249.445 195.834 248.872C195.834 248.312 195.75 247.818 195.581 247.39C195.413 246.962 195.163 246.626 194.833 246.383C194.502 246.141 194.095 246.019 193.609 246.019C193.103 246.019 192.682 246.147 192.345 246.404C192.011 246.66 191.76 247.004 191.591 247.435C191.426 247.867 191.343 248.346 191.343 248.872C191.343 249.411 191.427 249.888 191.596 250.303C191.768 250.714 192.021 251.038 192.355 251.274C192.692 251.507 193.11 251.623 193.609 251.623ZM202.224 243.571V242.459H209.992V243.571H206.735V252.817H205.481V243.571H202.224ZM212.675 248.143V252.817H211.481V242.459H212.675V246.262H212.776C212.958 245.861 213.231 245.542 213.595 245.306C213.963 245.067 214.452 244.947 215.062 244.947C215.591 244.947 216.055 245.053 216.453 245.266C216.851 245.475 217.159 245.797 217.378 246.232C217.601 246.663 217.712 247.213 217.712 247.88V252.817H216.519V247.961C216.519 247.344 216.358 246.867 216.038 246.53C215.721 246.189 215.281 246.019 214.718 246.019C214.327 246.019 213.976 246.102 213.666 246.267C213.359 246.432 213.117 246.673 212.938 246.99C212.762 247.307 212.675 247.692 212.675 248.143ZM219.611 252.817V245.048H220.804V252.817H219.611ZM220.218 243.753C219.985 243.753 219.785 243.674 219.616 243.516C219.451 243.357 219.368 243.167 219.368 242.944C219.368 242.722 219.451 242.531 219.616 242.373C219.785 242.214 219.985 242.135 220.218 242.135C220.45 242.135 220.649 242.214 220.815 242.373C220.983 242.531 221.067 242.722 221.067 242.944C221.067 243.167 220.983 243.357 220.815 243.516C220.649 243.674 220.45 243.753 220.218 243.753ZM228.208 246.788L227.136 247.091C227.069 246.913 226.969 246.739 226.838 246.57C226.71 246.399 226.534 246.257 226.312 246.146C226.089 246.034 225.804 245.979 225.457 245.979C224.982 245.979 224.585 246.088 224.269 246.307C223.955 246.523 223.798 246.798 223.798 247.132C223.798 247.429 223.906 247.663 224.122 247.835C224.338 248.007 224.675 248.15 225.133 248.265L226.286 248.548C226.981 248.717 227.499 248.974 227.839 249.322C228.18 249.666 228.35 250.109 228.35 250.652C228.35 251.097 228.222 251.495 227.966 251.845C227.713 252.196 227.359 252.473 226.903 252.675C226.448 252.877 225.919 252.978 225.315 252.978C224.523 252.978 223.867 252.806 223.348 252.463C222.829 252.119 222.5 251.616 222.362 250.955L223.495 250.672C223.603 251.09 223.807 251.404 224.107 251.613C224.41 251.822 224.806 251.926 225.295 251.926C225.852 251.926 226.293 251.808 226.62 251.572C226.951 251.333 227.116 251.046 227.116 250.713C227.116 250.443 227.022 250.217 226.833 250.035C226.644 249.849 226.354 249.711 225.963 249.62L224.668 249.317C223.957 249.148 223.434 248.887 223.1 248.533C222.77 248.175 222.605 247.729 222.605 247.193C222.605 246.754 222.728 246.366 222.974 246.029C223.223 245.692 223.562 245.427 223.99 245.235C224.422 245.043 224.911 244.947 225.457 244.947C226.226 244.947 226.829 245.116 227.268 245.453C227.709 245.79 228.023 246.235 228.208 246.788ZM235.626 252.817L232.794 242.459H234.068L236.233 250.895H236.334L238.539 242.459H239.955L242.16 250.895H242.261L244.426 242.459H245.7L242.868 252.817H241.573L239.287 244.563H239.207L236.921 252.817H235.626ZM249.35 252.978C248.602 252.978 247.956 252.813 247.413 252.483C246.874 252.149 246.457 251.684 246.164 251.087C245.874 250.487 245.729 249.789 245.729 248.993C245.729 248.197 245.874 247.496 246.164 246.889C246.457 246.279 246.865 245.803 247.388 245.463C247.914 245.119 248.528 244.947 249.229 244.947C249.634 244.947 250.033 245.014 250.428 245.149C250.822 245.284 251.181 245.503 251.505 245.807C251.829 246.107 252.086 246.505 252.279 247C252.471 247.496 252.567 248.106 252.567 248.831V249.337H246.579V248.305H251.353C251.353 247.867 251.265 247.476 251.09 247.132C250.918 246.788 250.672 246.517 250.352 246.318C250.035 246.119 249.661 246.019 249.229 246.019C248.754 246.019 248.342 246.137 247.995 246.373C247.651 246.606 247.386 246.909 247.201 247.284C247.015 247.658 246.923 248.059 246.923 248.487V249.175C246.923 249.762 247.024 250.259 247.226 250.667C247.432 251.072 247.717 251.38 248.081 251.593C248.445 251.802 248.868 251.906 249.35 251.906C249.664 251.906 249.947 251.862 250.2 251.775C250.456 251.684 250.677 251.549 250.863 251.37C251.048 251.188 251.191 250.962 251.292 250.692L252.446 251.016C252.324 251.407 252.12 251.751 251.834 252.048C251.547 252.341 251.193 252.57 250.771 252.736C250.35 252.897 249.876 252.978 249.35 252.978ZM257.355 252.978C256.606 252.978 255.961 252.813 255.418 252.483C254.878 252.149 254.462 251.684 254.169 251.087C253.879 250.487 253.734 249.789 253.734 248.993C253.734 248.197 253.879 247.496 254.169 246.889C254.462 246.279 254.87 245.803 255.392 245.463C255.918 245.119 256.532 244.947 257.233 244.947C257.638 244.947 258.038 245.014 258.432 245.149C258.827 245.284 259.186 245.503 259.509 245.807C259.833 246.107 260.091 246.505 260.283 247C260.475 247.496 260.571 248.106 260.571 248.831V249.337H254.583V248.305H259.358C259.358 247.867 259.27 247.476 259.095 247.132C258.923 246.788 258.676 246.517 258.356 246.318C258.039 246.119 257.665 246.019 257.233 246.019C256.758 246.019 256.347 246.137 255.999 246.373C255.655 246.606 255.391 246.909 255.205 247.284C255.02 247.658 254.927 248.059 254.927 248.487V249.175C254.927 249.762 255.028 250.259 255.231 250.667C255.436 251.072 255.721 251.38 256.085 251.593C256.449 251.802 256.873 251.906 257.355 251.906C257.668 251.906 257.952 251.862 258.204 251.775C258.461 251.684 258.682 251.549 258.867 251.37C259.052 251.188 259.196 250.962 259.297 250.692L260.45 251.016C260.329 251.407 260.125 251.751 259.838 252.048C259.551 252.341 259.197 252.57 258.776 252.736C258.354 252.897 257.881 252.978 257.355 252.978ZM263.215 249.984L263.195 248.508H263.437L266.836 245.048H268.313L264.692 248.71H264.59L263.215 249.984ZM262.102 252.817V242.459H263.296V252.817H262.102ZM267.038 252.817L264.004 248.973L264.853 248.143L268.556 252.817H267.038Z" fill="#242424"/>
<path d="M33.9631 375L30.3835 361.909H31.9943L34.7301 372.571H34.858L37.6449 361.909H39.4347L42.2216 372.571H42.3494L45.0852 361.909H46.696L43.1165 375H41.4801L38.5909 364.568H38.4886L35.5994 375H33.9631ZM51.5412 375.205C50.6548 375.205 49.8771 374.994 49.2081 374.572C48.5433 374.15 48.0234 373.56 47.6484 372.801C47.2777 372.043 47.0923 371.156 47.0923 370.142C47.0923 369.119 47.2777 368.227 47.6484 367.464C48.0234 366.701 48.5433 366.109 49.2081 365.687C49.8771 365.265 50.6548 365.054 51.5412 365.054C52.4276 365.054 53.2031 365.265 53.8679 365.687C54.5369 366.109 55.0568 366.701 55.4276 367.464C55.8026 368.227 55.9901 369.119 55.9901 370.142C55.9901 371.156 55.8026 372.043 55.4276 372.801C55.0568 373.56 54.5369 374.15 53.8679 374.572C53.2031 374.994 52.4276 375.205 51.5412 375.205ZM51.5412 373.849C52.2145 373.849 52.7685 373.677 53.2031 373.332C53.6378 372.987 53.9595 372.533 54.1683 371.97C54.3771 371.408 54.4815 370.798 54.4815 370.142C54.4815 369.486 54.3771 368.874 54.1683 368.308C53.9595 367.741 53.6378 367.283 53.2031 366.933C52.7685 366.584 52.2145 366.409 51.5412 366.409C50.8679 366.409 50.3139 366.584 49.8793 366.933C49.4446 367.283 49.1229 367.741 48.9141 368.308C48.7053 368.874 48.6009 369.486 48.6009 370.142C48.6009 370.798 48.7053 371.408 48.9141 371.97C49.1229 372.533 49.4446 372.987 49.8793 373.332C50.3139 373.677 50.8679 373.849 51.5412 373.849ZM58.2928 375V365.182H59.7502V366.665H59.8525C60.0314 366.179 60.3553 365.785 60.824 365.482C61.2928 365.18 61.8212 365.028 62.4093 365.028C62.5201 365.028 62.6586 365.031 62.8248 365.035C62.9909 365.039 63.1167 365.045 63.2019 365.054V366.588C63.1507 366.575 63.0336 366.556 62.8503 366.531C62.6713 366.501 62.4817 366.486 62.2814 366.486C61.8042 366.486 61.378 366.586 61.003 366.786C60.6323 366.982 60.3382 367.255 60.1209 367.604C59.9078 367.95 59.8013 368.344 59.8013 368.787V375H58.2928ZM66.3963 371.42L66.3707 369.554H66.6776L70.973 365.182H72.8395L68.2628 369.81H68.1349L66.3963 371.42ZM64.9901 375V361.909H66.4986V375H64.9901ZM71.2287 375L67.3935 370.142L68.4673 369.094L73.1463 375H71.2287ZM84.2157 365.182V366.46H78.9231V365.182H84.2157ZM80.5083 375V363.827C80.5083 363.264 80.6404 362.795 80.9047 362.42C81.1689 362.045 81.5119 361.764 81.9338 361.577C82.3556 361.389 82.801 361.295 83.2697 361.295C83.6404 361.295 83.943 361.325 84.1774 361.385C84.4118 361.445 84.5865 361.5 84.7015 361.551L84.2669 362.855C84.1902 362.83 84.0836 362.798 83.9473 362.759C83.8152 362.721 83.6404 362.702 83.4231 362.702C82.9245 362.702 82.5645 362.827 82.3429 363.079C82.1255 363.33 82.0169 363.699 82.0169 364.185V375H80.5083ZM89.9142 375.205C89.0279 375.205 88.2502 374.994 87.5811 374.572C86.9164 374.15 86.3965 373.56 86.0215 372.801C85.6507 372.043 85.4654 371.156 85.4654 370.142C85.4654 369.119 85.6507 368.227 86.0215 367.464C86.3965 366.701 86.9164 366.109 87.5811 365.687C88.2502 365.265 89.0279 365.054 89.9142 365.054C90.8006 365.054 91.5762 365.265 92.2409 365.687C92.91 366.109 93.4299 366.701 93.8006 367.464C94.1756 368.227 94.3631 369.119 94.3631 370.142C94.3631 371.156 94.1756 372.043 93.8006 372.801C93.4299 373.56 92.91 374.15 92.2409 374.572C91.5762 374.994 90.8006 375.205 89.9142 375.205ZM89.9142 373.849C90.5875 373.849 91.1415 373.677 91.5762 373.332C92.0108 372.987 92.3326 372.533 92.5414 371.97C92.7502 371.408 92.8546 370.798 92.8546 370.142C92.8546 369.486 92.7502 368.874 92.5414 368.308C92.3326 367.741 92.0108 367.283 91.5762 366.933C91.1415 366.584 90.5875 366.409 89.9142 366.409C89.2409 366.409 88.687 366.584 88.2523 366.933C87.8176 367.283 87.4959 367.741 87.2871 368.308C87.0783 368.874 86.9739 369.486 86.9739 370.142C86.9739 370.798 87.0783 371.408 87.2871 371.97C87.4959 372.533 87.8176 372.987 88.2523 373.332C88.687 373.677 89.2409 373.849 89.9142 373.849ZM96.6658 375V365.182H98.1232V366.665H98.2255C98.4045 366.179 98.7283 365.785 99.1971 365.482C99.6658 365.18 100.194 365.028 100.782 365.028C100.893 365.028 101.032 365.031 101.198 365.035C101.364 365.039 101.49 365.045 101.575 365.054V366.588C101.524 366.575 101.407 366.556 101.223 366.531C101.044 366.501 100.855 366.486 100.654 366.486C100.177 366.486 99.7511 366.586 99.3761 366.786C99.0053 366.982 98.7113 367.255 98.494 367.604C98.2809 367.95 98.1744 368.344 98.1744 368.787V375H96.6658ZM107.053 375.205C106.132 375.205 105.34 374.987 104.675 374.553C104.01 374.118 103.499 373.519 103.141 372.756C102.783 371.994 102.604 371.122 102.604 370.142C102.604 369.145 102.787 368.265 103.154 367.502C103.525 366.735 104.04 366.136 104.701 365.706C105.365 365.271 106.141 365.054 107.027 365.054C107.718 365.054 108.34 365.182 108.894 365.438C109.448 365.693 109.902 366.051 110.255 366.511C110.609 366.972 110.828 367.509 110.914 368.122H109.405C109.29 367.675 109.034 367.278 108.638 366.933C108.246 366.584 107.718 366.409 107.053 366.409C106.465 366.409 105.949 366.562 105.506 366.869C105.067 367.172 104.724 367.6 104.477 368.154C104.234 368.704 104.113 369.349 104.113 370.091C104.113 370.849 104.232 371.51 104.471 372.072C104.713 372.635 105.054 373.072 105.493 373.383C105.936 373.694 106.456 373.849 107.053 373.849C107.445 373.849 107.801 373.781 108.12 373.645C108.44 373.509 108.711 373.312 108.932 373.057C109.154 372.801 109.311 372.494 109.405 372.136H110.914C110.828 372.716 110.618 373.238 110.281 373.702C109.949 374.163 109.507 374.529 108.958 374.802C108.412 375.07 107.777 375.205 107.053 375.205ZM117.235 375.205C116.289 375.205 115.473 374.996 114.787 374.578C114.105 374.156 113.579 373.568 113.208 372.814C112.842 372.055 112.659 371.173 112.659 370.168C112.659 369.162 112.842 368.276 113.208 367.509C113.579 366.737 114.095 366.136 114.755 365.706C115.42 365.271 116.196 365.054 117.082 365.054C117.593 365.054 118.098 365.139 118.597 365.31C119.096 365.48 119.549 365.757 119.958 366.141C120.368 366.52 120.694 367.023 120.936 367.649C121.179 368.276 121.301 369.047 121.301 369.963V370.602H113.733V369.298H119.767C119.767 368.744 119.656 368.25 119.434 367.815C119.217 367.381 118.906 367.038 118.501 366.786C118.1 366.535 117.627 366.409 117.082 366.409C116.481 366.409 115.961 366.558 115.522 366.857C115.088 367.151 114.753 367.534 114.519 368.007C114.284 368.48 114.167 368.987 114.167 369.528V370.398C114.167 371.139 114.295 371.768 114.551 372.283C114.811 372.795 115.171 373.185 115.631 373.453C116.091 373.717 116.626 373.849 117.235 373.849C117.632 373.849 117.99 373.794 118.309 373.683C118.633 373.568 118.912 373.398 119.147 373.172C119.381 372.942 119.562 372.656 119.69 372.315L121.147 372.724C120.994 373.219 120.736 373.653 120.374 374.028C120.012 374.399 119.564 374.689 119.032 374.898C118.499 375.102 117.9 375.205 117.235 375.205Z" fill="#242424"/>
<path d="M36.6719 389.493C36.6188 389.022 36.4001 388.658 36.0156 388.399C35.6312 388.137 35.1473 388.006 34.5639 388.006C34.1463 388.006 33.785 388.073 33.4801 388.205C33.1752 388.335 32.9382 388.513 32.7692 388.742C32.6035 388.968 32.5206 389.224 32.5206 389.513C32.5206 389.755 32.5769 389.964 32.6896 390.139C32.8056 390.315 32.9564 390.462 33.142 390.582C33.331 390.698 33.5331 390.795 33.7486 390.875C33.964 390.951 34.1712 391.014 34.37 391.064L35.3643 391.322C35.6892 391.402 36.0223 391.51 36.3636 391.646C36.705 391.781 37.0215 391.96 37.3132 392.183C37.6049 392.405 37.8402 392.68 38.0192 393.008C38.2015 393.336 38.2926 393.729 38.2926 394.186C38.2926 394.763 38.1435 395.275 37.8452 395.722C37.5502 396.17 37.121 396.523 36.5575 396.781C35.9974 397.04 35.3196 397.169 34.5241 397.169C33.7618 397.169 33.1023 397.048 32.5455 396.806C31.9886 396.564 31.5528 396.221 31.2379 395.777C30.9231 395.33 30.7491 394.799 30.7159 394.186H32.2571C32.2869 394.554 32.4063 394.861 32.6151 395.106C32.8272 395.348 33.0973 395.528 33.4254 395.648C33.7569 395.764 34.1198 395.822 34.5142 395.822C34.9484 395.822 35.3345 395.754 35.6726 395.618C36.014 395.479 36.2824 395.286 36.478 395.041C36.6735 394.793 36.7713 394.503 36.7713 394.171C36.7713 393.87 36.6851 393.623 36.5128 393.43C36.3438 393.238 36.1134 393.079 35.8217 392.953C35.5334 392.827 35.2069 392.716 34.8423 392.62L33.6392 392.292C32.8239 392.07 32.1776 391.743 31.7003 391.312C31.2263 390.882 30.9893 390.312 30.9893 389.602C30.9893 389.016 31.1484 388.504 31.4666 388.066C31.7848 387.629 32.2157 387.289 32.7592 387.047C33.3028 386.802 33.916 386.679 34.5987 386.679C35.2881 386.679 35.8963 386.8 36.4233 387.042C36.9536 387.284 37.3712 387.617 37.6761 388.041C37.9811 388.462 38.1402 388.946 38.1534 389.493H36.6719ZM41.4956 392.466V397H40.0091V386.818H41.4757V390.607H41.5701C41.7491 390.196 42.0225 389.869 42.3904 389.627C42.7583 389.385 43.2389 389.264 43.8322 389.264C44.3559 389.264 44.8133 389.372 45.2044 389.587C45.5988 389.803 45.9037 390.124 46.1191 390.552C46.3379 390.976 46.4473 391.506 46.4473 392.143V397H44.9608V392.322C44.9608 391.762 44.8166 391.327 44.5282 391.019C44.2399 390.708 43.8388 390.552 43.3251 390.552C42.9738 390.552 42.6589 390.626 42.3805 390.776C42.1054 390.925 41.8883 391.143 41.7292 391.432C41.5734 391.717 41.4956 392.062 41.4956 392.466ZM51.6475 397.154C50.9316 397.154 50.3069 396.99 49.7733 396.662C49.2396 396.334 48.8253 395.875 48.5304 395.285C48.2354 394.695 48.0879 394.005 48.0879 393.217C48.0879 392.424 48.2354 391.732 48.5304 391.138C48.8253 390.545 49.2396 390.085 49.7733 389.756C50.3069 389.428 50.9316 389.264 51.6475 389.264C52.3635 389.264 52.9882 389.428 53.5218 389.756C54.0555 390.085 54.4698 390.545 54.7647 391.138C55.0597 391.732 55.2072 392.424 55.2072 393.217C55.2072 394.005 55.0597 394.695 54.7647 395.285C54.4698 395.875 54.0555 396.334 53.5218 396.662C52.9882 396.99 52.3635 397.154 51.6475 397.154ZM51.6525 395.906C52.1165 395.906 52.501 395.784 52.8059 395.538C53.1109 395.293 53.3362 394.967 53.4821 394.559C53.6312 394.151 53.7058 393.702 53.7058 393.212C53.7058 392.724 53.6312 392.277 53.4821 391.869C53.3362 391.458 53.1109 391.129 52.8059 390.88C52.501 390.631 52.1165 390.507 51.6525 390.507C51.1852 390.507 50.7974 390.631 50.4892 390.88C50.1842 391.129 49.9572 391.458 49.8081 391.869C49.6622 392.277 49.5893 392.724 49.5893 393.212C49.5893 393.702 49.6622 394.151 49.8081 394.559C49.9572 394.967 50.1842 395.293 50.4892 395.538C50.7974 395.784 51.1852 395.906 51.6525 395.906ZM56.8665 397V389.364H58.3033V390.577H58.3828C58.522 390.166 58.7673 389.843 59.1186 389.607C59.4732 389.369 59.8743 389.249 60.3217 389.249C60.4145 389.249 60.5239 389.253 60.6499 389.259C60.7791 389.266 60.8802 389.274 60.9531 389.284V390.706C60.8935 390.689 60.7874 390.671 60.6349 390.651C60.4825 390.628 60.33 390.616 60.1776 390.616C59.8262 390.616 59.513 390.691 59.2379 390.84C58.9661 390.986 58.7507 391.19 58.5916 391.452C58.4325 391.71 58.353 392.005 58.353 392.337V397H56.8665ZM66.2553 389.364V390.557H62.0842V389.364H66.2553ZM63.2028 387.534H64.6893V394.758C64.6893 395.046 64.7324 395.263 64.8185 395.409C64.9047 395.552 65.0157 395.649 65.1516 395.702C65.2908 395.752 65.4416 395.777 65.604 395.777C65.7234 395.777 65.8278 395.769 65.9173 395.752C66.0067 395.736 66.0763 395.722 66.1261 395.712L66.3945 396.94C66.3084 396.973 66.1857 397.007 66.0266 397.04C65.8675 397.076 65.6687 397.096 65.43 397.099C65.0389 397.106 64.6744 397.036 64.3363 396.891C63.9982 396.745 63.7248 396.519 63.516 396.214C63.3072 395.91 63.2028 395.527 63.2028 395.066V387.534ZM74.4634 397.149C73.8469 397.149 73.2968 396.992 72.8129 396.677C72.3323 396.359 71.9544 395.906 71.6793 395.32C71.4076 394.73 71.2717 394.022 71.2717 393.197C71.2717 392.371 71.4092 391.665 71.6843 391.079C71.9627 390.492 72.3439 390.043 72.8278 389.732C73.3117 389.42 73.8602 389.264 74.4734 389.264C74.9473 389.264 75.3285 389.344 75.6168 389.503C75.9085 389.659 76.1339 389.841 76.293 390.05C76.4554 390.259 76.5813 390.442 76.6708 390.602H76.7603V386.818H78.2468V397H76.7951V395.812H76.6708C76.5813 395.974 76.4521 396.16 76.283 396.369C76.1173 396.577 75.8886 396.76 75.5969 396.915C75.3053 397.071 74.9274 397.149 74.4634 397.149ZM74.7915 395.881C75.2191 395.881 75.5804 395.769 75.8754 395.543C76.1737 395.315 76.399 394.998 76.5515 394.594C76.7073 394.189 76.7852 393.719 76.7852 393.182C76.7852 392.652 76.7089 392.187 76.5565 391.79C76.404 391.392 76.1803 391.082 75.8853 390.86C75.5903 390.638 75.2257 390.527 74.7915 390.527C74.3441 390.527 73.9712 390.643 73.6729 390.875C73.3746 391.107 73.1493 391.424 72.9968 391.825C72.8477 392.226 72.7731 392.678 72.7731 393.182C72.7731 393.692 72.8493 394.151 73.0018 394.559C73.1542 394.967 73.3796 395.29 73.6779 395.528C73.9795 395.764 74.3507 395.881 74.7915 395.881ZM83.6596 397.154C82.9073 397.154 82.2593 396.993 81.7157 396.672C81.1755 396.347 80.7579 395.891 80.4629 395.305C80.1712 394.715 80.0254 394.024 80.0254 393.232C80.0254 392.449 80.1712 391.76 80.4629 391.163C80.7579 390.567 81.1689 390.101 81.6958 389.766C82.2261 389.432 82.8459 389.264 83.5552 389.264C83.9861 389.264 84.4037 389.335 84.8081 389.478C85.2124 389.621 85.5753 389.844 85.8968 390.149C86.2183 390.454 86.4719 390.85 86.6575 391.337C86.8431 391.821 86.9359 392.41 86.9359 393.102V393.629H80.8656V392.516H85.4792C85.4792 392.125 85.3997 391.778 85.2406 391.477C85.0815 391.172 84.8578 390.931 84.5694 390.756C84.2844 390.58 83.9496 390.492 83.5652 390.492C83.1475 390.492 82.783 390.595 82.4714 390.8C82.1632 391.003 81.9245 391.268 81.7555 391.596C81.5898 391.921 81.5069 392.274 81.5069 392.655V393.525C81.5069 394.035 81.5964 394.469 81.7754 394.827C81.9577 395.185 82.2112 395.459 82.536 395.648C82.8609 395.833 83.2404 395.926 83.6745 395.926C83.9563 395.926 84.2131 395.886 84.4451 395.807C84.6771 395.724 84.8777 395.601 85.0467 395.439C85.2157 395.277 85.345 395.076 85.4345 394.837L86.8414 395.091C86.7288 395.505 86.5266 395.868 86.2349 396.18C85.9466 396.488 85.5836 396.728 85.1461 396.901C84.7119 397.07 84.2164 397.154 83.6596 397.154ZM94.3075 391.228L92.9602 391.467C92.9039 391.294 92.8144 391.13 92.6918 390.974C92.5724 390.819 92.41 390.691 92.2045 390.592C91.9991 390.492 91.7422 390.442 91.4339 390.442C91.013 390.442 90.6617 390.537 90.38 390.726C90.0982 390.911 89.9574 391.152 89.9574 391.447C89.9574 391.702 90.0518 391.907 90.2408 392.063C90.4297 392.219 90.7346 392.347 91.1555 392.446L92.3686 392.724C93.0713 392.887 93.5949 393.137 93.9396 393.475C94.2843 393.813 94.4567 394.252 94.4567 394.793C94.4567 395.25 94.3241 395.658 94.0589 396.016C93.7971 396.37 93.4309 396.649 92.9602 396.851C92.4929 397.053 91.951 397.154 91.3345 397.154C90.4794 397.154 89.7817 396.972 89.2415 396.607C88.7012 396.239 88.3698 395.717 88.2472 395.041L89.6839 394.822C89.7734 395.197 89.9574 395.48 90.2358 395.673C90.5142 395.862 90.8771 395.956 91.3246 395.956C91.8118 395.956 92.2012 395.855 92.4929 395.653C92.7846 395.447 92.9304 395.197 92.9304 394.902C92.9304 394.663 92.8409 394.463 92.6619 394.3C92.4863 394.138 92.2161 394.015 91.8516 393.933L90.5589 393.649C89.8464 393.487 89.3194 393.228 88.978 392.874C88.6399 392.519 88.4709 392.07 88.4709 391.526C88.4709 391.076 88.5968 390.681 88.8487 390.343C89.1006 390.005 89.4486 389.741 89.8928 389.553C90.3369 389.36 90.8456 389.264 91.419 389.264C92.2443 389.264 92.8939 389.443 93.3679 389.801C93.8419 390.156 94.1551 390.631 94.3075 391.228ZM99.3077 397.154C98.5686 397.154 97.9322 396.987 97.3986 396.652C96.8683 396.314 96.4606 395.848 96.1756 395.255C95.8906 394.662 95.748 393.982 95.748 393.217C95.748 392.441 95.8939 391.757 96.1855 391.163C96.4772 390.567 96.8882 390.101 97.4185 389.766C97.9488 389.432 98.5736 389.264 99.2928 389.264C99.8728 389.264 100.39 389.372 100.844 389.587C101.298 389.799 101.664 390.098 101.943 390.482C102.224 390.867 102.392 391.316 102.445 391.83H100.998C100.919 391.472 100.736 391.163 100.451 390.905C100.169 390.646 99.7916 390.517 99.3176 390.517C98.9034 390.517 98.5404 390.626 98.2289 390.845C97.9206 391.061 97.6803 391.369 97.508 391.77C97.3356 392.168 97.2495 392.638 97.2495 393.182C97.2495 393.739 97.334 394.219 97.503 394.624C97.6721 395.028 97.9107 395.341 98.2189 395.563C98.5305 395.785 98.8967 395.896 99.3176 395.896C99.5994 395.896 99.8546 395.845 100.083 395.742C100.315 395.636 100.509 395.485 100.665 395.29C100.824 395.094 100.935 394.859 100.998 394.584H102.445C102.392 395.078 102.231 395.518 101.963 395.906C101.694 396.294 101.334 396.599 100.884 396.821C100.436 397.043 99.9109 397.154 99.3077 397.154ZM104.034 397V389.364H105.471V390.577H105.551C105.69 390.166 105.935 389.843 106.287 389.607C106.641 389.369 107.042 389.249 107.49 389.249C107.583 389.249 107.692 389.253 107.818 389.259C107.947 389.266 108.048 389.274 108.121 389.284V390.706C108.061 390.689 107.955 390.671 107.803 390.651C107.65 390.628 107.498 390.616 107.346 390.616C106.994 390.616 106.681 390.691 106.406 390.84C106.134 390.986 105.919 391.19 105.76 391.452C105.6 391.71 105.521 392.005 105.521 392.337V397H104.034ZM109.407 397V389.364H110.894V397H109.407ZM110.158 388.185C109.9 388.185 109.678 388.099 109.492 387.927C109.31 387.751 109.219 387.542 109.219 387.3C109.219 387.055 109.31 386.846 109.492 386.674C109.678 386.498 109.9 386.411 110.158 386.411C110.417 386.411 110.637 386.498 110.819 386.674C111.005 386.846 111.098 387.055 111.098 387.3C111.098 387.542 111.005 387.751 110.819 387.927C110.637 388.099 110.417 388.185 110.158 388.185ZM112.894 399.864V389.364H114.346V390.602H114.47C114.556 390.442 114.68 390.259 114.843 390.05C115.005 389.841 115.23 389.659 115.519 389.503C115.807 389.344 116.188 389.264 116.662 389.264C117.279 389.264 117.829 389.42 118.313 389.732C118.797 390.043 119.176 390.492 119.451 391.079C119.73 391.665 119.869 392.371 119.869 393.197C119.869 394.022 119.731 394.73 119.456 395.32C119.181 395.906 118.803 396.359 118.323 396.677C117.842 396.992 117.294 397.149 116.677 397.149C116.213 397.149 115.834 397.071 115.539 396.915C115.247 396.76 115.018 396.577 114.853 396.369C114.687 396.16 114.559 395.974 114.47 395.812H114.38V399.864H112.894ZM114.35 393.182C114.35 393.719 114.428 394.189 114.584 394.594C114.74 394.998 114.965 395.315 115.26 395.543C115.555 395.769 115.917 395.881 116.344 395.881C116.788 395.881 117.159 395.764 117.458 395.528C117.756 395.29 117.981 394.967 118.134 394.559C118.29 394.151 118.368 393.692 118.368 393.182C118.368 392.678 118.291 392.226 118.139 391.825C117.99 391.424 117.764 391.107 117.463 390.875C117.164 390.643 116.792 390.527 116.344 390.527C115.913 390.527 115.549 390.638 115.25 390.86C114.955 391.082 114.732 391.392 114.579 391.79C114.427 392.187 114.35 392.652 114.35 393.182ZM125.099 389.364V390.557H120.928V389.364H125.099ZM122.047 387.534H123.533V394.758C123.533 395.046 123.576 395.263 123.662 395.409C123.748 395.552 123.859 395.649 123.995 395.702C124.135 395.752 124.285 395.777 124.448 395.777C124.567 395.777 124.672 395.769 124.761 395.752C124.85 395.736 124.92 395.722 124.97 395.712L125.238 396.94C125.152 396.973 125.029 397.007 124.87 397.04C124.711 397.076 124.512 397.096 124.274 397.099C123.883 397.106 123.518 397.036 123.18 396.891C122.842 396.745 122.569 396.519 122.36 396.214C122.151 395.91 122.047 395.527 122.047 395.066V387.534ZM126.743 397V389.364H128.23V397H126.743ZM127.494 388.185C127.236 388.185 127.014 388.099 126.828 387.927C126.646 387.751 126.555 387.542 126.555 387.3C126.555 387.055 126.646 386.846 126.828 386.674C127.014 386.498 127.236 386.411 127.494 386.411C127.753 386.411 127.973 386.498 128.155 386.674C128.341 386.846 128.434 387.055 128.434 387.3C128.434 387.542 128.341 387.751 128.155 387.927C127.973 388.099 127.753 388.185 127.494 388.185ZM133.446 397.154C132.73 397.154 132.106 396.99 131.572 396.662C131.038 396.334 130.624 395.875 130.329 395.285C130.034 394.695 129.887 394.005 129.887 393.217C129.887 392.424 130.034 391.732 130.329 391.138C130.624 390.545 131.038 390.085 131.572 389.756C132.106 389.428 132.73 389.264 133.446 389.264C134.162 389.264 134.787 389.428 135.321 389.756C135.854 390.085 136.269 390.545 136.564 391.138C136.859 391.732 137.006 392.424 137.006 393.217C137.006 394.005 136.859 394.695 136.564 395.285C136.269 395.875 135.854 396.334 135.321 396.662C134.787 396.99 134.162 397.154 133.446 397.154ZM133.451 395.906C133.915 395.906 134.3 395.784 134.605 395.538C134.91 395.293 135.135 394.967 135.281 394.559C135.43 394.151 135.505 393.702 135.505 393.212C135.505 392.724 135.43 392.277 135.281 391.869C135.135 391.458 134.91 391.129 134.605 390.88C134.3 390.631 133.915 390.507 133.451 390.507C132.984 390.507 132.596 390.631 132.288 390.88C131.983 391.129 131.756 391.458 131.607 391.869C131.461 392.277 131.388 392.724 131.388 393.212C131.388 393.702 131.461 394.151 131.607 394.559C131.756 394.967 131.983 395.293 132.288 395.538C132.596 395.784 132.984 395.906 133.451 395.906ZM140.152 392.466V397H138.665V389.364H140.092V390.607H140.187C140.362 390.202 140.637 389.877 141.012 389.632C141.39 389.387 141.865 389.264 142.439 389.264C142.959 389.264 143.415 389.374 143.806 389.592C144.197 389.808 144.5 390.129 144.716 390.557C144.931 390.984 145.039 391.513 145.039 392.143V397H143.552V392.322C143.552 391.768 143.408 391.336 143.12 391.024C142.831 390.709 142.435 390.552 141.932 390.552C141.587 390.552 141.28 390.626 141.012 390.776C140.747 390.925 140.536 391.143 140.381 391.432C140.228 391.717 140.152 392.062 140.152 392.466ZM153.939 400.023C153.333 400.023 152.811 399.943 152.373 399.784C151.939 399.625 151.584 399.415 151.309 399.153C151.034 398.891 150.829 398.604 150.693 398.293L151.971 397.766C152.06 397.911 152.179 398.066 152.328 398.228C152.481 398.394 152.686 398.535 152.945 398.651C153.207 398.767 153.543 398.825 153.954 398.825C154.518 398.825 154.983 398.687 155.351 398.412C155.719 398.14 155.903 397.706 155.903 397.109V395.608H155.809C155.719 395.77 155.59 395.951 155.421 396.15C155.255 396.349 155.026 396.521 154.735 396.667C154.443 396.813 154.064 396.886 153.596 396.886C152.993 396.886 152.449 396.745 151.966 396.463C151.485 396.178 151.104 395.759 150.822 395.205C150.544 394.648 150.404 393.964 150.404 393.152C150.404 392.34 150.542 391.644 150.817 391.064C151.096 390.484 151.477 390.04 151.961 389.732C152.444 389.42 152.993 389.264 153.606 389.264C154.08 389.264 154.463 389.344 154.755 389.503C155.046 389.659 155.273 389.841 155.436 390.05C155.601 390.259 155.729 390.442 155.819 390.602H155.928V389.364H157.385V397.169C157.385 397.825 157.232 398.364 156.927 398.785C156.622 399.206 156.21 399.517 155.689 399.719C155.172 399.922 154.589 400.023 153.939 400.023ZM153.924 395.653C154.352 395.653 154.713 395.553 155.008 395.354C155.306 395.152 155.532 394.864 155.684 394.489C155.84 394.112 155.918 393.659 155.918 393.132C155.918 392.618 155.842 392.166 155.689 391.775C155.537 391.384 155.313 391.079 155.018 390.86C154.723 390.638 154.359 390.527 153.924 390.527C153.477 390.527 153.104 390.643 152.806 390.875C152.507 391.104 152.282 391.415 152.13 391.81C151.98 392.204 151.906 392.645 151.906 393.132C151.906 393.633 151.982 394.072 152.135 394.45C152.287 394.827 152.512 395.122 152.811 395.335C153.112 395.547 153.484 395.653 153.924 395.653ZM162.595 397.154C161.879 397.154 161.254 396.99 160.721 396.662C160.187 396.334 159.773 395.875 159.478 395.285C159.183 394.695 159.035 394.005 159.035 393.217C159.035 392.424 159.183 391.732 159.478 391.138C159.773 390.545 160.187 390.085 160.721 389.756C161.254 389.428 161.879 389.264 162.595 389.264C163.311 389.264 163.935 389.428 164.469 389.756C165.003 390.085 165.417 390.545 165.712 391.138C166.007 391.732 166.154 392.424 166.154 393.217C166.154 394.005 166.007 394.695 165.712 395.285C165.417 395.875 165.003 396.334 164.469 396.662C163.935 396.99 163.311 397.154 162.595 397.154ZM162.6 395.906C163.064 395.906 163.448 395.784 163.753 395.538C164.058 395.293 164.283 394.967 164.429 394.559C164.578 394.151 164.653 393.702 164.653 393.212C164.653 392.724 164.578 392.277 164.429 391.869C164.283 391.458 164.058 391.129 163.753 390.88C163.448 390.631 163.064 390.507 162.6 390.507C162.132 390.507 161.745 390.631 161.436 390.88C161.132 391.129 160.904 391.458 160.755 391.869C160.609 392.277 160.537 392.724 160.537 393.212C160.537 393.702 160.609 394.151 160.755 394.559C160.904 394.967 161.132 395.293 161.436 395.538C161.745 395.784 162.132 395.906 162.6 395.906ZM171.105 397.154C170.353 397.154 169.705 396.993 169.161 396.672C168.621 396.347 168.203 395.891 167.908 395.305C167.617 394.715 167.471 394.024 167.471 393.232C167.471 392.449 167.617 391.76 167.908 391.163C168.203 390.567 168.614 390.101 169.141 389.766C169.671 389.432 170.291 389.264 171.001 389.264C171.431 389.264 171.849 389.335 172.253 389.478C172.658 389.621 173.021 389.844 173.342 390.149C173.664 390.454 173.917 390.85 174.103 391.337C174.288 391.821 174.381 392.41 174.381 393.102V393.629H168.311V392.516H172.925C172.925 392.125 172.845 391.778 172.686 391.477C172.527 391.172 172.303 390.931 172.015 390.756C171.73 390.58 171.395 390.492 171.01 390.492C170.593 390.492 170.228 390.595 169.917 390.8C169.608 391.003 169.37 391.268 169.201 391.596C169.035 391.921 168.952 392.274 168.952 392.655V393.525C168.952 394.035 169.042 394.469 169.221 394.827C169.403 395.185 169.657 395.459 169.981 395.648C170.306 395.833 170.686 395.926 171.12 395.926C171.402 395.926 171.658 395.886 171.89 395.807C172.122 395.724 172.323 395.601 172.492 395.439C172.661 395.277 172.79 395.076 172.88 394.837L174.287 395.091C174.174 395.505 173.972 395.868 173.68 396.18C173.392 396.488 173.029 396.728 172.591 396.901C172.157 397.07 171.662 397.154 171.105 397.154ZM181.753 391.228L180.406 391.467C180.349 391.294 180.26 391.13 180.137 390.974C180.018 390.819 179.855 390.691 179.65 390.592C179.444 390.492 179.188 390.442 178.879 390.442C178.458 390.442 178.107 390.537 177.825 390.726C177.544 390.911 177.403 391.152 177.403 391.447C177.403 391.702 177.497 391.907 177.686 392.063C177.875 392.219 178.18 392.347 178.601 392.446L179.814 392.724C180.517 392.887 181.04 393.137 181.385 393.475C181.73 393.813 181.902 394.252 181.902 394.793C181.902 395.25 181.769 395.658 181.504 396.016C181.242 396.37 180.876 396.649 180.406 396.851C179.938 397.053 179.396 397.154 178.78 397.154C177.925 397.154 177.227 396.972 176.687 396.607C176.147 396.239 175.815 395.717 175.692 395.041L177.129 394.822C177.219 395.197 177.403 395.48 177.681 395.673C177.96 395.862 178.322 395.956 178.77 395.956C179.257 395.956 179.647 395.855 179.938 395.653C180.23 395.447 180.376 395.197 180.376 394.902C180.376 394.663 180.286 394.463 180.107 394.3C179.932 394.138 179.661 394.015 179.297 393.933L178.004 393.649C177.292 393.487 176.765 393.228 176.423 392.874C176.085 392.519 175.916 392.07 175.916 391.526C175.916 391.076 176.042 390.681 176.294 390.343C176.546 390.005 176.894 389.741 177.338 389.553C177.782 389.36 178.291 389.264 178.864 389.264C179.69 389.264 180.339 389.443 180.813 389.801C181.287 390.156 181.6 390.631 181.753 391.228ZM188.728 392.466V397H187.241V386.818H188.708V390.607H188.803C188.982 390.196 189.255 389.869 189.623 389.627C189.991 389.385 190.471 389.264 191.065 389.264C191.588 389.264 192.046 389.372 192.437 389.587C192.831 389.803 193.136 390.124 193.352 390.552C193.57 390.976 193.68 391.506 193.68 392.143V397H192.193V392.322C192.193 391.762 192.049 391.327 191.761 391.019C191.472 390.708 191.071 390.552 190.558 390.552C190.206 390.552 189.891 390.626 189.613 390.776C189.338 390.925 189.121 391.143 188.962 391.432C188.806 391.717 188.728 392.062 188.728 392.466ZM198.955 397.154C198.202 397.154 197.554 396.993 197.011 396.672C196.47 396.347 196.053 395.891 195.758 395.305C195.466 394.715 195.32 394.024 195.32 393.232C195.32 392.449 195.466 391.76 195.758 391.163C196.053 390.567 196.464 390.101 196.991 389.766C197.521 389.432 198.141 389.264 198.85 389.264C199.281 389.264 199.699 389.335 200.103 389.478C200.507 389.621 200.87 389.844 201.192 390.149C201.513 390.454 201.767 390.85 201.952 391.337C202.138 391.821 202.231 392.41 202.231 393.102V393.629H196.161V392.516H200.774C200.774 392.125 200.695 391.778 200.536 391.477C200.376 391.172 200.153 390.931 199.864 390.756C199.579 390.58 199.245 390.492 198.86 390.492C198.442 390.492 198.078 390.595 197.766 390.8C197.458 391.003 197.219 391.268 197.05 391.596C196.885 391.921 196.802 392.274 196.802 392.655V393.525C196.802 394.035 196.891 394.469 197.07 394.827C197.253 395.185 197.506 395.459 197.831 395.648C198.156 395.833 198.535 395.926 198.969 395.926C199.251 395.926 199.508 395.886 199.74 395.807C199.972 395.724 200.173 395.601 200.342 395.439C200.511 395.277 200.64 395.076 200.729 394.837L202.136 395.091C202.024 395.505 201.821 395.868 201.53 396.18C201.241 396.488 200.879 396.728 200.441 396.901C200.007 397.07 199.511 397.154 198.955 397.154ZM203.88 397V389.364H205.317V390.577H205.396C205.536 390.166 205.781 389.843 206.132 389.607C206.487 389.369 206.888 389.249 207.335 389.249C207.428 389.249 207.538 389.253 207.664 389.259C207.793 389.266 207.894 389.274 207.967 389.284V390.706C207.907 390.689 207.801 390.671 207.649 390.651C207.496 390.628 207.344 390.616 207.191 390.616C206.84 390.616 206.527 390.691 206.252 390.84C205.98 390.986 205.764 391.19 205.605 391.452C205.446 391.71 205.367 392.005 205.367 392.337V397H203.88ZM212.271 397.154C211.519 397.154 210.871 396.993 210.327 396.672C209.787 396.347 209.369 395.891 209.074 395.305C208.783 394.715 208.637 394.024 208.637 393.232C208.637 392.449 208.783 391.76 209.074 391.163C209.369 390.567 209.78 390.101 210.307 389.766C210.837 389.432 211.457 389.264 212.167 389.264C212.597 389.264 213.015 389.335 213.419 389.478C213.824 389.621 214.187 389.844 214.508 390.149C214.83 390.454 215.083 390.85 215.269 391.337C215.454 391.821 215.547 392.41 215.547 393.102V393.629H209.477V392.516H214.091C214.091 392.125 214.011 391.778 213.852 391.477C213.693 391.172 213.469 390.931 213.181 390.756C212.896 390.58 212.561 390.492 212.176 390.492C211.759 390.492 211.394 390.595 211.083 390.8C210.775 391.003 210.536 391.268 210.367 391.596C210.201 391.921 210.118 392.274 210.118 392.655V393.525C210.118 394.035 210.208 394.469 210.387 394.827C210.569 395.185 210.823 395.459 211.147 395.648C211.472 395.833 211.852 395.926 212.286 395.926C212.568 395.926 212.824 395.886 213.056 395.807C213.288 395.724 213.489 395.601 213.658 395.439C213.827 395.277 213.956 395.076 214.046 394.837L215.453 395.091C215.34 395.505 215.138 395.868 214.846 396.18C214.558 396.488 214.195 396.728 213.757 396.901C213.323 397.07 212.828 397.154 212.271 397.154Z" fill="#242424"/>
<rect x="259.5" y="35.5" width="128.942" height="31" rx="15.5" fill="url(#paint0_linear_1_273)"/>
<rect x="259.5" y="35.5" width="128.942" height="31" rx="15.5" stroke="url(#paint1_linear_1_273)"/>
<path d="M276.306 56V47.36H279.06C279.132 47.36 279.274 47.362 279.486 47.366C279.702 47.37 279.91 47.384 280.11 47.408C280.794 47.496 281.372 47.74 281.844 48.14C282.32 48.536 282.68 49.042 282.924 49.658C283.168 50.274 283.29 50.948 283.29 51.68C283.29 52.412 283.168 53.086 282.924 53.702C282.68 54.318 282.32 54.826 281.844 55.226C281.372 55.622 280.794 55.864 280.11 55.952C279.914 55.976 279.708 55.99 279.492 55.994C279.276 55.998 279.132 56 279.06 56H276.306ZM277.776 54.638H279.06C279.18 54.638 279.332 54.634 279.516 54.626C279.704 54.618 279.87 54.6 280.014 54.572C280.422 54.496 280.754 54.314 281.01 54.026C281.266 53.738 281.454 53.388 281.574 52.976C281.698 52.564 281.76 52.132 281.76 51.68C281.76 51.212 281.698 50.772 281.574 50.36C281.45 49.948 281.258 49.602 280.998 49.322C280.742 49.042 280.414 48.864 280.014 48.788C279.87 48.756 279.704 48.738 279.516 48.734C279.332 48.726 279.18 48.722 279.06 48.722H277.776V54.638ZM284.834 56L287.558 47.36H289.676L292.4 56H290.912L288.44 48.248H288.764L286.322 56H284.834ZM286.352 54.128V52.778H290.888V54.128H286.352ZM294.565 56V47.36H296.011V56H294.565ZM298.888 56V47.36H300.334V54.644H304.15V56H298.888ZM307.031 56V52.46L304.091 47.36H305.777L307.763 50.804L309.743 47.36H311.429L308.495 52.46V56H307.031ZM318.053 56L315.329 47.36H316.817L319.097 54.596L321.407 47.36H322.895L320.171 56H318.053ZM324.877 56V47.36H326.323V56H324.877ZM332.278 56.18C331.646 56.18 331.076 56.07 330.568 55.85C330.064 55.63 329.648 55.316 329.32 54.908C328.996 54.496 328.79 54.008 328.702 53.444L330.202 53.216C330.33 53.728 330.592 54.124 330.988 54.404C331.388 54.684 331.848 54.824 332.368 54.824C332.676 54.824 332.966 54.776 333.238 54.68C333.51 54.584 333.73 54.444 333.898 54.26C334.07 54.076 334.156 53.85 334.156 53.582C334.156 53.462 334.136 53.352 334.096 53.252C334.056 53.148 333.996 53.056 333.916 52.976C333.84 52.896 333.74 52.824 333.616 52.76C333.496 52.692 333.356 52.634 333.196 52.586L330.964 51.926C330.772 51.87 330.564 51.796 330.34 51.704C330.12 51.608 329.91 51.478 329.71 51.314C329.514 51.146 329.352 50.934 329.224 50.678C329.1 50.418 329.038 50.098 329.038 49.718C329.038 49.162 329.178 48.696 329.458 48.32C329.742 47.94 330.122 47.656 330.598 47.468C331.078 47.28 331.61 47.188 332.194 47.192C332.786 47.196 333.314 47.298 333.778 47.498C334.242 47.694 334.63 47.98 334.942 48.356C335.254 48.732 335.474 49.186 335.602 49.718L334.048 49.988C333.984 49.684 333.86 49.426 333.676 49.214C333.496 48.998 333.274 48.834 333.01 48.722C332.75 48.61 332.472 48.55 332.176 48.542C331.888 48.538 331.62 48.582 331.372 48.674C331.128 48.762 330.93 48.89 330.778 49.058C330.63 49.226 330.556 49.422 330.556 49.646C330.556 49.858 330.62 50.032 330.748 50.168C330.876 50.3 331.034 50.406 331.222 50.486C331.414 50.562 331.608 50.626 331.804 50.678L333.352 51.11C333.564 51.166 333.802 51.242 334.066 51.338C334.33 51.434 334.584 51.568 334.828 51.74C335.072 51.912 335.272 52.138 335.428 52.418C335.588 52.698 335.668 53.054 335.668 53.486C335.668 53.934 335.574 54.328 335.386 54.668C335.202 55.004 334.952 55.284 334.636 55.508C334.32 55.732 333.958 55.9 333.55 56.012C333.146 56.124 332.722 56.18 332.278 56.18ZM338.047 56V47.36H339.493V56H338.047ZM344.326 56V48.716H341.53V47.36H348.568V48.716H345.772V56H344.326ZM353.685 56.18C353.053 56.18 352.483 56.07 351.975 55.85C351.471 55.63 351.055 55.316 350.727 54.908C350.403 54.496 350.197 54.008 350.109 53.444L351.609 53.216C351.737 53.728 351.999 54.124 352.395 54.404C352.795 54.684 353.255 54.824 353.775 54.824C354.083 54.824 354.373 54.776 354.645 54.68C354.917 54.584 355.137 54.444 355.305 54.26C355.477 54.076 355.563 53.85 355.563 53.582C355.563 53.462 355.543 53.352 355.503 53.252C355.463 53.148 355.403 53.056 355.323 52.976C355.247 52.896 355.147 52.824 355.023 52.76C354.903 52.692 354.763 52.634 354.603 52.586L352.371 51.926C352.179 51.87 351.971 51.796 351.747 51.704C351.527 51.608 351.317 51.478 351.117 51.314C350.921 51.146 350.759 50.934 350.631 50.678C350.507 50.418 350.445 50.098 350.445 49.718C350.445 49.162 350.585 48.696 350.865 48.32C351.149 47.94 351.529 47.656 352.005 47.468C352.485 47.28 353.017 47.188 353.601 47.192C354.193 47.196 354.721 47.298 355.185 47.498C355.649 47.694 356.037 47.98 356.349 48.356C356.661 48.732 356.881 49.186 357.009 49.718L355.455 49.988C355.391 49.684 355.267 49.426 355.083 49.214C354.903 48.998 354.681 48.834 354.417 48.722C354.157 48.61 353.879 48.55 353.583 48.542C353.295 48.538 353.027 48.582 352.779 48.674C352.535 48.762 352.337 48.89 352.185 49.058C352.037 49.226 351.963 49.422 351.963 49.646C351.963 49.858 352.027 50.032 352.155 50.168C352.283 50.3 352.441 50.406 352.629 50.486C352.821 50.562 353.015 50.626 353.211 50.678L354.759 51.11C354.971 51.166 355.209 51.242 355.473 51.338C355.737 51.434 355.991 51.568 356.235 51.74C356.479 51.912 356.679 52.138 356.835 52.418C356.995 52.698 357.075 53.054 357.075 53.486C357.075 53.934 356.981 54.328 356.793 54.668C356.609 55.004 356.359 55.284 356.043 55.508C355.727 55.732 355.365 55.9 354.957 56.012C354.553 56.124 354.129 56.18 353.685 56.18Z" fill="white"/>
<path opacity="0.2" d="M340.11 253C348.333 253 355.076 246.318 354.271 238.134C352.519 220.299 347.621 202.874 339.768 186.679C331.915 170.484 321.266 155.849 308.348 143.429C302.42 137.729 292.998 138.885 287.905 145.342C282.813 151.799 283.996 161.104 289.786 166.943C299.241 176.478 307.084 187.53 312.972 199.673C318.861 211.816 322.682 224.819 324.314 238.146C325.313 246.309 331.886 253 340.11 253Z" fill="#242424"/>
<path opacity="0.5" d="M274.334 135.908C278.613 128.885 276.414 119.65 269.006 116.079C248.102 106.002 225.104 100.816 201.767 101.005C178.43 101.194 155.519 106.753 134.781 117.168C127.432 120.859 125.383 130.128 129.775 137.081C134.167 144.033 143.334 146.017 150.769 142.503C166.743 134.952 184.222 130.929 202.008 130.784C219.795 130.64 237.336 134.379 253.431 141.67C260.922 145.063 270.056 142.931 274.334 135.908Z" fill="#242424"/>
<path d="M115.798 147.194C110.568 140.848 101.123 139.895 95.3192 145.721C82.9136 158.173 72.7344 172.71 65.2677 188.705C57.8009 204.701 53.1936 221.839 51.6146 239.345C50.8758 247.535 57.6712 254.163 65.8945 254.098C74.1179 254.032 80.6371 247.288 81.5712 239.118C83.065 226.051 86.662 213.278 92.2526 201.302C97.8432 189.326 105.325 178.366 114.382 168.83C120.046 162.868 121.028 153.54 115.798 147.194Z" fill="#242424"/>
<defs>
<linearGradient id="paint0_linear_1_273" x1="267.962" y1="35.7182" x2="271.88" y2="73.6516" gradientUnits="userSpaceOnUse">
<stop stop-color="#252525"/>
<stop offset="1" stop-color="#101010"/>
</linearGradient>
<linearGradient id="paint1_linear_1_273" x1="263.929" y1="35" x2="266.038" y2="70.4478" gradientUnits="userSpaceOnUse">
<stop stop-color="#3E3E3E"/>
<stop offset="1" stop-color="#3E3E3E" stop-opacity="0"/>
</linearGradient>
</defs>
</svg>
