<svg width="366" height="297" viewBox="0 0 366 297" fill="none" xmlns="http://www.w3.org/2000/svg">
<rect width="366" height="297" rx="20" fill="url(#paint0_linear_1_327)"/>
<rect x="0.5" y="0.5" width="365" height="296" rx="19.5" stroke="#3E3E3E" stroke-opacity="0.15"/>
<path d="M31.5852 134V120.909H39.4858V122.315H33.1705V126.739H39.0767V128.145H33.1705V132.594H39.5881V134H31.5852ZM42.1385 134V124.182H43.5959V125.716H43.7237C43.9283 125.192 44.2585 124.785 44.7145 124.495C45.1705 124.201 45.718 124.054 46.3572 124.054C47.005 124.054 47.544 124.201 47.9744 124.495C48.4091 124.785 48.7479 125.192 48.9908 125.716H49.093C49.3445 125.209 49.7216 124.806 50.2244 124.508C50.7273 124.205 51.3303 124.054 52.0334 124.054C52.9112 124.054 53.6293 124.329 54.1875 124.879C54.7457 125.424 55.0249 126.274 55.0249 127.429V134H53.5163V127.429C53.5163 126.705 53.3182 126.187 52.9219 125.876C52.5256 125.565 52.0589 125.409 51.522 125.409C50.8317 125.409 50.2969 125.618 49.9176 126.036C49.5384 126.449 49.3487 126.973 49.3487 127.608V134H47.8146V127.276C47.8146 126.717 47.6335 126.268 47.2713 125.927C46.9091 125.582 46.4425 125.409 45.8714 125.409C45.4794 125.409 45.1129 125.513 44.772 125.722C44.4354 125.931 44.1626 126.221 43.9538 126.592C43.7493 126.958 43.647 127.382 43.647 127.864V134H42.1385ZM57.783 137.682V124.182H59.2404V125.741H59.4194C59.5302 125.571 59.6836 125.354 59.8796 125.089C60.0799 124.821 60.3654 124.582 60.7362 124.374C61.1112 124.161 61.6183 124.054 62.2575 124.054C63.0842 124.054 63.8129 124.261 64.4435 124.674C65.0742 125.087 65.5664 125.673 65.9201 126.432C66.2738 127.19 66.4506 128.085 66.4506 129.116C66.4506 130.156 66.2738 131.058 65.9201 131.82C65.5664 132.579 65.0763 133.167 64.4499 133.585C63.8235 133.998 63.1012 134.205 62.283 134.205C61.6523 134.205 61.1474 134.1 60.7681 133.891C60.3888 133.678 60.0969 133.437 59.8924 133.169C59.6879 132.896 59.5302 132.67 59.4194 132.491H59.2915V137.682H57.783ZM59.266 129.091C59.266 129.832 59.3746 130.487 59.592 131.053C59.8093 131.616 60.1268 132.057 60.5444 132.376C60.962 132.692 61.4734 132.849 62.0785 132.849C62.7092 132.849 63.2354 132.683 63.6573 132.351C64.0835 132.014 64.4031 131.562 64.6161 130.996C64.8335 130.425 64.9421 129.79 64.9421 129.091C64.9421 128.401 64.8356 127.778 64.6225 127.224C64.4137 126.666 64.0962 126.225 63.6701 125.901C63.2482 125.573 62.7177 125.409 62.0785 125.409C61.4648 125.409 60.9492 125.565 60.5316 125.876C60.114 126.183 59.7987 126.613 59.5856 127.167C59.3725 127.717 59.266 128.358 59.266 129.091ZM70.2603 120.909V134H68.7518V120.909H70.2603ZM77.0119 134.205C76.1255 134.205 75.3478 133.994 74.6788 133.572C74.014 133.15 73.4941 132.56 73.1191 131.801C72.7484 131.043 72.563 130.156 72.563 129.142C72.563 128.119 72.7484 127.227 73.1191 126.464C73.4941 125.701 74.014 125.109 74.6788 124.687C75.3478 124.265 76.1255 124.054 77.0119 124.054C77.8983 124.054 78.6738 124.265 79.3386 124.687C80.0076 125.109 80.5275 125.701 80.8983 126.464C81.2733 127.227 81.4608 128.119 81.4608 129.142C81.4608 130.156 81.2733 131.043 80.8983 131.801C80.5275 132.56 80.0076 133.15 79.3386 133.572C78.6738 133.994 77.8983 134.205 77.0119 134.205ZM77.0119 132.849C77.6852 132.849 78.2392 132.677 78.6738 132.332C79.1085 131.987 79.4302 131.533 79.639 130.97C79.8478 130.408 79.9522 129.798 79.9522 129.142C79.9522 128.486 79.8478 127.874 79.639 127.308C79.4302 126.741 79.1085 126.283 78.6738 125.933C78.2392 125.584 77.6852 125.409 77.0119 125.409C76.3386 125.409 75.7846 125.584 75.35 125.933C74.9153 126.283 74.5936 126.741 74.3848 127.308C74.176 127.874 74.0716 128.486 74.0716 129.142C74.0716 129.798 74.176 130.408 74.3848 130.97C74.5936 131.533 74.9153 131.987 75.35 132.332C75.7846 132.677 76.3386 132.849 77.0119 132.849ZM84.3835 137.682C84.1278 137.682 83.8999 137.661 83.6996 137.618C83.4993 137.58 83.3608 137.541 83.2841 137.503L83.6676 136.173C84.0341 136.267 84.358 136.301 84.6392 136.276C84.9205 136.25 85.1697 136.124 85.3871 135.898C85.6087 135.677 85.8111 135.317 85.9943 134.818L86.2756 134.051L82.6449 124.182H84.2812L86.9915 132.006H87.0938L89.804 124.182H91.4403L87.2727 135.432C87.0852 135.939 86.853 136.359 86.576 136.691C86.299 137.028 85.9773 137.277 85.6108 137.439C85.2486 137.601 84.8395 137.682 84.3835 137.682ZM97.1964 134.205C96.2504 134.205 95.4343 133.996 94.7482 133.578C94.0664 133.156 93.5401 132.568 93.1694 131.814C92.8029 131.055 92.6197 130.173 92.6197 129.168C92.6197 128.162 92.8029 127.276 93.1694 126.509C93.5401 125.737 94.0558 125.136 94.7163 124.706C95.381 124.271 96.1566 124.054 97.043 124.054C97.5543 124.054 98.0593 124.139 98.5579 124.31C99.0565 124.48 99.5103 124.757 99.9194 125.141C100.328 125.52 100.654 126.023 100.897 126.649C101.14 127.276 101.262 128.047 101.262 128.963V129.602H93.6935V128.298H99.7276C99.7276 127.744 99.6168 127.25 99.3952 126.815C99.1779 126.381 98.8668 126.038 98.462 125.786C98.0614 125.535 97.5884 125.409 97.043 125.409C96.4421 125.409 95.9222 125.558 95.4833 125.857C95.0487 126.151 94.7141 126.534 94.4798 127.007C94.2454 127.48 94.1282 127.987 94.1282 128.528V129.398C94.1282 130.139 94.256 130.768 94.5117 131.283C94.7717 131.795 95.1317 132.185 95.592 132.453C96.0522 132.717 96.587 132.849 97.1964 132.849C97.5927 132.849 97.9506 132.794 98.2702 132.683C98.5941 132.568 98.8732 132.398 99.1076 132.172C99.342 131.942 99.5231 131.656 99.6509 131.315L101.108 131.724C100.955 132.219 100.697 132.653 100.335 133.028C99.9727 133.399 99.5252 133.689 98.9925 133.898C98.4599 134.102 97.8612 134.205 97.1964 134.205ZM107.673 134.205C106.727 134.205 105.911 133.996 105.225 133.578C104.543 133.156 104.017 132.568 103.646 131.814C103.279 131.055 103.096 130.173 103.096 129.168C103.096 128.162 103.279 127.276 103.646 126.509C104.017 125.737 104.532 125.136 105.193 124.706C105.858 124.271 106.633 124.054 107.52 124.054C108.031 124.054 108.536 124.139 109.034 124.31C109.533 124.48 109.987 124.757 110.396 125.141C110.805 125.52 111.131 126.023 111.374 126.649C111.617 127.276 111.738 128.047 111.738 128.963V129.602H104.17V128.298H110.204C110.204 127.744 110.093 127.25 109.872 126.815C109.654 126.381 109.343 126.038 108.939 125.786C108.538 125.535 108.065 125.409 107.52 125.409C106.919 125.409 106.399 125.558 105.96 125.857C105.525 126.151 105.191 126.534 104.956 127.007C104.722 127.48 104.605 127.987 104.605 128.528V129.398C104.605 130.139 104.733 130.768 104.988 131.283C105.248 131.795 105.608 132.185 106.069 132.453C106.529 132.717 107.064 132.849 107.673 132.849C108.069 132.849 108.427 132.794 108.747 132.683C109.071 132.568 109.35 132.398 109.584 132.172C109.819 131.942 110 131.656 110.127 131.315L111.585 131.724C111.431 132.219 111.174 132.653 110.811 133.028C110.449 133.399 110.002 133.689 109.469 133.898C108.936 134.102 108.338 134.205 107.673 134.205ZM120.988 126.381L119.632 126.764C119.547 126.538 119.422 126.319 119.255 126.106C119.093 125.888 118.872 125.71 118.591 125.569C118.309 125.428 117.949 125.358 117.51 125.358C116.909 125.358 116.409 125.496 116.008 125.773C115.612 126.046 115.414 126.393 115.414 126.815C115.414 127.19 115.55 127.487 115.823 127.704C116.096 127.921 116.522 128.102 117.101 128.247L118.559 128.605C119.436 128.818 120.091 129.144 120.521 129.583C120.951 130.018 121.167 130.578 121.167 131.264C121.167 131.827 121.005 132.33 120.681 132.773C120.361 133.216 119.914 133.565 119.338 133.821C118.763 134.077 118.094 134.205 117.331 134.205C116.33 134.205 115.501 133.987 114.845 133.553C114.189 133.118 113.773 132.483 113.598 131.648L115.03 131.29C115.167 131.818 115.424 132.214 115.804 132.479C116.187 132.743 116.688 132.875 117.306 132.875C118.009 132.875 118.567 132.726 118.98 132.428C119.398 132.125 119.607 131.763 119.607 131.341C119.607 131 119.488 130.714 119.249 130.484C119.01 130.25 118.644 130.075 118.15 129.96L116.513 129.577C115.614 129.364 114.953 129.033 114.532 128.586C114.114 128.134 113.905 127.57 113.905 126.892C113.905 126.338 114.061 125.848 114.372 125.422C114.687 124.996 115.115 124.661 115.657 124.418C116.202 124.175 116.82 124.054 117.51 124.054C118.482 124.054 119.245 124.267 119.799 124.693C120.357 125.119 120.753 125.682 120.988 126.381Z" fill="#242424"/>
<path d="M34.8423 145.818V156H33.3011V147.359H33.2415L30.8054 148.95V147.479L33.3459 145.818H34.8423ZM37.5966 156V154.886L41.0419 151.317C41.4098 150.929 41.7131 150.589 41.9517 150.298C42.1937 150.003 42.3743 149.723 42.4936 149.457C42.6129 149.192 42.6726 148.911 42.6726 148.612C42.6726 148.274 42.593 147.982 42.4339 147.737C42.2749 147.489 42.0578 147.298 41.7827 147.165C41.5076 147.03 41.1977 146.962 40.853 146.962C40.4884 146.962 40.1702 147.036 39.8984 147.185C39.6267 147.335 39.4179 147.545 39.272 147.817C39.1262 148.089 39.0533 148.407 39.0533 148.771H37.5866C37.5866 148.152 37.7292 147.61 38.0142 147.146C38.2992 146.682 38.6903 146.322 39.1875 146.067C39.6847 145.808 40.2498 145.679 40.8828 145.679C41.5225 145.679 42.0859 145.807 42.5732 146.062C43.0637 146.314 43.4465 146.658 43.7216 147.096C43.9967 147.53 44.1342 148.021 44.1342 148.567C44.1342 148.945 44.063 149.315 43.9205 149.676C43.7813 150.037 43.5376 150.44 43.1896 150.884C42.8416 151.325 42.3577 151.86 41.7379 152.49L39.7145 154.608V154.683H44.2983V156H37.5966ZM49.7273 156.169C48.9418 156.166 48.2706 155.959 47.7138 155.548C47.157 155.137 46.7311 154.538 46.4361 153.753C46.1411 152.967 45.9936 152.021 45.9936 150.914C45.9936 149.81 46.1411 148.867 46.4361 148.085C46.7344 147.303 47.1619 146.706 47.7188 146.295C48.2789 145.884 48.9484 145.679 49.7273 145.679C50.5062 145.679 51.174 145.886 51.7308 146.3C52.2876 146.711 52.7135 147.308 53.0085 148.09C53.3068 148.869 53.456 149.81 53.456 150.914C53.456 152.024 53.3085 152.972 53.0135 153.758C52.7185 154.54 52.2926 155.138 51.7358 155.553C51.179 155.964 50.5095 156.169 49.7273 156.169ZM49.7273 154.842C50.4167 154.842 50.9553 154.505 51.343 153.832C51.7341 153.16 51.9297 152.187 51.9297 150.914C51.9297 150.069 51.8402 149.355 51.6612 148.771C51.4856 148.185 51.232 147.741 50.9006 147.439C50.5724 147.134 50.1813 146.982 49.7273 146.982C49.0412 146.982 48.5026 147.32 48.1115 147.996C47.7204 148.672 47.5232 149.645 47.5199 150.914C47.5199 151.763 47.6077 152.48 47.7834 153.067C47.9624 153.65 48.2159 154.093 48.544 154.394C48.8722 154.692 49.2666 154.842 49.7273 154.842ZM58.7644 156.169C57.9789 156.166 57.3077 155.959 56.7509 155.548C56.1941 155.137 55.7682 154.538 55.4732 153.753C55.1782 152.967 55.0307 152.021 55.0307 150.914C55.0307 149.81 55.1782 148.867 55.4732 148.085C55.7715 147.303 56.199 146.706 56.7559 146.295C57.316 145.884 57.9855 145.679 58.7644 145.679C59.5433 145.679 60.2111 145.886 60.7679 146.3C61.3248 146.711 61.7507 147.308 62.0456 148.09C62.3439 148.869 62.4931 149.81 62.4931 150.914C62.4931 152.024 62.3456 152.972 62.0506 153.758C61.7556 154.54 61.3297 155.138 60.7729 155.553C60.2161 155.964 59.5466 156.169 58.7644 156.169ZM58.7644 154.842C59.4538 154.842 59.9924 154.505 60.3801 153.832C60.7712 153.16 60.9668 152.187 60.9668 150.914C60.9668 150.069 60.8773 149.355 60.6983 148.771C60.5227 148.185 60.2691 147.741 59.9377 147.439C59.6096 147.134 59.2185 146.982 58.7644 146.982C58.0783 146.982 57.5397 147.32 57.1486 147.996C56.7575 148.672 56.5603 149.645 56.557 150.914C56.557 151.763 56.6448 152.48 56.8205 153.067C56.9995 153.65 57.253 154.093 57.5811 154.394C57.9093 154.692 58.3037 154.842 58.7644 154.842ZM67.2695 154.29V147.568H68.6069V154.29H67.2695ZM64.5799 151.595V150.263H71.3015V151.595H64.5799Z" fill="#868898"/>
<path d="M31.5852 217V203.909H36.0085C37.0355 203.909 37.875 204.094 38.527 204.465C39.1832 204.832 39.669 205.328 39.9844 205.955C40.2997 206.581 40.4574 207.28 40.4574 208.051C40.4574 208.822 40.2997 209.523 39.9844 210.154C39.6733 210.785 39.1918 211.288 38.5398 211.663C37.8878 212.033 37.0526 212.219 36.0341 212.219H32.8636V210.812H35.983C36.6861 210.812 37.2507 210.691 37.6768 210.448C38.103 210.205 38.4119 209.877 38.6037 209.464C38.7997 209.046 38.8977 208.575 38.8977 208.051C38.8977 207.527 38.7997 207.058 38.6037 206.645C38.4119 206.232 38.1009 205.908 37.6705 205.673C37.2401 205.435 36.669 205.315 35.9574 205.315H33.1705V217H31.5852ZM42.8065 217V207.182H44.2638V208.665H44.3661C44.5451 208.179 44.869 207.785 45.3377 207.482C45.8065 207.18 46.3349 207.028 46.9229 207.028C47.0337 207.028 47.1722 207.031 47.3384 207.035C47.5046 207.039 47.6303 207.045 47.7156 207.054V208.588C47.6644 208.575 47.5472 208.556 47.364 208.531C47.185 208.501 46.9954 208.486 46.7951 208.486C46.3178 208.486 45.8917 208.586 45.5167 208.786C45.146 208.982 44.8519 209.255 44.6346 209.604C44.4215 209.95 44.315 210.344 44.315 210.787V217H42.8065ZM53.1935 217.205C52.3072 217.205 51.5295 216.994 50.8604 216.572C50.1957 216.15 49.6758 215.56 49.3008 214.801C48.93 214.043 48.7447 213.156 48.7447 212.142C48.7447 211.119 48.93 210.227 49.3008 209.464C49.6758 208.701 50.1957 208.109 50.8604 207.687C51.5295 207.265 52.3072 207.054 53.1935 207.054C54.0799 207.054 54.8555 207.265 55.5202 207.687C56.1893 208.109 56.7092 208.701 57.0799 209.464C57.4549 210.227 57.6424 211.119 57.6424 212.142C57.6424 213.156 57.4549 214.043 57.0799 214.801C56.7092 215.56 56.1893 216.15 55.5202 216.572C54.8555 216.994 54.0799 217.205 53.1935 217.205ZM53.1935 215.849C53.8668 215.849 54.4208 215.677 54.8555 215.332C55.2901 214.987 55.6119 214.533 55.8207 213.97C56.0295 213.408 56.1339 212.798 56.1339 212.142C56.1339 211.486 56.0295 210.874 55.8207 210.308C55.6119 209.741 55.2901 209.283 54.8555 208.933C54.4208 208.584 53.8668 208.409 53.1935 208.409C52.5202 208.409 51.9663 208.584 51.5316 208.933C51.0969 209.283 50.7752 209.741 50.5664 210.308C50.3576 210.874 50.2532 211.486 50.2532 212.142C50.2532 212.798 50.3576 213.408 50.5664 213.97C50.7752 214.533 51.0969 214.987 51.5316 215.332C51.9663 215.677 52.5202 215.849 53.1935 215.849ZM63.6525 217.205C62.8343 217.205 62.112 216.998 61.4856 216.585C60.8592 216.167 60.3691 215.579 60.0154 214.82C59.6618 214.058 59.4849 213.156 59.4849 212.116C59.4849 211.085 59.6618 210.19 60.0154 209.432C60.3691 208.673 60.8613 208.087 61.492 207.674C62.1227 207.261 62.8514 207.054 63.6781 207.054C64.3173 207.054 64.8223 207.161 65.193 207.374C65.568 207.582 65.8535 207.821 66.0495 208.089C66.2498 208.354 66.4054 208.571 66.5162 208.741H66.644V203.909H68.1525V217H66.6951V215.491H66.5162C66.4054 215.67 66.2477 215.896 66.0431 216.169C65.8386 216.437 65.5467 216.678 65.1674 216.891C64.7882 217.1 64.2832 217.205 63.6525 217.205ZM63.8571 215.849C64.4622 215.849 64.9735 215.692 65.3912 215.376C65.8088 215.057 66.1262 214.616 66.3436 214.053C66.5609 213.487 66.6696 212.832 66.6696 212.091C66.6696 211.358 66.563 210.717 66.35 210.167C66.1369 209.613 65.8216 209.183 65.4039 208.876C64.9863 208.565 64.4707 208.409 63.8571 208.409C63.2179 208.409 62.6852 208.573 62.2591 208.901C61.8372 209.225 61.5197 209.666 61.3066 210.224C61.0978 210.778 60.9934 211.401 60.9934 212.091C60.9934 212.79 61.1 213.425 61.313 213.996C61.5304 214.562 61.85 215.014 62.2718 215.351C62.698 215.683 63.2264 215.849 63.8571 215.849ZM77.3123 212.986V207.182H78.8208V217H77.3123V215.338H77.2101C76.9799 215.837 76.622 216.261 76.1362 216.61C75.6504 216.955 75.0368 217.128 74.2953 217.128C73.6816 217.128 73.1362 216.994 72.6589 216.725C72.1816 216.452 71.8066 216.043 71.5339 215.498C71.2612 214.948 71.1248 214.256 71.1248 213.42V207.182H72.6333V213.318C72.6333 214.034 72.8336 214.605 73.2342 215.031C73.639 215.457 74.1547 215.67 74.7811 215.67C75.1561 215.67 75.5375 215.575 75.9252 215.383C76.3173 215.191 76.6454 214.897 76.9096 214.501C77.1781 214.104 77.3123 213.599 77.3123 212.986ZM85.5724 217.205C84.652 217.205 83.8594 216.987 83.1946 216.553C82.5298 216.118 82.0185 215.519 81.6605 214.756C81.3026 213.994 81.1236 213.122 81.1236 212.142C81.1236 211.145 81.3068 210.265 81.6733 209.502C82.044 208.735 82.5597 208.136 83.2202 207.706C83.8849 207.271 84.6605 207.054 85.5469 207.054C86.2372 207.054 86.8594 207.182 87.4134 207.438C87.9673 207.693 88.4212 208.051 88.7749 208.511C89.1286 208.972 89.348 209.509 89.4332 210.122H87.9247C87.8097 209.675 87.554 209.278 87.1577 208.933C86.7656 208.584 86.2372 208.409 85.5724 208.409C84.9844 208.409 84.4688 208.562 84.0256 208.869C83.5866 209.172 83.2436 209.6 82.9964 210.154C82.7536 210.704 82.6321 211.349 82.6321 212.091C82.6321 212.849 82.7514 213.51 82.9901 214.072C83.233 214.635 83.5739 215.072 84.0128 215.383C84.456 215.694 84.9759 215.849 85.5724 215.849C85.9645 215.849 86.3203 215.781 86.6399 215.645C86.9595 215.509 87.2301 215.312 87.4517 215.057C87.6733 214.801 87.831 214.494 87.9247 214.136H89.4332C89.348 214.716 89.1371 215.238 88.8004 215.702C88.468 216.163 88.027 216.529 87.4773 216.802C86.9318 217.07 86.2969 217.205 85.5724 217.205ZM95.9084 207.182V208.46H90.8203V207.182H95.9084ZM92.3033 204.83H93.8118V214.188C93.8118 214.614 93.8736 214.933 93.9972 215.146C94.125 215.355 94.2869 215.496 94.483 215.568C94.6832 215.636 94.8942 215.67 95.1158 215.67C95.282 215.67 95.4183 215.662 95.5249 215.645C95.6314 215.624 95.7166 215.607 95.7805 215.594L96.0874 216.949C95.9851 216.987 95.8423 217.026 95.6591 217.064C95.4759 217.107 95.2436 217.128 94.9624 217.128C94.5362 217.128 94.1186 217.036 93.7095 216.853C93.3047 216.67 92.968 216.391 92.6996 216.016C92.4354 215.641 92.3033 215.168 92.3033 214.597V204.83ZM98.1776 217V207.182H99.6861V217H98.1776ZM98.9446 205.545C98.6506 205.545 98.397 205.445 98.1839 205.245C97.9751 205.045 97.8707 204.804 97.8707 204.523C97.8707 204.241 97.9751 204.001 98.1839 203.8C98.397 203.6 98.6506 203.5 98.9446 203.5C99.2386 203.5 99.4901 203.6 99.6989 203.8C99.9119 204.001 100.018 204.241 100.018 204.523C100.018 204.804 99.9119 205.045 99.6989 205.245C99.4901 205.445 99.2386 205.545 98.9446 205.545ZM110.477 207.182L106.847 217H105.313L101.682 207.182H103.318L106.029 215.006H106.131L108.841 207.182H110.477ZM112.469 217V207.182H113.977V217H112.469ZM113.236 205.545C112.942 205.545 112.688 205.445 112.475 205.245C112.266 205.045 112.162 204.804 112.162 204.523C112.162 204.241 112.266 204.001 112.475 203.8C112.688 203.6 112.942 203.5 113.236 203.5C113.53 203.5 113.781 203.6 113.99 203.8C114.203 204.001 114.309 204.241 114.309 204.523C114.309 204.804 114.203 205.045 113.99 205.245C113.781 205.445 113.53 205.545 113.236 205.545ZM121.01 207.182V208.46H115.922V207.182H121.01ZM117.405 204.83H118.913V214.188C118.913 214.614 118.975 214.933 119.099 215.146C119.227 215.355 119.388 215.496 119.585 215.568C119.785 215.636 119.996 215.67 120.217 215.67C120.384 215.67 120.52 215.662 120.626 215.645C120.733 215.624 120.818 215.607 120.882 215.594L121.189 216.949C121.087 216.987 120.944 217.026 120.761 217.064C120.577 217.107 120.345 217.128 120.064 217.128C119.638 217.128 119.22 217.036 118.811 216.853C118.406 216.67 118.07 216.391 117.801 216.016C117.537 215.641 117.405 215.168 117.405 214.597V204.83ZM124.251 220.682C123.995 220.682 123.767 220.661 123.567 220.618C123.366 220.58 123.228 220.541 123.151 220.503L123.535 219.173C123.901 219.267 124.225 219.301 124.506 219.276C124.788 219.25 125.037 219.124 125.254 218.898C125.476 218.677 125.678 218.317 125.862 217.818L126.143 217.051L122.512 207.182H124.148L126.859 215.006H126.961L129.671 207.182H131.308L127.14 218.432C126.952 218.939 126.72 219.359 126.443 219.691C126.166 220.028 125.844 220.277 125.478 220.439C125.116 220.601 124.707 220.682 124.251 220.682ZM138.566 217V203.909H140.074V208.741H140.202C140.313 208.571 140.466 208.354 140.662 208.089C140.863 207.821 141.148 207.582 141.519 207.374C141.894 207.161 142.401 207.054 143.04 207.054C143.867 207.054 144.596 207.261 145.226 207.674C145.857 208.087 146.349 208.673 146.703 209.432C147.056 210.19 147.233 211.085 147.233 212.116C147.233 213.156 147.056 214.058 146.703 214.82C146.349 215.579 145.859 216.167 145.233 216.585C144.606 216.998 143.884 217.205 143.066 217.205C142.435 217.205 141.93 217.1 141.551 216.891C141.172 216.678 140.88 216.437 140.675 216.169C140.471 215.896 140.313 215.67 140.202 215.491H140.023V217H138.566ZM140.049 212.091C140.049 212.832 140.157 213.487 140.375 214.053C140.592 214.616 140.909 215.057 141.327 215.376C141.745 215.692 142.256 215.849 142.861 215.849C143.492 215.849 144.018 215.683 144.44 215.351C144.866 215.014 145.186 214.562 145.399 213.996C145.616 213.425 145.725 212.79 145.725 212.091C145.725 211.401 145.618 210.778 145.405 210.224C145.196 209.666 144.879 209.225 144.453 208.901C144.031 208.573 143.5 208.409 142.861 208.409C142.248 208.409 141.732 208.565 141.314 208.876C140.897 209.183 140.581 209.613 140.368 210.167C140.155 210.717 140.049 211.358 140.049 212.091ZM150.161 220.682C149.905 220.682 149.677 220.661 149.477 220.618C149.277 220.58 149.138 220.541 149.061 220.503L149.445 219.173C149.811 219.267 150.135 219.301 150.417 219.276C150.698 219.25 150.947 219.124 151.164 218.898C151.386 218.677 151.588 218.317 151.772 217.818L152.053 217.051L148.422 207.182H150.059L152.769 215.006H152.871L155.581 207.182H157.218L153.05 218.432C152.863 218.939 152.63 219.359 152.353 219.691C152.076 220.028 151.755 220.277 151.388 220.439C151.026 220.601 150.617 220.682 150.161 220.682ZM171.226 209.381L169.871 209.764C169.786 209.538 169.66 209.319 169.494 209.106C169.332 208.888 169.11 208.71 168.829 208.569C168.548 208.428 168.188 208.358 167.749 208.358C167.148 208.358 166.647 208.496 166.246 208.773C165.85 209.046 165.652 209.393 165.652 209.815C165.652 210.19 165.788 210.487 166.061 210.704C166.334 210.921 166.76 211.102 167.339 211.247L168.797 211.605C169.675 211.818 170.329 212.144 170.759 212.583C171.19 213.018 171.405 213.578 171.405 214.264C171.405 214.827 171.243 215.33 170.919 215.773C170.599 216.216 170.152 216.565 169.577 216.821C169.001 217.077 168.332 217.205 167.57 217.205C166.568 217.205 165.739 216.987 165.083 216.553C164.427 216.118 164.011 215.483 163.837 214.648L165.268 214.29C165.405 214.818 165.663 215.214 166.042 215.479C166.425 215.743 166.926 215.875 167.544 215.875C168.247 215.875 168.805 215.726 169.219 215.428C169.636 215.125 169.845 214.763 169.845 214.341C169.845 214 169.726 213.714 169.487 213.484C169.249 213.25 168.882 213.075 168.388 212.96L166.751 212.577C165.852 212.364 165.192 212.033 164.77 211.586C164.352 211.134 164.143 210.57 164.143 209.892C164.143 209.338 164.299 208.848 164.61 208.422C164.925 207.996 165.354 207.661 165.895 207.418C166.44 207.175 167.058 207.054 167.749 207.054C168.72 207.054 169.483 207.267 170.037 207.693C170.595 208.119 170.991 208.682 171.226 209.381ZM180.374 220.682V215.491H180.247C180.136 215.67 179.978 215.896 179.774 216.169C179.569 216.437 179.277 216.678 178.898 216.891C178.519 217.1 178.014 217.205 177.383 217.205C176.565 217.205 175.843 216.998 175.216 216.585C174.59 216.167 174.1 215.579 173.746 214.82C173.392 214.058 173.215 213.156 173.215 212.116C173.215 211.085 173.392 210.19 173.746 209.432C174.1 208.673 174.592 208.087 175.222 207.674C175.853 207.261 176.582 207.054 177.409 207.054C178.048 207.054 178.553 207.161 178.923 207.374C179.298 207.582 179.584 207.821 179.78 208.089C179.98 208.354 180.136 208.571 180.247 208.741H180.426V207.182H181.883V220.682H180.374ZM177.588 215.849C178.193 215.849 178.704 215.692 179.122 215.376C179.539 215.057 179.857 214.616 180.074 214.053C180.291 213.487 180.4 212.832 180.4 212.091C180.4 211.358 180.294 210.717 180.08 210.167C179.867 209.613 179.552 209.183 179.134 208.876C178.717 208.565 178.201 208.409 177.588 208.409C176.948 208.409 176.416 208.573 175.99 208.901C175.568 209.225 175.25 209.666 175.037 210.224C174.828 210.778 174.724 211.401 174.724 212.091C174.724 212.79 174.83 213.425 175.044 213.996C175.261 214.562 175.58 215.014 176.002 215.351C176.428 215.683 176.957 215.849 177.588 215.849ZM190.832 212.986V207.182H192.34V217H190.832V215.338H190.73C190.499 215.837 190.142 216.261 189.656 216.61C189.17 216.955 188.556 217.128 187.815 217.128C187.201 217.128 186.656 216.994 186.178 216.725C185.701 216.452 185.326 216.043 185.053 215.498C184.781 214.948 184.644 214.256 184.644 213.42V207.182H186.153V213.318C186.153 214.034 186.353 214.605 186.754 215.031C187.159 215.457 187.674 215.67 188.301 215.67C188.676 215.67 189.057 215.575 189.445 215.383C189.837 215.191 190.165 214.897 190.429 214.501C190.698 214.104 190.832 213.599 190.832 212.986ZM197.993 217.23C197.37 217.23 196.806 217.113 196.299 216.879C195.792 216.64 195.389 216.297 195.091 215.849C194.792 215.398 194.643 214.852 194.643 214.213C194.643 213.651 194.754 213.195 194.975 212.845C195.197 212.491 195.493 212.214 195.864 212.014C196.235 211.814 196.644 211.665 197.091 211.567C197.543 211.464 197.997 211.384 198.453 211.324C199.049 211.247 199.533 211.19 199.904 211.151C200.279 211.109 200.551 211.038 200.722 210.94C200.897 210.842 200.984 210.672 200.984 210.429V210.378C200.984 209.747 200.811 209.257 200.466 208.908C200.125 208.558 199.608 208.384 198.913 208.384C198.193 208.384 197.628 208.541 197.219 208.857C196.81 209.172 196.522 209.509 196.356 209.866L194.924 209.355C195.18 208.759 195.521 208.294 195.947 207.962C196.377 207.625 196.846 207.391 197.353 207.259C197.865 207.122 198.368 207.054 198.862 207.054C199.177 207.054 199.539 207.092 199.949 207.169C200.362 207.241 200.76 207.393 201.144 207.623C201.532 207.853 201.853 208.2 202.109 208.665C202.365 209.129 202.493 209.751 202.493 210.531V217H200.984V215.67H200.907C200.805 215.884 200.635 216.112 200.396 216.354C200.157 216.597 199.84 216.804 199.444 216.974C199.047 217.145 198.564 217.23 197.993 217.23ZM198.223 215.875C198.819 215.875 199.322 215.758 199.731 215.523C200.145 215.289 200.456 214.987 200.664 214.616C200.877 214.245 200.984 213.855 200.984 213.446V212.065C200.92 212.142 200.779 212.212 200.562 212.276C200.349 212.336 200.102 212.389 199.821 212.436C199.544 212.479 199.273 212.517 199.009 212.551C198.749 212.581 198.538 212.607 198.376 212.628C197.984 212.679 197.618 212.762 197.277 212.877C196.94 212.988 196.667 213.156 196.458 213.382C196.254 213.604 196.152 213.906 196.152 214.29C196.152 214.814 196.346 215.21 196.733 215.479C197.125 215.743 197.622 215.875 198.223 215.875ZM205.246 217V207.182H206.703V208.665H206.806C206.985 208.179 207.308 207.785 207.777 207.482C208.246 207.18 208.774 207.028 209.362 207.028C209.473 207.028 209.612 207.031 209.778 207.035C209.944 207.039 210.07 207.045 210.155 207.054V208.588C210.104 208.575 209.987 208.556 209.803 208.531C209.624 208.501 209.435 208.486 209.235 208.486C208.757 208.486 208.331 208.586 207.956 208.786C207.585 208.982 207.291 209.255 207.074 209.604C206.861 209.95 206.754 210.344 206.754 210.787V217H205.246ZM215.761 217.205C214.815 217.205 213.999 216.996 213.313 216.578C212.631 216.156 212.105 215.568 211.734 214.814C211.367 214.055 211.184 213.173 211.184 212.168C211.184 211.162 211.367 210.276 211.734 209.509C212.105 208.737 212.62 208.136 213.281 207.706C213.945 207.271 214.721 207.054 215.607 207.054C216.119 207.054 216.624 207.139 217.122 207.31C217.621 207.48 218.075 207.757 218.484 208.141C218.893 208.52 219.219 209.023 219.462 209.649C219.705 210.276 219.826 211.047 219.826 211.963V212.602H212.258V211.298H218.292C218.292 210.744 218.181 210.25 217.96 209.815C217.742 209.381 217.431 209.038 217.026 208.786C216.626 208.535 216.153 208.409 215.607 208.409C215.007 208.409 214.487 208.558 214.048 208.857C213.613 209.151 213.279 209.534 213.044 210.007C212.81 210.48 212.693 210.987 212.693 211.528V212.398C212.693 213.139 212.82 213.768 213.076 214.283C213.336 214.795 213.696 215.185 214.156 215.453C214.617 215.717 215.151 215.849 215.761 215.849C216.157 215.849 216.515 215.794 216.835 215.683C217.159 215.568 217.438 215.398 217.672 215.172C217.906 214.942 218.088 214.656 218.215 214.315L219.673 214.724C219.519 215.219 219.262 215.653 218.899 216.028C218.537 216.399 218.09 216.689 217.557 216.898C217.024 217.102 216.426 217.205 215.761 217.205ZM226.237 217.205C225.291 217.205 224.475 216.996 223.789 216.578C223.107 216.156 222.581 215.568 222.21 214.814C221.844 214.055 221.661 213.173 221.661 212.168C221.661 211.162 221.844 210.276 222.21 209.509C222.581 208.737 223.097 208.136 223.757 207.706C224.422 207.271 225.198 207.054 226.084 207.054C226.595 207.054 227.1 207.139 227.599 207.31C228.097 207.48 228.551 207.757 228.96 208.141C229.369 208.52 229.695 209.023 229.938 209.649C230.181 210.276 230.303 211.047 230.303 211.963V212.602H222.735V211.298H228.769C228.769 210.744 228.658 210.25 228.436 209.815C228.219 209.381 227.908 209.038 227.503 208.786C227.102 208.535 226.629 208.409 226.084 208.409C225.483 208.409 224.963 208.558 224.524 208.857C224.09 209.151 223.755 209.534 223.521 210.007C223.286 210.48 223.169 210.987 223.169 211.528V212.398C223.169 213.139 223.297 213.768 223.553 214.283C223.813 214.795 224.173 215.185 224.633 215.453C225.093 215.717 225.628 215.849 226.237 215.849C226.634 215.849 226.992 215.794 227.311 215.683C227.635 215.568 227.914 215.398 228.149 215.172C228.383 214.942 228.564 214.656 228.692 214.315L230.149 214.724C229.996 215.219 229.738 215.653 229.376 216.028C229.014 216.399 228.566 216.689 228.034 216.898C227.501 217.102 226.902 217.205 226.237 217.205Z" fill="#242424"/>
<path d="M34.104 265L44.136 242.542H31.026V238.4H49.152V241.858L39.158 265H34.104ZM63.5291 265.456C61.0717 265.456 58.9691 264.886 57.2211 263.746C55.4731 262.581 54.1177 260.972 53.1551 258.92C52.2177 256.843 51.7491 254.436 51.7491 251.7C51.7491 248.989 52.2177 246.595 53.1551 244.518C54.1177 242.441 55.4731 240.832 57.2211 239.692C58.9691 238.527 61.0717 237.944 63.5291 237.944C65.9864 237.944 68.0891 238.527 69.8371 239.692C71.5851 240.832 72.9277 242.441 73.8651 244.518C74.8277 246.595 75.3091 248.989 75.3091 251.7C75.3091 254.436 74.8277 256.843 73.8651 258.92C72.9277 260.972 71.5851 262.581 69.8371 263.746C68.0891 264.886 65.9864 265.456 63.5291 265.456ZM63.5291 261.086C65.5304 261.086 67.1644 260.25 68.4311 258.578C69.6977 256.906 70.3311 254.613 70.3311 251.7C70.3311 248.787 69.6977 246.494 68.4311 244.822C67.1644 243.15 65.5304 242.314 63.5291 242.314C61.5024 242.314 59.8557 243.15 58.5891 244.822C57.3477 246.494 56.7271 248.787 56.7271 251.7C56.7271 254.613 57.3477 256.906 58.5891 258.578C59.8557 260.25 61.5024 261.086 63.5291 261.086ZM85.0736 251.472C83.8576 251.472 82.7556 251.206 81.7676 250.674C80.7796 250.117 79.9942 249.331 79.4116 248.318C78.8289 247.305 78.5376 246.101 78.5376 244.708C78.5376 243.315 78.8289 242.111 79.4116 241.098C79.9942 240.085 80.7796 239.312 81.7676 238.78C82.7556 238.223 83.8702 237.944 85.1116 237.944C86.3276 237.944 87.4169 238.223 88.3796 238.78C89.3676 239.312 90.1529 240.085 90.7356 241.098C91.3182 242.111 91.6096 243.315 91.6096 244.708C91.6096 246.101 91.3182 247.305 90.7356 248.318C90.1529 249.331 89.3676 250.117 88.3796 250.674C87.3916 251.206 86.2896 251.472 85.0736 251.472ZM83.6296 265L98.6396 238.4H103.39L88.3796 265H83.6296ZM85.0736 248.09C85.8082 248.09 86.4416 247.811 86.9736 247.254C87.5056 246.671 87.7716 245.823 87.7716 244.708C87.7716 243.593 87.5056 242.745 86.9736 242.162C86.4669 241.579 85.8336 241.288 85.0736 241.288C84.3136 241.288 83.6676 241.579 83.1356 242.162C82.6289 242.745 82.3756 243.593 82.3756 244.708C82.3756 245.823 82.6289 246.671 83.1356 247.254C83.6676 247.811 84.3136 248.09 85.0736 248.09ZM102.098 265.456C100.882 265.456 99.7796 265.19 98.7916 264.658C97.8036 264.101 97.0182 263.315 96.4356 262.302C95.8529 261.289 95.5616 260.085 95.5616 258.692C95.5616 257.299 95.8529 256.108 96.4356 255.12C97.0182 254.107 97.8036 253.334 98.7916 252.802C99.7796 252.245 100.894 251.966 102.136 251.966C103.352 251.966 104.441 252.245 105.404 252.802C106.392 253.334 107.177 254.107 107.76 255.12C108.342 256.108 108.634 257.299 108.634 258.692C108.634 260.085 108.342 261.289 107.76 262.302C107.177 263.315 106.392 264.101 105.404 264.658C104.441 265.19 103.339 265.456 102.098 265.456ZM102.098 262.074C102.858 262.074 103.491 261.795 103.998 261.238C104.53 260.655 104.796 259.807 104.796 258.692C104.796 257.577 104.53 256.729 103.998 256.146C103.491 255.563 102.858 255.272 102.098 255.272C101.338 255.272 100.692 255.563 100.16 256.146C99.6529 256.729 99.3996 257.577 99.3996 258.692C99.3996 259.807 99.6529 260.655 100.16 261.238C100.692 261.795 101.338 262.074 102.098 262.074Z" fill="#242424"/>
<path d="M193.534 125C193.393 124.57 193.208 124.184 192.978 123.843C192.752 123.498 192.482 123.204 192.166 122.961C191.855 122.718 191.501 122.533 191.105 122.405C190.709 122.277 190.274 122.213 189.801 122.213C189.026 122.213 188.32 122.413 187.685 122.814C187.05 123.214 186.545 123.805 186.17 124.585C185.795 125.364 185.608 126.321 185.608 127.455C185.608 128.588 185.798 129.545 186.177 130.325C186.556 131.104 187.07 131.695 187.717 132.095C188.365 132.496 189.094 132.696 189.903 132.696C190.653 132.696 191.314 132.536 191.885 132.217C192.46 131.893 192.908 131.437 193.227 130.849C193.551 130.256 193.713 129.56 193.713 128.759L194.199 128.861H190.261V127.455H195.247V128.861C195.247 129.939 195.017 130.876 194.557 131.673C194.101 132.47 193.47 133.088 192.665 133.527C191.864 133.962 190.943 134.179 189.903 134.179C188.744 134.179 187.726 133.906 186.848 133.361C185.974 132.815 185.293 132.04 184.803 131.034C184.317 130.028 184.074 128.835 184.074 127.455C184.074 126.419 184.212 125.488 184.489 124.661C184.771 123.83 185.167 123.123 185.678 122.539C186.19 121.955 186.795 121.508 187.494 121.197C188.192 120.886 188.962 120.73 189.801 120.73C190.491 120.73 191.135 120.835 191.732 121.043C192.332 121.248 192.867 121.54 193.336 121.919C193.809 122.294 194.203 122.744 194.518 123.268C194.834 123.788 195.051 124.365 195.17 125H193.534ZM197.758 134V124.182H199.215V125.665H199.317C199.496 125.179 199.82 124.785 200.289 124.482C200.758 124.18 201.286 124.028 201.874 124.028C201.985 124.028 202.123 124.031 202.29 124.035C202.456 124.039 202.581 124.045 202.667 124.054V125.588C202.616 125.575 202.498 125.556 202.315 125.531C202.136 125.501 201.947 125.486 201.746 125.486C201.269 125.486 200.843 125.586 200.468 125.786C200.097 125.982 199.803 126.255 199.586 126.604C199.373 126.95 199.266 127.344 199.266 127.787V134H197.758ZM208.145 134.205C207.258 134.205 206.481 133.994 205.812 133.572C205.147 133.15 204.627 132.56 204.252 131.801C203.881 131.043 203.696 130.156 203.696 129.142C203.696 128.119 203.881 127.227 204.252 126.464C204.627 125.701 205.147 125.109 205.812 124.687C206.481 124.265 207.258 124.054 208.145 124.054C209.031 124.054 209.807 124.265 210.471 124.687C211.14 125.109 211.66 125.701 212.031 126.464C212.406 127.227 212.594 128.119 212.594 129.142C212.594 130.156 212.406 131.043 212.031 131.801C211.66 132.56 211.14 133.15 210.471 133.572C209.807 133.994 209.031 134.205 208.145 134.205ZM208.145 132.849C208.818 132.849 209.372 132.677 209.807 132.332C210.241 131.987 210.563 131.533 210.772 130.97C210.981 130.408 211.085 129.798 211.085 129.142C211.085 128.486 210.981 127.874 210.772 127.308C210.563 126.741 210.241 126.283 209.807 125.933C209.372 125.584 208.818 125.409 208.145 125.409C207.471 125.409 206.917 125.584 206.483 125.933C206.048 126.283 205.726 126.741 205.518 127.308C205.309 127.874 205.204 128.486 205.204 129.142C205.204 129.798 205.309 130.408 205.518 130.97C205.726 131.533 206.048 131.987 206.483 132.332C206.917 132.677 207.471 132.849 208.145 132.849ZM216.787 134L213.795 124.182H215.381L217.503 131.699H217.605L219.702 124.182H221.312L223.383 131.673H223.486L225.608 124.182H227.193L224.202 134H222.719L220.571 126.457H220.417L218.27 134H216.787ZM233.457 124.182V125.46H228.369V124.182H233.457ZM229.852 121.83H231.361V131.188C231.361 131.614 231.422 131.933 231.546 132.146C231.674 132.355 231.836 132.496 232.032 132.568C232.232 132.636 232.443 132.67 232.665 132.67C232.831 132.67 232.967 132.662 233.074 132.645C233.18 132.624 233.265 132.607 233.329 132.594L233.636 133.949C233.534 133.987 233.391 134.026 233.208 134.064C233.025 134.107 232.792 134.128 232.511 134.128C232.085 134.128 231.667 134.036 231.258 133.853C230.854 133.67 230.517 133.391 230.248 133.016C229.984 132.641 229.852 132.168 229.852 131.597V121.83ZM237.446 128.094V134H235.937V120.909H237.446V125.716H237.574C237.804 125.209 238.149 124.806 238.609 124.508C239.074 124.205 239.692 124.054 240.463 124.054C241.132 124.054 241.718 124.188 242.221 124.457C242.724 124.721 243.113 125.128 243.39 125.678C243.672 126.223 243.812 126.918 243.812 127.761V134H242.304V127.864C242.304 127.084 242.101 126.481 241.697 126.055C241.296 125.624 240.74 125.409 240.028 125.409C239.534 125.409 239.091 125.513 238.699 125.722C238.311 125.931 238.004 126.236 237.778 126.636C237.557 127.037 237.446 127.523 237.446 128.094Z" fill="#242424"/>
<path d="M184.119 156V145.818H187.748C188.537 145.818 189.191 145.954 189.712 146.226C190.235 146.498 190.626 146.874 190.885 147.354C191.143 147.832 191.273 148.384 191.273 149.01C191.273 149.633 191.142 150.182 190.88 150.656C190.621 151.126 190.23 151.492 189.707 151.754C189.186 152.016 188.532 152.147 187.743 152.147H184.994V150.825H187.604C188.101 150.825 188.505 150.753 188.817 150.611C189.132 150.468 189.362 150.261 189.508 149.989C189.654 149.718 189.727 149.391 189.727 149.01C189.727 148.625 189.652 148.292 189.503 148.011C189.357 147.729 189.127 147.513 188.812 147.364C188.5 147.212 188.091 147.136 187.584 147.136H185.655V156H184.119ZM189.145 151.406L191.661 156H189.911L187.445 151.406H189.145ZM196.218 156.154C195.466 156.154 194.818 155.993 194.274 155.672C193.734 155.347 193.316 154.891 193.021 154.305C192.73 153.715 192.584 153.024 192.584 152.232C192.584 151.449 192.73 150.76 193.021 150.163C193.316 149.567 193.727 149.101 194.254 148.766C194.785 148.432 195.405 148.264 196.114 148.264C196.545 148.264 196.962 148.335 197.367 148.478C197.771 148.621 198.134 148.844 198.455 149.149C198.777 149.454 199.03 149.85 199.216 150.337C199.402 150.821 199.494 151.41 199.494 152.102V152.629H193.424V151.516H198.038C198.038 151.125 197.958 150.778 197.799 150.477C197.64 150.172 197.416 149.931 197.128 149.756C196.843 149.58 196.508 149.492 196.124 149.492C195.706 149.492 195.342 149.595 195.03 149.8C194.722 150.003 194.483 150.268 194.314 150.596C194.148 150.921 194.066 151.274 194.066 151.655V152.525C194.066 153.035 194.155 153.469 194.334 153.827C194.516 154.185 194.77 154.459 195.095 154.648C195.419 154.833 195.799 154.926 196.233 154.926C196.515 154.926 196.772 154.886 197.004 154.807C197.236 154.724 197.436 154.601 197.605 154.439C197.774 154.277 197.904 154.076 197.993 153.837L199.4 154.091C199.287 154.505 199.085 154.868 198.794 155.18C198.505 155.488 198.142 155.728 197.705 155.901C197.271 156.07 196.775 156.154 196.218 156.154ZM207.458 148.364L204.689 156H203.098L200.324 148.364H201.919L203.853 154.24H203.933L205.862 148.364H207.458ZM208.855 156V148.364H210.341V156H208.855ZM209.605 147.185C209.347 147.185 209.125 147.099 208.939 146.927C208.757 146.751 208.666 146.542 208.666 146.3C208.666 146.055 208.757 145.846 208.939 145.674C209.125 145.498 209.347 145.411 209.605 145.411C209.864 145.411 210.084 145.498 210.267 145.674C210.452 145.846 210.545 146.055 210.545 146.3C210.545 146.542 210.452 146.751 210.267 146.927C210.084 147.099 209.864 147.185 209.605 147.185ZM215.632 156.154C214.88 156.154 214.232 155.993 213.688 155.672C213.148 155.347 212.731 154.891 212.436 154.305C212.144 153.715 211.998 153.024 211.998 152.232C211.998 151.449 212.144 150.76 212.436 150.163C212.731 149.567 213.142 149.101 213.669 148.766C214.199 148.432 214.819 148.264 215.528 148.264C215.959 148.264 216.376 148.335 216.781 148.478C217.185 148.621 217.548 148.844 217.869 149.149C218.191 149.454 218.445 149.85 218.63 150.337C218.816 150.821 218.909 151.41 218.909 152.102V152.629H212.838V151.516H217.452C217.452 151.125 217.372 150.778 217.213 150.477C217.054 150.172 216.83 149.931 216.542 149.756C216.257 149.58 215.922 149.492 215.538 149.492C215.12 149.492 214.756 149.595 214.444 149.8C214.136 150.003 213.897 150.268 213.728 150.596C213.562 150.921 213.48 151.274 213.48 151.655V152.525C213.48 153.035 213.569 153.469 213.748 153.827C213.93 154.185 214.184 154.459 214.509 154.648C214.834 154.833 215.213 154.926 215.647 154.926C215.929 154.926 216.186 154.886 216.418 154.807C216.65 154.724 216.85 154.601 217.019 154.439C217.188 154.277 217.318 154.076 217.407 153.837L218.814 154.091C218.701 154.505 218.499 154.868 218.208 155.18C217.919 155.488 217.556 155.728 217.119 155.901C216.685 156.07 216.189 156.154 215.632 156.154ZM222.2 156L219.953 148.364H221.489L222.985 153.972H223.06L224.561 148.364H226.097L227.589 153.947H227.664L229.15 148.364H230.686L228.444 156H226.928L225.377 150.487H225.262L223.711 156H222.2ZM235.156 156.154C234.403 156.154 233.755 155.993 233.212 155.672C232.672 155.347 232.254 154.891 231.959 154.305C231.667 153.715 231.521 153.024 231.521 152.232C231.521 151.449 231.667 150.76 231.959 150.163C232.254 149.567 232.665 149.101 233.192 148.766C233.722 148.432 234.342 148.264 235.051 148.264C235.482 148.264 235.9 148.335 236.304 148.478C236.709 148.621 237.071 148.844 237.393 149.149C237.714 149.454 237.968 149.85 238.154 150.337C238.339 150.821 238.432 151.41 238.432 152.102V152.629H232.362V151.516H236.975C236.975 151.125 236.896 150.778 236.737 150.477C236.578 150.172 236.354 149.931 236.066 149.756C235.78 149.58 235.446 149.492 235.061 149.492C234.644 149.492 234.279 149.595 233.968 149.8C233.659 150.003 233.421 150.268 233.252 150.596C233.086 150.921 233.003 151.274 233.003 151.655V152.525C233.003 153.035 233.093 153.469 233.271 153.827C233.454 154.185 233.707 154.459 234.032 154.648C234.357 154.833 234.736 154.926 235.171 154.926C235.452 154.926 235.709 154.886 235.941 154.807C236.173 154.724 236.374 154.601 236.543 154.439C236.712 154.277 236.841 154.076 236.931 153.837L238.338 154.091C238.225 154.505 238.023 154.868 237.731 155.18C237.443 155.488 237.08 155.728 236.642 155.901C236.208 156.07 235.713 156.154 235.156 156.154ZM242.94 156.149C242.324 156.149 241.773 155.992 241.289 155.677C240.809 155.359 240.431 154.906 240.156 154.32C239.884 153.73 239.748 153.022 239.748 152.197C239.748 151.371 239.886 150.665 240.161 150.079C240.439 149.492 240.82 149.043 241.304 148.732C241.788 148.42 242.337 148.264 242.95 148.264C243.424 148.264 243.805 148.344 244.093 148.503C244.385 148.659 244.61 148.841 244.77 149.05C244.932 149.259 245.058 149.442 245.147 149.602H245.237V145.818H246.723V156H245.272V154.812H245.147C245.058 154.974 244.929 155.16 244.76 155.369C244.594 155.577 244.365 155.76 244.074 155.915C243.782 156.071 243.404 156.149 242.94 156.149ZM243.268 154.881C243.696 154.881 244.057 154.769 244.352 154.543C244.65 154.315 244.876 153.998 245.028 153.594C245.184 153.189 245.262 152.719 245.262 152.182C245.262 151.652 245.185 151.187 245.033 150.79C244.881 150.392 244.657 150.082 244.362 149.86C244.067 149.638 243.702 149.527 243.268 149.527C242.821 149.527 242.448 149.643 242.15 149.875C241.851 150.107 241.626 150.424 241.473 150.825C241.324 151.226 241.25 151.678 241.25 152.182C241.25 152.692 241.326 153.151 241.478 153.559C241.631 153.967 241.856 154.29 242.154 154.528C242.456 154.764 242.827 154.881 243.268 154.881Z" fill="#868898"/>
<path d="M76.7666 63V42H85.1966C87.3766 42 89.0366 42.51 90.1766 43.53C91.3366 44.53 91.9166 45.82 91.9166 47.4C91.9166 48.72 91.5566 49.78 90.8366 50.58C90.1366 51.36 89.2766 51.89 88.2566 52.17C89.4566 52.41 90.4466 53.01 91.2266 53.97C92.0066 54.91 92.3966 56.01 92.3966 57.27C92.3966 58.93 91.7966 60.3 90.5966 61.38C89.3966 62.46 87.6966 63 85.4966 63H76.7666ZM80.6066 50.82H84.6266C85.7066 50.82 86.5366 50.57 87.1166 50.07C87.6966 49.57 87.9866 48.86 87.9866 47.94C87.9866 47.06 87.6966 46.37 87.1166 45.87C86.5566 45.35 85.7066 45.09 84.5666 45.09H80.6066V50.82ZM80.6066 59.88H84.8966C86.0366 59.88 86.9166 59.62 87.5366 59.1C88.1766 58.56 88.4966 57.81 88.4966 56.85C88.4966 55.87 88.1666 55.1 87.5066 54.54C86.8466 53.98 85.9566 53.7 84.8366 53.7H80.6066V59.88ZM101.182 63.36C99.3223 63.36 97.8823 62.78 96.8623 61.62C95.8623 60.46 95.3623 58.76 95.3623 56.52V48.12H99.1723V56.16C99.1723 57.44 99.4323 58.42 99.9523 59.1C100.472 59.78 101.292 60.12 102.412 60.12C103.472 60.12 104.342 59.74 105.022 58.98C105.722 58.22 106.072 57.16 106.072 55.8V48.12H109.912V63H106.522L106.222 60.48C105.762 61.36 105.092 62.06 104.212 62.58C103.352 63.1 102.342 63.36 101.182 63.36ZM122.674 63.36C121.554 63.36 120.574 63.15 119.734 62.73C118.894 62.31 118.214 61.72 117.694 60.96L117.274 63H113.854V41.4H117.694V50.25C118.174 49.59 118.804 49.01 119.584 48.51C120.384 48.01 121.414 47.76 122.674 47.76C124.074 47.76 125.324 48.1 126.424 48.78C127.524 49.46 128.394 50.39 129.034 51.57C129.674 52.75 129.994 54.09 129.994 55.59C129.994 57.09 129.674 58.43 129.034 59.61C128.394 60.77 127.524 61.69 126.424 62.37C125.324 63.03 124.074 63.36 122.674 63.36ZM121.864 60C123.084 60 124.094 59.59 124.894 58.77C125.694 57.95 126.094 56.89 126.094 55.59C126.094 54.29 125.694 53.22 124.894 52.38C124.094 51.54 123.084 51.12 121.864 51.12C120.624 51.12 119.604 51.54 118.804 52.38C118.024 53.2 117.634 54.26 117.634 55.56C117.634 56.86 118.024 57.93 118.804 58.77C119.604 59.59 120.624 60 121.864 60ZM142.245 63.36C141.125 63.36 140.145 63.15 139.305 62.73C138.465 62.31 137.785 61.72 137.265 60.96L136.845 63H133.425V41.4H137.265V50.25C137.745 49.59 138.375 49.01 139.155 48.51C139.955 48.01 140.985 47.76 142.245 47.76C143.645 47.76 144.895 48.1 145.995 48.78C147.095 49.46 147.965 50.39 148.605 51.57C149.245 52.75 149.565 54.09 149.565 55.59C149.565 57.09 149.245 58.43 148.605 59.61C147.965 60.77 147.095 61.69 145.995 62.37C144.895 63.03 143.645 63.36 142.245 63.36ZM141.435 60C142.655 60 143.665 59.59 144.465 58.77C145.265 57.95 145.665 56.89 145.665 55.59C145.665 54.29 145.265 53.22 144.465 52.38C143.665 51.54 142.655 51.12 141.435 51.12C140.195 51.12 139.175 51.54 138.375 52.38C137.595 53.2 137.205 54.26 137.205 55.56C137.205 56.86 137.595 57.93 138.375 58.77C139.175 59.59 140.195 60 141.435 60ZM152.995 63V41.4H156.835V63H152.995ZM167.989 63.36C166.489 63.36 165.159 63.04 163.999 62.4C162.839 61.76 161.929 60.86 161.269 59.7C160.609 58.54 160.279 57.2 160.279 55.68C160.279 54.14 160.599 52.77 161.239 51.57C161.899 50.37 162.799 49.44 163.939 48.78C165.099 48.1 166.459 47.76 168.019 47.76C169.479 47.76 170.769 48.08 171.889 48.72C173.009 49.36 173.879 50.24 174.499 51.36C175.139 52.46 175.459 53.69 175.459 55.05C175.459 55.27 175.449 55.5 175.429 55.74C175.429 55.98 175.419 56.23 175.399 56.49H164.089C164.169 57.65 164.569 58.56 165.289 59.22C166.029 59.88 166.919 60.21 167.959 60.21C168.739 60.21 169.389 60.04 169.909 59.7C170.449 59.34 170.849 58.88 171.109 58.32H175.009C174.729 59.26 174.259 60.12 173.599 60.9C172.959 61.66 172.159 62.26 171.199 62.7C170.259 63.14 169.189 63.36 167.989 63.36ZM168.019 50.88C167.079 50.88 166.249 51.15 165.529 51.69C164.809 52.21 164.349 53.01 164.149 54.09H171.559C171.499 53.11 171.139 52.33 170.479 51.75C169.819 51.17 168.999 50.88 168.019 50.88Z" fill="#242424"/>
<path d="M62.8458 46.4335C62.1978 44.9513 61.3401 43.57 60.2991 42.332C58.7601 40.4473 56.8396 38.91 54.6639 37.8212C52.4882 36.7324 50.1067 36.1169 47.676 36.0151C45.2454 35.9133 42.8207 36.3276 40.5617 37.2307C38.3026 38.1337 36.2604 39.5051 34.5694 41.2546C32.8783 43.004 31.5769 45.0919 30.7506 47.3807C29.9244 49.6696 29.5921 52.1075 29.7757 54.534C29.9592 56.9605 30.6544 59.3207 31.8155 61.4591C32.9767 63.5975 34.5774 65.4657 36.5123 66.9408C37.7538 67.9061 39.1257 68.6909 40.5871 69.2717C42.636 70.1116 44.8289 70.5442 47.0432 70.5455C51.6138 70.5353 55.994 68.7129 59.2236 65.4776C62.4532 62.2424 64.2686 57.8582 64.272 53.2862C64.2754 50.9279 63.7897 48.5945 62.8458 46.4335ZM47.0304 39.517C49.0189 39.5168 50.9833 39.9516 52.7861 40.7908C52.3465 40.9808 51.8843 41.1135 51.4109 41.1856C49.853 41.4112 48.4098 42.1347 47.2968 43.2481C46.1837 44.3614 45.4605 45.805 45.235 47.3633C45.136 48.2372 44.7386 49.0503 44.1099 49.6652C43.4813 50.2801 42.6598 50.6593 41.7841 50.7387C40.2262 50.9643 38.7831 51.6878 37.67 52.8011C36.557 53.9145 35.8337 55.3581 35.6082 56.9164C35.5318 57.7474 35.1774 58.5283 34.6022 59.1327C33.6098 57.0352 33.164 54.7206 33.3063 52.4044C33.4485 50.0882 34.1742 47.8457 35.4159 45.8854C36.6575 43.9252 38.3747 42.311 40.4077 41.1931C42.4406 40.0752 44.7233 39.4898 47.0432 39.4916L47.0304 39.517ZM36.4996 62.2024C36.6524 62.0623 36.8052 61.9349 36.958 61.7821C38.0908 60.6834 38.818 59.2331 39.0209 57.6679C39.1031 56.788 39.4958 55.9662 40.1287 55.3497C40.7377 54.7156 41.5574 54.326 42.4335 54.2543C43.9914 54.0287 45.4345 53.3052 46.5476 52.1919C47.6606 51.0785 48.3839 49.6349 48.6094 48.0766C48.6645 47.1563 49.0593 46.2893 49.7173 45.6437C50.3413 45.022 51.1688 44.6465 52.0475 44.5865C53.4787 44.3896 54.8135 43.7531 55.8677 42.7651C57.068 43.7612 58.0851 44.9596 58.8729 46.3061C58.8245 46.3715 58.769 46.4313 58.7073 46.4844C58.0995 47.1241 57.2809 47.5222 56.4025 47.6053C54.8431 47.827 53.3977 48.5491 52.2839 49.6632C51.1702 50.7773 50.4482 52.2231 50.2266 53.783C50.1369 54.6599 49.7468 55.4787 49.1225 56.1009C48.4983 56.723 47.6782 57.1101 46.8012 57.1966C45.2388 57.4205 43.7903 58.1425 42.6708 59.2554C41.5513 60.3683 40.8205 61.8128 40.5871 63.3743C40.5186 63.9968 40.3049 64.5945 39.9632 65.1193C38.6567 64.3434 37.4865 63.358 36.4996 62.2024ZM47.0304 67.1191C45.7383 67.1205 44.4524 66.9404 43.2103 66.5841C43.6352 65.7918 43.9114 64.9284 44.0252 64.0366C44.1145 63.1617 44.5027 62.3443 45.1244 61.7225C45.7461 61.1006 46.5632 60.7123 47.4379 60.623C48.9981 60.3999 50.4441 59.6776 51.5597 58.564C52.6752 57.4504 53.4004 56.0055 53.6265 54.4453C53.7158 53.5704 54.104 52.753 54.7257 52.1312C55.3474 51.5093 56.1645 51.121 57.0392 51.0317C58.2133 50.8789 59.3323 50.4417 60.2991 49.7579C60.8359 51.7933 60.8994 53.9245 60.4849 55.9883C60.0704 58.052 59.1888 59.9933 57.9078 61.6633C56.6268 63.3333 54.9803 64.6876 53.0948 65.6223C51.2093 66.557 49.1348 67.0472 47.0304 67.0554V67.1191Z" fill="#242424"/>
<defs>
<linearGradient id="paint0_linear_1_327" x1="25.2414" y1="6.66583" x2="133.776" y2="325.55" gradientUnits="userSpaceOnUse">
<stop stop-color="white"/>
<stop offset="1" stop-color="#F1F1F1"/>
</linearGradient>
</defs>
</svg>
