<svg width="36" height="35" viewBox="0 0 36 35" fill="none" xmlns="http://www.w3.org/2000/svg">
<path d="M33.8468 10.4335C33.1988 8.95129 32.3411 7.57001 31.3 6.33201C29.7611 4.4473 27.8406 2.90996 25.6649 1.82118C23.4892 0.732402 21.1077 0.116865 18.677 0.0150821C16.2464 -0.0867003 13.8217 0.327578 11.5627 1.23066C9.3036 2.13373 7.26135 3.50513 5.57033 5.25459C3.87931 7.00405 2.57785 9.0919 1.75162 11.3807C0.92538 13.6696 0.5931 16.1075 0.776647 18.534C0.960194 20.9605 1.65541 23.3207 2.81652 25.4591C3.97764 27.5975 5.57834 29.4657 7.51327 30.9408C8.75482 31.9061 10.1267 32.6909 11.5881 33.2717C13.637 34.1116 15.8298 34.5442 18.0441 34.5455C22.6148 34.5353 26.995 32.7129 30.2246 29.4776C33.4542 26.2424 35.2696 21.8582 35.273 17.2862C35.2763 14.9279 34.7907 12.5945 33.8468 10.4335ZM18.0314 3.51703C20.0199 3.51682 21.9843 3.95156 23.7871 4.79078C23.3475 4.98078 22.8853 5.11349 22.4118 5.18564C20.854 5.41122 19.4108 6.13468 18.2978 7.24805C17.1847 8.36143 16.4614 9.805 16.2359 11.3633C16.1369 12.2372 15.7396 13.0503 15.1109 13.6652C14.4822 14.2801 13.6608 14.6593 12.7851 14.7387C11.2272 14.9643 9.78405 15.6878 8.67099 16.8011C7.55794 17.9145 6.83468 19.3581 6.60917 20.9164C6.53282 21.7474 6.17837 22.5283 5.6032 23.1327C4.61079 21.0352 4.16498 18.7206 4.30724 16.4044C4.4495 14.0882 5.17522 11.8457 6.41685 9.88544C7.65848 7.92521 9.37568 6.31102 11.4086 5.19309C13.4416 4.07516 15.7242 3.48983 18.0441 3.49156L18.0314 3.51703ZM7.50054 26.2024C7.65334 26.0623 7.80615 25.9349 7.95896 25.7821C9.09182 24.6834 9.819 23.2331 10.0218 21.6679C10.1041 20.788 10.4968 19.9662 11.1297 19.3497C11.7387 18.7156 12.5584 18.326 13.4345 18.2543C14.9924 18.0287 16.4355 17.3052 17.5486 16.1919C18.6616 15.0785 19.3849 13.6349 19.6104 12.0766C19.6655 11.1563 20.0603 10.2893 20.7182 9.64375C21.3423 9.02197 22.1698 8.64654 23.0485 8.58654C24.4797 8.38957 25.8145 7.75315 26.8687 6.76509C28.069 7.76125 29.086 8.95961 29.8738 10.3061C29.8255 10.3715 29.7699 10.4313 29.7083 10.4844C29.1005 11.1241 28.2818 11.5222 27.4035 11.6053C25.844 11.827 24.3987 12.5491 23.2849 13.6632C22.1711 14.7773 21.4492 16.2231 21.2276 17.783C21.1378 18.6599 20.7478 19.4787 20.1235 20.1009C19.4992 20.723 18.6792 21.1101 17.8022 21.1966C16.2398 21.4205 14.7912 22.1425 13.6717 23.2554C12.5522 24.3683 11.8215 25.8128 11.5881 27.3743C11.5196 27.9968 11.3058 28.5945 10.9641 29.1193C9.65764 28.3434 8.48752 27.358 7.50054 26.2024ZM18.0314 31.1191C16.7393 31.1205 15.4533 30.9404 14.2113 30.5841C14.6361 29.7918 14.9123 28.9284 15.0262 28.0366C15.1155 27.1617 15.5037 26.3443 16.1254 25.7225C16.7471 25.1006 17.5642 24.7123 18.4389 24.623C19.9991 24.3999 21.4451 23.6776 22.5606 22.564C23.6762 21.4504 24.4013 20.0055 24.6275 18.4453C24.7168 17.5704 25.105 16.753 25.7267 16.1312C26.3484 15.5093 27.1655 15.121 28.0402 15.0317C29.2143 14.8789 30.3333 14.4417 31.3 13.7579C31.8368 15.7933 31.9004 17.9245 31.4859 19.9883C31.0714 22.052 30.1898 23.9933 28.9088 25.6633C27.6278 27.3333 25.9813 28.6876 24.0958 29.6223C22.2103 30.557 20.1357 31.0472 18.0314 31.0554V31.1191Z" fill="#242424"/>
</svg>
