<svg width="34" height="35" viewBox="0 0 34 35" fill="none" xmlns="http://www.w3.org/2000/svg">
<path d="M25.9117 15.1613C25.4291 15.6552 25.0596 16.2514 24.8293 16.9072C24.5991 17.5631 24.5139 18.2625 24.5797 18.9557L24.5568 18.9324C24.6245 19.7484 24.5164 20.5695 24.2399 21.3386C23.9635 22.1076 23.5254 22.806 22.9563 23.385C22.3871 23.9641 21.7006 24.4097 20.9447 24.691C20.1888 24.9722 19.3817 25.0822 18.5796 25.0134L18.6025 25.0367C17.6432 24.9458 16.6796 25.1582 15.8432 25.6449C15.0068 26.1316 14.3383 26.8689 13.9289 27.7563C13.5195 28.6436 13.389 29.6379 13.5554 30.6034C13.7217 31.569 14.1767 32.4588 14.8583 33.1517C15.5399 33.8445 16.415 34.3066 17.3642 34.4749C18.3134 34.6433 19.2906 34.5097 20.1624 34.0923C21.0343 33.675 21.7584 32.9942 22.236 32.1429C22.7137 31.2915 22.9216 30.311 22.8314 29.3351L22.8556 29.3584C22.7879 28.5424 22.896 27.7213 23.1725 26.9522C23.4489 26.1832 23.887 25.4848 24.4561 24.9058C25.0253 24.3267 25.7118 23.8811 26.4677 23.5998C27.2236 23.3186 28.0308 23.2086 28.8328 23.2774L28.8086 23.2541C29.5923 23.3258 30.3811 23.1951 31.1019 22.8741C31.8227 22.553 32.4522 22.0521 32.9321 21.4176C33.4119 20.7832 33.7266 20.0358 33.8469 19.2447C33.9672 18.4536 33.8893 17.6444 33.6203 16.8921C33.3514 16.1398 32.9001 15.4687 32.3084 14.9411C31.7166 14.4134 31.0035 14.0463 30.2352 13.8737C29.4668 13.7011 28.6681 13.7286 27.913 13.9537C27.1579 14.1788 26.4708 14.5941 25.9155 15.1613H25.9117Z" fill="#242424"/>
<path d="M16.5176 21.9817L16.4934 21.9584C17.1751 22.0283 17.8635 21.9432 18.5088 21.7092C19.1542 21.4753 19.7404 21.0983 20.2251 20.6056C20.7097 20.113 21.0807 19.5169 21.3111 18.8605C21.5416 18.2041 21.6257 17.5038 21.5576 16.8102L21.5818 16.8335C21.5141 16.0176 21.6222 15.1964 21.8986 14.4274C22.1751 13.6583 22.6132 12.9599 23.1823 12.3809C23.7514 11.8019 24.4379 11.3562 25.1939 11.0749C25.9498 10.7937 26.7569 10.6837 27.559 10.7526L27.5348 10.7292C28.4942 10.8209 29.4581 10.6092 30.295 10.1231C31.1318 9.63694 31.8009 8.89999 32.211 8.01276C32.621 7.12553 32.7521 6.13121 32.5862 5.16542C32.4204 4.19964 31.9658 3.30941 31.2844 2.61615C30.6029 1.9229 29.7279 1.46037 28.7786 1.29166C27.8293 1.12295 26.8519 1.25627 25.9798 1.67344C25.1078 2.09061 24.3834 2.77131 23.9055 3.6227C23.4277 4.4741 23.2196 5.45473 23.3097 6.43084L23.2868 6.40623C23.3547 7.22224 23.2467 8.0435 22.9704 8.81265C22.694 9.5818 22.2559 10.2803 21.6868 10.8594C21.1176 11.4384 20.431 11.8841 19.675 12.1653C18.9189 12.4464 18.1117 12.5563 17.3096 12.4872L17.3325 12.5118C16.6509 12.4419 15.9624 12.527 15.3171 12.761C14.6717 12.995 14.0855 13.3719 13.6009 13.8646C13.1162 14.3573 12.7453 14.9534 12.5148 15.6098C12.2844 16.2662 12.2002 16.9665 12.2683 17.66L12.2454 17.6367C12.3129 18.4526 12.2046 19.2737 11.9281 20.0426C11.6516 20.8116 11.2135 21.5099 10.6444 22.0889C10.0753 22.6678 9.3889 23.1135 8.63308 23.3948C7.87726 23.6762 7.07021 23.7863 6.26823 23.7177L6.29115 23.741C5.33169 23.6493 4.36779 23.861 3.53093 24.3472C2.69407 24.8333 2.02498 25.5702 1.61493 26.4575C1.20488 27.3447 1.07384 28.339 1.23967 29.3048C1.4055 30.2706 1.86013 31.1608 2.54156 31.8541C3.22298 32.5473 4.09802 33.0099 5.04733 33.1786C5.99663 33.3473 6.97398 33.214 7.84607 32.7968C8.71816 32.3796 9.44253 31.6989 9.92038 30.8475C10.3982 29.9961 10.6063 29.0155 10.5162 28.0394L10.5404 28.0627C10.4727 27.2468 10.5808 26.4256 10.8573 25.6565C11.1337 24.8875 11.5718 24.1891 12.1409 23.6101C12.7101 23.031 13.3966 22.5854 14.1525 22.3041C14.9084 22.0229 15.7155 21.9129 16.5176 21.9817Z" fill="#242424"/>
<path d="M7.98389 19.3816C8.46652 18.8877 8.83604 18.2916 9.06606 17.6357C9.29608 16.9797 9.38093 16.2803 9.31456 15.5871L9.33875 15.6105C9.271 14.7943 9.3792 13.9729 9.65578 13.2036C9.93237 12.4344 10.3707 11.7358 10.9401 11.1567C11.5095 10.5777 12.1964 10.1321 12.9526 9.85099C13.7088 9.56993 14.5163 9.46021 15.3185 9.52948L15.2943 9.50617C16.2534 9.59758 17.2169 9.38579 18.0534 8.89968C18.8899 8.41357 19.5586 7.6768 19.9684 6.78985C20.3782 5.90289 20.5091 4.90893 20.3433 3.94351C20.1775 2.97809 19.723 2.08819 19.0418 1.39519C18.3607 0.702189 17.4859 0.239808 16.537 0.0711065C15.588 -0.0975954 14.611 0.0355935 13.7392 0.452509C12.8674 0.869424 12.1432 1.54977 11.6654 2.40077C11.1876 3.25177 10.9794 4.232 11.0693 5.20778L11.0463 5.18446C11.114 6.00041 11.0059 6.82158 10.7295 7.59062C10.453 8.35967 10.0149 9.05808 9.4458 9.6371C8.87667 10.2161 8.19018 10.6618 7.43425 10.943C6.67833 11.2243 5.87118 11.3343 5.06915 11.2654L5.09207 11.2887C4.3084 11.2172 3.51967 11.3482 2.79897 11.6693C2.07827 11.9905 1.44891 12.4916 0.969219 13.1261C0.489528 13.7606 0.175022 14.508 0.0548473 15.2991C-0.0653274 16.0901 0.0127162 16.8993 0.281747 17.6515C0.550777 18.4037 1.00209 19.0747 1.59386 19.6022C2.18564 20.1298 2.89872 20.4968 3.66704 20.6694C4.43537 20.8419 5.23406 20.8143 5.98912 20.5892C6.74418 20.3641 7.43117 19.9487 7.98644 19.3816H7.98389Z" fill="#242424"/>
</svg>
