<svg width="462" height="219" viewBox="0 0 462 219" fill="none" xmlns="http://www.w3.org/2000/svg">
<g opacity="0.7">
<path opacity="0.7" d="M36.8454 39.9295C36.4214 39.9295 36.0871 39.83 35.8425 39.6311C35.5979 39.4288 35.4756 39.1369 35.4756 38.7553C35.4756 38.5564 35.5131 38.3819 35.5881 38.2318C35.6631 38.0785 35.7658 37.9595 35.8963 37.8747C36.03 37.7866 36.1752 37.7214 36.3317 37.679C36.4916 37.6366 36.6628 37.6154 36.8454 37.6154C37.2368 37.6154 37.563 37.7083 37.8239 37.8943C38.0849 38.0802 38.2153 38.3672 38.2153 38.7553C38.2153 39.1369 38.093 39.4288 37.8484 39.6311C37.607 39.83 37.2727 39.9295 36.8454 39.9295ZM36.8454 43.364C36.5747 43.364 36.3334 43.3232 36.1214 43.2417C35.9126 43.1601 35.7414 43.0248 35.6077 42.8356C35.4739 42.6464 35.4071 42.4132 35.4071 42.136C35.4071 41.7087 35.5424 41.3809 35.8131 41.1526C36.0871 40.921 36.4312 40.8053 36.8454 40.8053C37.2564 40.8053 37.5972 40.921 37.868 41.1526C38.1387 41.3809 38.274 41.7087 38.274 42.136C38.274 42.547 38.1403 42.8552 37.8728 43.0607C37.6054 43.2629 37.2629 43.364 36.8454 43.364ZM36.8405 44.1076C37.3037 44.1076 37.7147 44.0342 38.0734 43.8875C38.4355 43.7374 38.7241 43.5108 38.9394 43.2074C39.1547 42.9041 39.2623 42.5453 39.2623 42.1311C39.2623 41.6843 39.1465 41.3124 38.9149 41.0156C38.6834 40.7156 38.3393 40.5036 37.8826 40.3796C38.2903 40.2818 38.6035 40.0926 38.822 39.8121C39.0405 39.5316 39.1498 39.1859 39.1498 38.7749C39.1498 38.4748 39.0894 38.2041 38.9688 37.9628C38.8481 37.7214 38.6817 37.5257 38.4697 37.3757C38.261 37.2224 38.018 37.1066 37.7408 37.0283C37.4635 36.9468 37.1634 36.906 36.8405 36.906C36.41 36.906 36.0235 36.9745 35.681 37.1115C35.3386 37.2485 35.063 37.4605 34.8542 37.7475C34.6455 38.0345 34.5411 38.377 34.5411 38.7749C34.5411 39.1793 34.6471 39.5234 34.8591 39.8072C35.0744 40.0877 35.394 40.2785 35.818 40.3796C35.3745 40.4709 35.032 40.6764 34.7906 40.9961C34.5493 41.3124 34.4286 41.6908 34.4286 42.1311C34.4286 42.5453 34.5346 42.9041 34.7466 43.2074C34.9619 43.5108 35.2489 43.7374 35.6077 43.8875C35.9697 44.0342 36.3807 44.1076 36.8405 44.1076ZM42.6234 44.1076C42.9985 44.1076 43.3312 44.0408 43.6214 43.907C43.9117 43.7733 44.1466 43.5972 44.326 43.3787C44.5086 43.1569 44.657 42.8878 44.7712 42.5714C44.8886 42.255 44.9685 41.9305 45.0109 41.5978C45.0566 41.2651 45.0794 40.9031 45.0794 40.5117C45.0794 38.1079 44.2607 36.906 42.6234 36.906C40.9828 36.906 40.1625 38.1079 40.1625 40.5117C40.1625 40.9064 40.1853 41.27 40.231 41.6027C40.2767 41.9354 40.3566 42.2599 40.4707 42.5763C40.5881 42.8927 40.7365 43.1618 40.9159 43.3836C41.0986 43.6021 41.3351 43.7782 41.6253 43.9119C41.9156 44.0424 42.2483 44.1076 42.6234 44.1076ZM42.6234 43.3151C42.444 43.3151 42.2809 43.2841 42.1341 43.2221C41.9906 43.1569 41.87 43.0737 41.7721 42.9726C41.6743 42.8715 41.5878 42.7443 41.5128 42.591C41.4411 42.4377 41.384 42.2828 41.3416 42.1262C41.2992 41.9696 41.2649 41.7935 41.2388 41.5978C41.216 41.3989 41.1997 41.2162 41.1899 41.0499C41.1834 40.8835 41.1801 40.7041 41.1801 40.5117C41.1801 40.3095 41.1834 40.1236 41.1899 39.954C41.1997 39.7811 41.2176 39.5952 41.2437 39.3962C41.2698 39.1973 41.3024 39.0195 41.3416 38.863C41.384 38.7064 41.4427 38.5531 41.5177 38.4031C41.5927 38.253 41.6792 38.1291 41.777 38.0312C41.8748 37.9301 41.9955 37.8502 42.139 37.7915C42.2825 37.7295 42.444 37.6986 42.6234 37.6986C42.8028 37.6986 42.9642 37.7295 43.1077 37.7915C43.2512 37.8502 43.3719 37.9301 43.4698 38.0312C43.5709 38.1324 43.6573 38.2579 43.7291 38.408C43.8041 38.558 43.8628 38.7113 43.9052 38.8679C43.9476 39.0244 43.9819 39.2022 44.0079 39.4011C44.034 39.5968 44.0503 39.7811 44.0569 39.954C44.0667 40.1236 44.0715 40.3095 44.0715 40.5117C44.0715 40.7041 44.0667 40.8835 44.0569 41.0499C44.0503 41.213 44.034 41.394 44.0079 41.5929C43.9851 41.7886 43.9525 41.9648 43.9101 42.1213C43.8677 42.2779 43.809 42.4328 43.734 42.5861C43.6622 42.7394 43.5758 42.8682 43.4747 42.9726C43.3768 43.0737 43.2545 43.1569 43.1077 43.2221C42.9642 43.2841 42.8028 43.3151 42.6234 43.3151Z" fill="white"/>
<path opacity="0.7" d="M37.0167 76.5933C37.4668 76.5933 37.8044 76.7368 38.0294 77.0238C38.2577 77.3108 38.3719 77.6794 38.3719 78.1295C38.3719 78.5959 38.2463 78.9677 37.9952 79.245C37.744 79.5189 37.3852 79.6559 36.9188 79.6559C36.4655 79.6559 36.1132 79.5124 35.8621 79.2254C35.6109 78.9351 35.4853 78.5747 35.4853 78.1442C35.4853 77.6712 35.6191 77.2945 35.8865 77.014C36.154 76.7335 36.5307 76.5933 37.0167 76.5933ZM36.9678 80.4289C37.6853 80.4289 38.2577 80.212 38.685 79.7782C39.1123 79.3444 39.3259 78.7916 39.3259 78.1197C39.3259 77.4609 39.1237 76.9259 38.7192 76.515C38.3181 76.104 37.7815 75.8969 37.1096 75.8936C36.6856 75.8936 36.3154 75.9964 35.9991 76.2019C35.6859 76.4041 35.4919 76.6373 35.4169 76.9015C35.4169 76.6503 35.4217 76.4253 35.4315 76.2263C35.4446 76.0241 35.4674 75.8203 35.5 75.6148C35.5359 75.4093 35.5816 75.2299 35.637 75.0766C35.6957 74.9233 35.7707 74.7782 35.8621 74.6412C35.9567 74.5042 36.0659 74.3917 36.1899 74.3036C36.3171 74.2155 36.4687 74.1471 36.6449 74.0981C36.821 74.0459 37.0183 74.0199 37.2368 74.0199C37.6348 74.0199 38.0457 74.1177 38.4697 74.3134C38.5154 74.333 38.5562 74.3428 38.592 74.3428C38.6899 74.3428 38.7731 74.2971 38.8415 74.2058C38.9133 74.1112 38.9492 74.0084 38.9492 73.8975C38.9492 73.7508 38.8888 73.648 38.7682 73.5893C38.2757 73.348 37.7717 73.2273 37.2564 73.2273C36.9107 73.2273 36.5976 73.2713 36.3171 73.3594C36.0366 73.4442 35.7985 73.56 35.6028 73.7067C35.4103 73.8502 35.2391 74.0296 35.0891 74.2449C34.9423 74.4602 34.8265 74.6803 34.7417 74.9054C34.6569 75.1304 34.5868 75.3832 34.5313 75.6637C34.4791 75.9442 34.4433 76.2084 34.4237 76.4563C34.4074 76.7009 34.3992 76.9651 34.3992 77.2488C34.3992 77.5946 34.4237 77.9175 34.4726 78.2175C34.5248 78.5144 34.6129 78.8014 34.7368 79.0786C34.8607 79.3559 35.0173 79.5923 35.2065 79.788C35.3989 79.9837 35.6435 80.1403 35.9403 80.2577C36.2404 80.3718 36.5829 80.4289 36.9678 80.4289ZM42.6234 80.4289C42.9985 80.4289 43.3312 80.3621 43.6214 80.2283C43.9117 80.0946 44.1466 79.9185 44.326 79.7C44.5086 79.4782 44.657 79.2091 44.7712 78.8927C44.8886 78.5763 44.9685 78.2518 45.0109 77.9191C45.0566 77.5864 45.0794 77.2244 45.0794 76.833C45.0794 74.4292 44.2607 73.2273 42.6234 73.2273C40.9828 73.2273 40.1625 74.4292 40.1625 76.833C40.1625 77.2276 40.1853 77.5913 40.231 77.924C40.2767 78.2567 40.3566 78.5812 40.4707 78.8976C40.5881 79.214 40.7365 79.4831 40.9159 79.7048C41.0986 79.9234 41.3351 80.0995 41.6253 80.2332C41.9156 80.3637 42.2483 80.4289 42.6234 80.4289ZM42.6234 79.6364C42.444 79.6364 42.2809 79.6054 42.1341 79.5434C41.9906 79.4782 41.87 79.395 41.7721 79.2939C41.6743 79.1928 41.5878 79.0656 41.5128 78.9123C41.4411 78.759 41.384 78.604 41.3416 78.4475C41.2992 78.2909 41.2649 78.1148 41.2388 77.9191C41.216 77.7202 41.1997 77.5375 41.1899 77.3712C41.1834 77.2048 41.1801 77.0254 41.1801 76.833C41.1801 76.6308 41.1834 76.4449 41.1899 76.2753C41.1997 76.1024 41.2176 75.9165 41.2437 75.7175C41.2698 75.5186 41.3024 75.3408 41.3416 75.1842C41.384 75.0277 41.4427 74.8744 41.5177 74.7244C41.5927 74.5743 41.6792 74.4504 41.777 74.3525C41.8748 74.2514 41.9955 74.1715 42.139 74.1128C42.2825 74.0508 42.444 74.0199 42.6234 74.0199C42.8028 74.0199 42.9642 74.0508 43.1077 74.1128C43.2512 74.1715 43.3719 74.2514 43.4698 74.3525C43.5709 74.4536 43.6573 74.5792 43.7291 74.7293C43.8041 74.8793 43.8628 75.0326 43.9052 75.1891C43.9476 75.3457 43.9819 75.5235 44.0079 75.7224C44.034 75.9181 44.0503 76.1024 44.0569 76.2753C44.0667 76.4449 44.0715 76.6308 44.0715 76.833C44.0715 77.0254 44.0667 77.2048 44.0569 77.3712C44.0503 77.5342 44.034 77.7153 44.0079 77.9142C43.9851 78.1099 43.9525 78.286 43.9101 78.4426C43.8677 78.5992 43.809 78.7541 43.734 78.9074C43.6622 79.0607 43.5758 79.1895 43.4747 79.2939C43.3768 79.395 43.2545 79.4782 43.1077 79.5434C42.9642 79.6054 42.8028 79.6364 42.6234 79.6364Z" fill="white"/>
<path opacity="0.7" d="M35.2652 114.412L37.6038 110.654V114.412H35.2652ZM38.0832 116.648C38.2072 116.648 38.3164 116.608 38.411 116.53C38.5056 116.452 38.5529 116.344 38.5529 116.207V115.126H39.2672C39.3813 115.126 39.4694 115.092 39.5314 115.023C39.5934 114.951 39.6243 114.867 39.6243 114.769C39.6243 114.671 39.5934 114.588 39.5314 114.519C39.4694 114.448 39.3813 114.412 39.2672 114.412H38.5578V110.331C38.5578 110.106 38.4926 109.937 38.3621 109.823C38.2316 109.708 38.0685 109.651 37.8728 109.651C37.5402 109.651 37.2743 109.806 37.0754 110.116L34.4041 114.314C34.3422 114.408 34.3112 114.51 34.3112 114.617C34.3112 114.754 34.3568 114.873 34.4482 114.974C34.5427 115.075 34.6651 115.126 34.8151 115.126H37.6038V116.207C37.6038 116.344 37.6527 116.452 37.7505 116.53C37.8484 116.608 37.9593 116.648 38.0832 116.648ZM42.6234 116.75C42.9985 116.75 43.3312 116.683 43.6214 116.55C43.9117 116.416 44.1466 116.24 44.326 116.021C44.5086 115.8 44.657 115.53 44.7712 115.214C44.8886 114.898 44.9685 114.573 45.0109 114.24C45.0566 113.908 45.0794 113.546 45.0794 113.154C45.0794 110.751 44.2607 109.549 42.6234 109.549C40.9828 109.549 40.1625 110.751 40.1625 113.154C40.1625 113.549 40.1853 113.913 40.231 114.245C40.2767 114.578 40.3566 114.903 40.4707 115.219C40.5881 115.535 40.7365 115.804 40.9159 116.026C41.0986 116.245 41.3351 116.421 41.6253 116.555C41.9156 116.685 42.2483 116.75 42.6234 116.75ZM42.6234 115.958C42.444 115.958 42.2809 115.927 42.1341 115.865C41.9906 115.8 41.87 115.716 41.7721 115.615C41.6743 115.514 41.5878 115.387 41.5128 115.234C41.4411 115.08 41.384 114.925 41.3416 114.769C41.2992 114.612 41.2649 114.436 41.2388 114.24C41.216 114.042 41.1997 113.859 41.1899 113.693C41.1834 113.526 41.1801 113.347 41.1801 113.154C41.1801 112.952 41.1834 112.766 41.1899 112.597C41.1997 112.424 41.2176 112.238 41.2437 112.039C41.2698 111.84 41.3024 111.662 41.3416 111.506C41.384 111.349 41.4427 111.196 41.5177 111.046C41.5927 110.896 41.6792 110.772 41.777 110.674C41.8748 110.573 41.9955 110.493 42.139 110.434C42.2825 110.372 42.444 110.341 42.6234 110.341C42.8028 110.341 42.9642 110.372 43.1077 110.434C43.2512 110.493 43.3719 110.573 43.4698 110.674C43.5709 110.775 43.6573 110.901 43.7291 111.051C43.8041 111.201 43.8628 111.354 43.9052 111.51C43.9476 111.667 43.9819 111.845 44.0079 112.044C44.034 112.239 44.0503 112.424 44.0569 112.597C44.0667 112.766 44.0715 112.952 44.0715 113.154C44.0715 113.347 44.0667 113.526 44.0569 113.693C44.0503 113.856 44.034 114.037 44.0079 114.236C43.9851 114.431 43.9525 114.607 43.9101 114.764C43.8677 114.921 43.809 115.075 43.734 115.229C43.6622 115.382 43.5758 115.511 43.4747 115.615C43.3768 115.716 43.2545 115.8 43.1077 115.865C42.9642 115.927 42.8028 115.958 42.6234 115.958Z" fill="white"/>
<path opacity="0.7" d="M39.0519 147.886C39.0519 147.338 38.8481 146.873 38.4404 146.491C38.0359 146.11 37.5271 145.919 36.9139 145.919C36.4834 145.919 36.1197 145.971 35.8229 146.075C35.5294 146.177 35.2212 146.325 34.8983 146.521C34.7711 146.599 34.7075 146.7 34.7075 146.824C34.7075 146.928 34.7466 147.023 34.8249 147.108C34.9064 147.189 34.9977 147.23 35.0988 147.23C35.1478 147.23 35.1951 147.219 35.2407 147.196C35.2701 147.18 35.3598 147.127 35.5098 147.039C35.6631 146.948 35.7773 146.886 35.8523 146.853C35.9306 146.821 36.061 146.785 36.2437 146.746C36.4296 146.707 36.6302 146.687 36.8454 146.687C37.2075 146.687 37.5124 146.806 37.7603 147.044C38.0115 147.279 38.137 147.589 38.137 147.974C38.137 148.202 38.0751 148.43 37.9511 148.659C37.8272 148.884 37.6331 149.132 37.3689 149.402L34.8249 151.981C34.6716 152.134 34.5949 152.294 34.5949 152.46C34.5949 152.604 34.6536 152.724 34.7711 152.822C34.8885 152.917 35.0434 152.964 35.2358 152.964H38.6018C38.7225 152.964 38.8171 152.928 38.8856 152.856C38.9541 152.781 38.9883 152.693 38.9883 152.592C38.9883 152.491 38.9541 152.405 38.8856 152.333C38.8171 152.258 38.7225 152.22 38.6018 152.22H35.6566L37.8924 150.043C38.3066 149.662 38.6035 149.301 38.7828 148.962C38.9622 148.623 39.0519 148.264 39.0519 147.886ZM42.6234 153.072C42.9985 153.072 43.3312 153.005 43.6214 152.871C43.9117 152.737 44.1466 152.561 44.326 152.343C44.5086 152.121 44.657 151.852 44.7712 151.535C44.8886 151.219 44.9685 150.894 45.0109 150.562C45.0566 150.229 45.0794 149.867 45.0794 149.476C45.0794 147.072 44.2607 145.87 42.6234 145.87C40.9828 145.87 40.1625 147.072 40.1625 149.476C40.1625 149.87 40.1853 150.234 40.231 150.567C40.2767 150.899 40.3566 151.224 40.4707 151.54C40.5881 151.857 40.7365 152.126 40.9159 152.348C41.0986 152.566 41.3351 152.742 41.6253 152.876C41.9156 153.006 42.2483 153.072 42.6234 153.072ZM42.6234 152.279C42.444 152.279 42.2809 152.248 42.1341 152.186C41.9906 152.121 41.87 152.038 41.7721 151.937C41.6743 151.835 41.5878 151.708 41.5128 151.555C41.4411 151.402 41.384 151.247 41.3416 151.09C41.2992 150.934 41.2649 150.758 41.2388 150.562C41.216 150.363 41.1997 150.18 41.1899 150.014C41.1834 149.848 41.1801 149.668 41.1801 149.476C41.1801 149.273 41.1834 149.088 41.1899 148.918C41.1997 148.745 41.2176 148.559 41.2437 148.36C41.2698 148.161 41.3024 147.984 41.3416 147.827C41.384 147.67 41.4427 147.517 41.5177 147.367C41.5927 147.217 41.6792 147.093 41.777 146.995C41.8748 146.894 41.9955 146.814 42.139 146.756C42.2826 146.694 42.444 146.663 42.6234 146.663C42.8028 146.663 42.9642 146.694 43.1077 146.756C43.2512 146.814 43.3719 146.894 43.4698 146.995C43.5709 147.096 43.6573 147.222 43.7291 147.372C43.8041 147.522 43.8628 147.675 43.9052 147.832C43.9476 147.988 43.9819 148.166 44.0079 148.365C44.034 148.561 44.0503 148.745 44.0569 148.918C44.0667 149.088 44.0715 149.273 44.0715 149.476C44.0715 149.668 44.0667 149.848 44.0569 150.014C44.0503 150.177 44.034 150.358 44.0079 150.557C43.9851 150.753 43.9525 150.929 43.9101 151.085C43.8677 151.242 43.809 151.397 43.734 151.55C43.6622 151.703 43.5758 151.832 43.4747 151.937C43.3768 152.038 43.2545 152.121 43.1077 152.186C42.9642 152.248 42.8028 152.279 42.6234 152.279Z" fill="white"/>
<path opacity="0.7" d="M41.3709 189.393C41.746 189.393 42.0787 189.326 42.369 189.192C42.6593 189.059 42.8941 188.882 43.0735 188.664C43.2561 188.442 43.4045 188.173 43.5187 187.857C43.6361 187.54 43.716 187.216 43.7584 186.883C43.8041 186.55 43.8269 186.188 43.8269 185.797C43.8269 183.393 43.0083 182.191 41.3709 182.191C39.7303 182.191 38.91 183.393 38.91 185.797C38.91 186.192 38.9329 186.555 38.9785 186.888C39.0242 187.221 39.1041 187.545 39.2183 187.862C39.3357 188.178 39.4841 188.447 39.6635 188.669C39.8461 188.887 40.0826 189.063 40.3729 189.197C40.6632 189.328 40.9958 189.393 41.3709 189.393ZM41.3709 188.6C41.1915 188.6 41.0285 188.569 40.8817 188.507C40.7382 188.442 40.6175 188.359 40.5197 188.258C40.4218 188.157 40.3354 188.03 40.2604 187.876C40.1886 187.723 40.1315 187.568 40.0891 187.411C40.0467 187.255 40.0125 187.079 39.9864 186.883C39.9635 186.684 39.9472 186.501 39.9375 186.335C39.9309 186.169 39.9277 185.989 39.9277 185.797C39.9277 185.595 39.9309 185.409 39.9375 185.239C39.9472 185.066 39.9652 184.88 39.9913 184.682C40.0174 184.483 40.05 184.305 40.0891 184.148C40.1315 183.992 40.1902 183.838 40.2652 183.688C40.3403 183.538 40.4267 183.414 40.5245 183.317C40.6224 183.215 40.7431 183.136 40.8866 183.077C41.0301 183.015 41.1915 182.984 41.3709 182.984C41.5503 182.984 41.7118 183.015 41.8553 183.077C41.9988 183.136 42.1195 183.215 42.2173 183.317C42.3184 183.418 42.4049 183.543 42.4766 183.693C42.5516 183.843 42.6103 183.997 42.6527 184.153C42.6951 184.31 42.7294 184.487 42.7555 184.686C42.7816 184.882 42.7979 185.066 42.8044 185.239C42.8142 185.409 42.8191 185.595 42.8191 185.797C42.8191 185.989 42.8142 186.169 42.8044 186.335C42.7979 186.498 42.7816 186.679 42.7555 186.878C42.7327 187.074 42.7 187.25 42.6576 187.407C42.6152 187.563 42.5565 187.718 42.4815 187.871C42.4098 188.025 42.3233 188.153 42.2222 188.258C42.1244 188.359 42.0021 188.442 41.8553 188.507C41.7118 188.569 41.5503 188.6 41.3709 188.6Z" fill="white"/>
</g>
<g filter="url(#filter0_d_1_308)">
<path d="M55.2363 87.2713L59.4193 93.1128C63.6267 98.7358 72.1149 110.746 80.4319 119.317C88.7733 128.216 97.0658 133.675 105.627 122.211C113.944 110.746 122.261 81.2662 130.823 81.4299C139.115 81.2662 147.457 110.746 155.774 119.317C164.262 128.216 172.652 116.205 180.969 122.211C189.433 128.216 197.848 151.145 206.165 142.574C214.58 133.675 223.044 93.2765 231.361 96.0062C239.751 98.7358 248.239 120.042 256.556 143.135C264.898 166.446 273.19 166.446 281.752 151.87C291.231 137.917 295.86 132.46 306.053 124.775C316.807 117.723 323.581 128.216 331.898 116.369C340.386 104.741 348.777 69.8017 357.094 63.9603C365.557 58.3372 373.972 81.2661 382.289 84.3779C390.704 87.2713 399.168 69.8017 403.326 61.0669L407.485 52.332" stroke="#F2B53C" stroke-width="2.8403" stroke-linecap="round"/>
</g>
<g filter="url(#filter1_d_1_308)">
<ellipse cx="130.025" cy="80.8944" rx="5.06232" ry="5.01832" fill="white"/>
<path d="M134.022 80.8944C134.022 83.0689 132.242 84.8476 130.025 84.8476C127.809 84.8476 126.028 83.0689 126.028 80.8944C126.028 78.7198 127.809 76.9412 130.025 76.9412C132.242 76.9412 134.022 78.7198 134.022 80.8944Z" stroke="#F2B53C" stroke-width="2.13023"/>
</g>
<g filter="url(#filter2_d_1_308)">
<ellipse cx="231.443" cy="95.3827" rx="5.06232" ry="5.01832" fill="white"/>
<path d="M235.44 95.3827C235.44 97.5572 233.66 99.3359 231.443 99.3359C229.227 99.3359 227.446 97.5572 227.446 95.3827C227.446 93.2082 229.227 91.4295 231.443 91.4295C233.66 91.4295 235.44 93.2082 235.44 95.3827Z" stroke="#F2B53C" stroke-width="2.13023"/>
</g>
<g filter="url(#filter3_d_1_308)">
<ellipse cx="359.123" cy="62.7839" rx="5.06232" ry="5.01832" fill="white"/>
<path d="M363.12 62.7839C363.12 64.9585 361.339 66.7372 359.123 66.7372C356.906 66.7372 355.126 64.9585 355.126 62.7839C355.126 60.6094 356.906 58.8307 359.123 58.8307C361.339 58.8307 363.12 60.6094 363.12 62.7839Z" stroke="#F2B53C" stroke-width="2.13023"/>
</g>
<g filter="url(#filter4_d_1_308)">
<ellipse cx="178.017" cy="120.737" rx="5.06232" ry="5.01832" fill="white"/>
<path d="M182.015 120.737C182.015 122.912 180.234 124.69 178.017 124.69C175.801 124.69 174.02 122.912 174.02 120.737C174.02 118.563 175.801 116.784 178.017 116.784C180.234 116.784 182.015 118.563 182.015 120.737Z" stroke="#F2B53C" stroke-width="2.13023"/>
</g>
<g filter="url(#filter5_d_1_308)">
<ellipse cx="307.508" cy="123.454" rx="5.06232" ry="5.01832" fill="white"/>
<path d="M311.505 123.454C311.505 125.628 309.724 127.407 307.508 127.407C305.291 127.407 303.511 125.628 303.511 123.454C303.511 121.279 305.291 119.501 307.508 119.501C309.724 119.501 311.505 121.279 311.505 123.454Z" stroke="#F2B53C" stroke-width="2.13023"/>
</g>
<defs>
<filter id="filter0_d_1_308" x="0.97607" y="0.911861" width="460.769" height="218.09" filterUnits="userSpaceOnUse" color-interpolation-filters="sRGB">
<feFlood flood-opacity="0" result="BackgroundImageFix"/>
<feColorMatrix in="SourceAlpha" type="matrix" values="0 0 0 0 0 0 0 0 0 0 0 0 0 0 0 0 0 0 127 0" result="hardAlpha"/>
<feOffset dy="2.8403"/>
<feGaussianBlur stdDeviation="26.42"/>
<feColorMatrix type="matrix" values="0 0 0 0 0.827451 0 0 0 0 0.905882 0 0 0 0 0.388235 0 0 0 1 0"/>
<feBlend mode="normal" in2="BackgroundImageFix" result="effect1_dropShadow_1_308"/>
<feBlend mode="normal" in="SourceGraphic" in2="effect1_dropShadow_1_308" result="shape"/>
</filter>
<filter id="filter1_d_1_308" x="122.123" y="75.876" width="15.8052" height="15.7172" filterUnits="userSpaceOnUse" color-interpolation-filters="sRGB">
<feFlood flood-opacity="0" result="BackgroundImageFix"/>
<feColorMatrix in="SourceAlpha" type="matrix" values="0 0 0 0 0 0 0 0 0 0 0 0 0 0 0 0 0 0 127 0" result="hardAlpha"/>
<feOffset dy="2.8403"/>
<feGaussianBlur stdDeviation="1.42015"/>
<feColorMatrix type="matrix" values="0 0 0 0 0.156863 0 0 0 0 0.635294 0 0 0 0 0.388235 0 0 0 0.03 0"/>
<feBlend mode="normal" in2="BackgroundImageFix" result="effect1_dropShadow_1_308"/>
<feBlend mode="normal" in="SourceGraphic" in2="effect1_dropShadow_1_308" result="shape"/>
</filter>
<filter id="filter2_d_1_308" x="223.541" y="90.3644" width="15.8052" height="15.7172" filterUnits="userSpaceOnUse" color-interpolation-filters="sRGB">
<feFlood flood-opacity="0" result="BackgroundImageFix"/>
<feColorMatrix in="SourceAlpha" type="matrix" values="0 0 0 0 0 0 0 0 0 0 0 0 0 0 0 0 0 0 127 0" result="hardAlpha"/>
<feOffset dy="2.8403"/>
<feGaussianBlur stdDeviation="1.42015"/>
<feColorMatrix type="matrix" values="0 0 0 0 0.156863 0 0 0 0 0.635294 0 0 0 0 0.388235 0 0 0 0.03 0"/>
<feBlend mode="normal" in2="BackgroundImageFix" result="effect1_dropShadow_1_308"/>
<feBlend mode="normal" in="SourceGraphic" in2="effect1_dropShadow_1_308" result="shape"/>
</filter>
<filter id="filter3_d_1_308" x="351.22" y="57.7656" width="15.8052" height="15.7172" filterUnits="userSpaceOnUse" color-interpolation-filters="sRGB">
<feFlood flood-opacity="0" result="BackgroundImageFix"/>
<feColorMatrix in="SourceAlpha" type="matrix" values="0 0 0 0 0 0 0 0 0 0 0 0 0 0 0 0 0 0 127 0" result="hardAlpha"/>
<feOffset dy="2.8403"/>
<feGaussianBlur stdDeviation="1.42015"/>
<feColorMatrix type="matrix" values="0 0 0 0 0.156863 0 0 0 0 0.635294 0 0 0 0 0.388235 0 0 0 0.03 0"/>
<feBlend mode="normal" in2="BackgroundImageFix" result="effect1_dropShadow_1_308"/>
<feBlend mode="normal" in="SourceGraphic" in2="effect1_dropShadow_1_308" result="shape"/>
</filter>
<filter id="filter4_d_1_308" x="170.115" y="115.719" width="15.8052" height="15.7172" filterUnits="userSpaceOnUse" color-interpolation-filters="sRGB">
<feFlood flood-opacity="0" result="BackgroundImageFix"/>
<feColorMatrix in="SourceAlpha" type="matrix" values="0 0 0 0 0 0 0 0 0 0 0 0 0 0 0 0 0 0 127 0" result="hardAlpha"/>
<feOffset dy="2.8403"/>
<feGaussianBlur stdDeviation="1.42015"/>
<feColorMatrix type="matrix" values="0 0 0 0 0.156863 0 0 0 0 0.635294 0 0 0 0 0.388235 0 0 0 0.12 0"/>
<feBlend mode="normal" in2="BackgroundImageFix" result="effect1_dropShadow_1_308"/>
<feBlend mode="normal" in="SourceGraphic" in2="effect1_dropShadow_1_308" result="shape"/>
</filter>
<filter id="filter5_d_1_308" x="299.605" y="118.436" width="15.8052" height="15.7172" filterUnits="userSpaceOnUse" color-interpolation-filters="sRGB">
<feFlood flood-opacity="0" result="BackgroundImageFix"/>
<feColorMatrix in="SourceAlpha" type="matrix" values="0 0 0 0 0 0 0 0 0 0 0 0 0 0 0 0 0 0 127 0" result="hardAlpha"/>
<feOffset dy="2.8403"/>
<feGaussianBlur stdDeviation="1.42015"/>
<feColorMatrix type="matrix" values="0 0 0 0 0.156863 0 0 0 0 0.635294 0 0 0 0 0.388235 0 0 0 0.03 0"/>
<feBlend mode="normal" in2="BackgroundImageFix" result="effect1_dropShadow_1_308"/>
<feBlend mode="normal" in="SourceGraphic" in2="effect1_dropShadow_1_308" result="shape"/>
</filter>
</defs>
</svg>
