<svg width="290" height="289" viewBox="0 0 290 289" fill="none" xmlns="http://www.w3.org/2000/svg">
<rect width="290" height="289" rx="20" fill="#CFDDDB"/>
<path d="M31.5852 234V220.909H36.0085C37.0355 220.909 37.875 221.094 38.527 221.465C39.1832 221.832 39.669 222.328 39.9844 222.955C40.2997 223.581 40.4574 224.28 40.4574 225.051C40.4574 225.822 40.2997 226.523 39.9844 227.154C39.6733 227.785 39.1918 228.288 38.5398 228.663C37.8878 229.033 37.0526 229.219 36.0341 229.219H32.8636V227.812H35.983C36.6861 227.812 37.2507 227.691 37.6768 227.448C38.103 227.205 38.4119 226.877 38.6037 226.464C38.7997 226.046 38.8977 225.575 38.8977 225.051C38.8977 224.527 38.7997 224.058 38.6037 223.645C38.4119 223.232 38.1009 222.908 37.6705 222.673C37.2401 222.435 36.669 222.315 35.9574 222.315H33.1705V234H31.5852ZM42.8065 234V224.182H44.2638V225.665H44.3661C44.5451 225.179 44.869 224.785 45.3377 224.482C45.8065 224.18 46.3349 224.028 46.9229 224.028C47.0337 224.028 47.1722 224.031 47.3384 224.035C47.5046 224.039 47.6303 224.045 47.7156 224.054V225.588C47.6644 225.575 47.5472 225.556 47.364 225.531C47.185 225.501 46.9954 225.486 46.7951 225.486C46.3178 225.486 45.8917 225.586 45.5167 225.786C45.146 225.982 44.8519 226.255 44.6346 226.604C44.4215 226.95 44.315 227.344 44.315 227.787V234H42.8065ZM53.1935 234.205C52.3072 234.205 51.5295 233.994 50.8604 233.572C50.1957 233.15 49.6758 232.56 49.3008 231.801C48.93 231.043 48.7447 230.156 48.7447 229.142C48.7447 228.119 48.93 227.227 49.3008 226.464C49.6758 225.701 50.1957 225.109 50.8604 224.687C51.5295 224.265 52.3072 224.054 53.1935 224.054C54.0799 224.054 54.8555 224.265 55.5202 224.687C56.1893 225.109 56.7092 225.701 57.0799 226.464C57.4549 227.227 57.6424 228.119 57.6424 229.142C57.6424 230.156 57.4549 231.043 57.0799 231.801C56.7092 232.56 56.1893 233.15 55.5202 233.572C54.8555 233.994 54.0799 234.205 53.1935 234.205ZM53.1935 232.849C53.8668 232.849 54.4208 232.677 54.8555 232.332C55.2901 231.987 55.6119 231.533 55.8207 230.97C56.0295 230.408 56.1339 229.798 56.1339 229.142C56.1339 228.486 56.0295 227.874 55.8207 227.308C55.6119 226.741 55.2901 226.283 54.8555 225.933C54.4208 225.584 53.8668 225.409 53.1935 225.409C52.5202 225.409 51.9663 225.584 51.5316 225.933C51.0969 226.283 50.7752 226.741 50.5664 227.308C50.3576 227.874 50.2532 228.486 50.2532 229.142C50.2532 229.798 50.3576 230.408 50.5664 230.97C50.7752 231.533 51.0969 231.987 51.5316 232.332C51.9663 232.677 52.5202 232.849 53.1935 232.849ZM63.6525 234.205C62.8343 234.205 62.112 233.998 61.4856 233.585C60.8592 233.167 60.3691 232.579 60.0154 231.82C59.6618 231.058 59.4849 230.156 59.4849 229.116C59.4849 228.085 59.6618 227.19 60.0154 226.432C60.3691 225.673 60.8613 225.087 61.492 224.674C62.1227 224.261 62.8514 224.054 63.6781 224.054C64.3173 224.054 64.8223 224.161 65.193 224.374C65.568 224.582 65.8535 224.821 66.0495 225.089C66.2498 225.354 66.4054 225.571 66.5162 225.741H66.644V220.909H68.1525V234H66.6951V232.491H66.5162C66.4054 232.67 66.2477 232.896 66.0431 233.169C65.8386 233.437 65.5467 233.678 65.1674 233.891C64.7882 234.1 64.2832 234.205 63.6525 234.205ZM63.8571 232.849C64.4622 232.849 64.9735 232.692 65.3912 232.376C65.8088 232.057 66.1262 231.616 66.3436 231.053C66.5609 230.487 66.6696 229.832 66.6696 229.091C66.6696 228.358 66.563 227.717 66.35 227.167C66.1369 226.613 65.8216 226.183 65.4039 225.876C64.9863 225.565 64.4707 225.409 63.8571 225.409C63.2179 225.409 62.6852 225.573 62.2591 225.901C61.8372 226.225 61.5197 226.666 61.3066 227.224C61.0978 227.778 60.9934 228.401 60.9934 229.091C60.9934 229.79 61.1 230.425 61.313 230.996C61.5304 231.562 61.85 232.014 62.2718 232.351C62.698 232.683 63.2264 232.849 63.8571 232.849ZM77.3123 229.986V224.182H78.8208V234H77.3123V232.338H77.2101C76.9799 232.837 76.622 233.261 76.1362 233.61C75.6504 233.955 75.0368 234.128 74.2953 234.128C73.6816 234.128 73.1362 233.994 72.6589 233.725C72.1816 233.452 71.8066 233.043 71.5339 232.498C71.2612 231.948 71.1248 231.256 71.1248 230.42V224.182H72.6333V230.318C72.6333 231.034 72.8336 231.605 73.2342 232.031C73.639 232.457 74.1547 232.67 74.7811 232.67C75.1561 232.67 75.5375 232.575 75.9252 232.383C76.3173 232.191 76.6454 231.897 76.9096 231.501C77.1781 231.104 77.3123 230.599 77.3123 229.986ZM85.5724 234.205C84.652 234.205 83.8594 233.987 83.1946 233.553C82.5298 233.118 82.0185 232.519 81.6605 231.756C81.3026 230.994 81.1236 230.122 81.1236 229.142C81.1236 228.145 81.3068 227.265 81.6733 226.502C82.044 225.735 82.5597 225.136 83.2202 224.706C83.8849 224.271 84.6605 224.054 85.5469 224.054C86.2372 224.054 86.8594 224.182 87.4134 224.438C87.9673 224.693 88.4212 225.051 88.7749 225.511C89.1286 225.972 89.348 226.509 89.4332 227.122H87.9247C87.8097 226.675 87.554 226.278 87.1577 225.933C86.7656 225.584 86.2372 225.409 85.5724 225.409C84.9844 225.409 84.4688 225.562 84.0256 225.869C83.5866 226.172 83.2436 226.6 82.9964 227.154C82.7536 227.704 82.6321 228.349 82.6321 229.091C82.6321 229.849 82.7514 230.51 82.9901 231.072C83.233 231.635 83.5739 232.072 84.0128 232.383C84.456 232.694 84.9759 232.849 85.5724 232.849C85.9645 232.849 86.3203 232.781 86.6399 232.645C86.9595 232.509 87.2301 232.312 87.4517 232.057C87.6733 231.801 87.831 231.494 87.9247 231.136H89.4332C89.348 231.716 89.1371 232.238 88.8004 232.702C88.468 233.163 88.027 233.529 87.4773 233.802C86.9318 234.07 86.2969 234.205 85.5724 234.205ZM95.9084 224.182V225.46H90.8203V224.182H95.9084ZM92.3033 221.83H93.8118V231.188C93.8118 231.614 93.8736 231.933 93.9972 232.146C94.125 232.355 94.2869 232.496 94.483 232.568C94.6832 232.636 94.8942 232.67 95.1158 232.67C95.282 232.67 95.4183 232.662 95.5249 232.645C95.6314 232.624 95.7166 232.607 95.7805 232.594L96.0874 233.949C95.9851 233.987 95.8423 234.026 95.6591 234.064C95.4759 234.107 95.2436 234.128 94.9624 234.128C94.5362 234.128 94.1186 234.036 93.7095 233.853C93.3047 233.67 92.968 233.391 92.6996 233.016C92.4354 232.641 92.3033 232.168 92.3033 231.597V221.83ZM107.51 224.182V225.46H102.422V224.182H107.51ZM103.905 221.83H105.413V231.188C105.413 231.614 105.475 231.933 105.599 232.146C105.727 232.355 105.888 232.496 106.085 232.568C106.285 232.636 106.496 232.67 106.717 232.67C106.884 232.67 107.02 232.662 107.126 232.645C107.233 232.624 107.318 232.607 107.382 232.594L107.689 233.949C107.587 233.987 107.444 234.026 107.261 234.064C107.077 234.107 106.845 234.128 106.564 234.128C106.138 234.128 105.72 234.036 105.311 233.853C104.906 233.67 104.57 233.391 104.301 233.016C104.037 232.641 103.905 232.168 103.905 231.597V221.83ZM109.779 234V224.182H111.288V234H109.779ZM110.546 222.545C110.252 222.545 109.999 222.445 109.786 222.245C109.577 222.045 109.472 221.804 109.472 221.523C109.472 221.241 109.577 221.001 109.786 220.8C109.999 220.6 110.252 220.5 110.546 220.5C110.84 220.5 111.092 220.6 111.3 220.8C111.513 221.001 111.62 221.241 111.62 221.523C111.62 221.804 111.513 222.045 111.3 222.245C111.092 222.445 110.84 222.545 110.546 222.545ZM118.32 224.182V225.46H113.232V224.182H118.32ZM114.715 221.83H116.224V231.188C116.224 231.614 116.286 231.933 116.409 232.146C116.537 232.355 116.699 232.496 116.895 232.568C117.095 232.636 117.306 232.67 117.528 232.67C117.694 232.67 117.83 232.662 117.937 232.645C118.044 232.624 118.129 232.607 118.193 232.594L118.499 233.949C118.397 233.987 118.254 234.026 118.071 234.064C117.888 234.107 117.656 234.128 117.374 234.128C116.948 234.128 116.531 234.036 116.122 233.853C115.717 233.67 115.38 233.391 115.112 233.016C114.847 232.641 114.715 232.168 114.715 231.597V221.83ZM122.309 220.909V234H120.801V220.909H122.309ZM129.189 234.205C128.243 234.205 127.426 233.996 126.74 233.578C126.059 233.156 125.532 232.568 125.162 231.814C124.795 231.055 124.612 230.173 124.612 229.168C124.612 228.162 124.795 227.276 125.162 226.509C125.532 225.737 126.048 225.136 126.708 224.706C127.373 224.271 128.149 224.054 129.035 224.054C129.547 224.054 130.051 224.139 130.55 224.31C131.049 224.48 131.502 224.757 131.912 225.141C132.321 225.52 132.647 226.023 132.89 226.649C133.132 227.276 133.254 228.047 133.254 228.963V229.602H125.686V228.298H131.72C131.72 227.744 131.609 227.25 131.387 226.815C131.17 226.381 130.859 226.038 130.454 225.786C130.054 225.535 129.581 225.409 129.035 225.409C128.434 225.409 127.914 225.558 127.475 225.857C127.041 226.151 126.706 226.534 126.472 227.007C126.238 227.48 126.12 227.987 126.12 228.528V229.398C126.12 230.139 126.248 230.768 126.504 231.283C126.764 231.795 127.124 232.185 127.584 232.453C128.044 232.717 128.579 232.849 129.189 232.849C129.585 232.849 129.943 232.794 130.262 232.683C130.586 232.568 130.865 232.398 131.1 232.172C131.334 231.942 131.515 231.656 131.643 231.315L133.1 231.724C132.947 232.219 132.689 232.653 132.327 233.028C131.965 233.399 131.517 233.689 130.985 233.898C130.452 234.102 129.853 234.205 129.189 234.205Z" fill="#131313"/>
<path d="M36.6719 248.493C36.6188 248.022 36.4001 247.658 36.0156 247.399C35.6312 247.137 35.1473 247.006 34.5639 247.006C34.1463 247.006 33.785 247.073 33.4801 247.205C33.1752 247.335 32.9382 247.513 32.7692 247.742C32.6035 247.968 32.5206 248.224 32.5206 248.513C32.5206 248.755 32.5769 248.964 32.6896 249.139C32.8056 249.315 32.9564 249.462 33.142 249.582C33.331 249.698 33.5331 249.795 33.7486 249.875C33.964 249.951 34.1712 250.014 34.37 250.064L35.3643 250.322C35.6892 250.402 36.0223 250.51 36.3636 250.646C36.705 250.781 37.0215 250.96 37.3132 251.183C37.6049 251.405 37.8402 251.68 38.0192 252.008C38.2015 252.336 38.2926 252.729 38.2926 253.186C38.2926 253.763 38.1435 254.275 37.8452 254.722C37.5502 255.17 37.121 255.523 36.5575 255.781C35.9974 256.04 35.3196 256.169 34.5241 256.169C33.7618 256.169 33.1023 256.048 32.5455 255.806C31.9886 255.564 31.5528 255.221 31.2379 254.777C30.9231 254.33 30.7491 253.799 30.7159 253.186H32.2571C32.2869 253.554 32.4063 253.861 32.6151 254.106C32.8272 254.348 33.0973 254.528 33.4254 254.648C33.7569 254.764 34.1198 254.822 34.5142 254.822C34.9484 254.822 35.3345 254.754 35.6726 254.618C36.014 254.479 36.2824 254.286 36.478 254.041C36.6735 253.793 36.7713 253.503 36.7713 253.171C36.7713 252.87 36.6851 252.623 36.5128 252.43C36.3438 252.238 36.1134 252.079 35.8217 251.953C35.5334 251.827 35.2069 251.716 34.8423 251.62L33.6392 251.292C32.8239 251.07 32.1776 250.743 31.7003 250.312C31.2263 249.882 30.9893 249.312 30.9893 248.602C30.9893 248.016 31.1484 247.504 31.4666 247.066C31.7848 246.629 32.2157 246.289 32.7592 246.047C33.3028 245.802 33.916 245.679 34.5987 245.679C35.2881 245.679 35.8963 245.8 36.4233 246.042C36.9536 246.284 37.3712 246.617 37.6761 247.041C37.9811 247.462 38.1402 247.946 38.1534 248.493H36.6719ZM41.4956 251.466V256H40.0091V245.818H41.4757V249.607H41.5701C41.7491 249.196 42.0225 248.869 42.3904 248.627C42.7583 248.385 43.2389 248.264 43.8322 248.264C44.3559 248.264 44.8133 248.372 45.2044 248.587C45.5988 248.803 45.9037 249.124 46.1191 249.552C46.3379 249.976 46.4473 250.506 46.4473 251.143V256H44.9608V251.322C44.9608 250.762 44.8166 250.327 44.5282 250.019C44.2399 249.708 43.8388 249.552 43.3251 249.552C42.9738 249.552 42.6589 249.626 42.3805 249.776C42.1054 249.925 41.8883 250.143 41.7292 250.432C41.5734 250.717 41.4956 251.062 41.4956 251.466ZM51.6475 256.154C50.9316 256.154 50.3069 255.99 49.7733 255.662C49.2396 255.334 48.8253 254.875 48.5304 254.285C48.2354 253.695 48.0879 253.005 48.0879 252.217C48.0879 251.424 48.2354 250.732 48.5304 250.138C48.8253 249.545 49.2396 249.085 49.7733 248.756C50.3069 248.428 50.9316 248.264 51.6475 248.264C52.3635 248.264 52.9882 248.428 53.5218 248.756C54.0555 249.085 54.4698 249.545 54.7647 250.138C55.0597 250.732 55.2072 251.424 55.2072 252.217C55.2072 253.005 55.0597 253.695 54.7647 254.285C54.4698 254.875 54.0555 255.334 53.5218 255.662C52.9882 255.99 52.3635 256.154 51.6475 256.154ZM51.6525 254.906C52.1165 254.906 52.501 254.784 52.8059 254.538C53.1109 254.293 53.3362 253.967 53.4821 253.559C53.6312 253.151 53.7058 252.702 53.7058 252.212C53.7058 251.724 53.6312 251.277 53.4821 250.869C53.3362 250.458 53.1109 250.129 52.8059 249.88C52.501 249.631 52.1165 249.507 51.6525 249.507C51.1852 249.507 50.7974 249.631 50.4892 249.88C50.1842 250.129 49.9572 250.458 49.8081 250.869C49.6622 251.277 49.5893 251.724 49.5893 252.212C49.5893 252.702 49.6622 253.151 49.8081 253.559C49.9572 253.967 50.1842 254.293 50.4892 254.538C50.7974 254.784 51.1852 254.906 51.6525 254.906ZM56.8665 256V248.364H58.3033V249.577H58.3828C58.522 249.166 58.7673 248.843 59.1186 248.607C59.4732 248.369 59.8743 248.249 60.3217 248.249C60.4145 248.249 60.5239 248.253 60.6499 248.259C60.7791 248.266 60.8802 248.274 60.9531 248.284V249.706C60.8935 249.689 60.7874 249.671 60.6349 249.651C60.4825 249.628 60.33 249.616 60.1776 249.616C59.8262 249.616 59.513 249.691 59.2379 249.84C58.9661 249.986 58.7507 250.19 58.5916 250.452C58.4325 250.71 58.353 251.005 58.353 251.337V256H56.8665ZM66.2553 248.364V249.557H62.0842V248.364H66.2553ZM63.2028 246.534H64.6893V253.758C64.6893 254.046 64.7324 254.263 64.8185 254.409C64.9047 254.552 65.0157 254.649 65.1516 254.702C65.2908 254.752 65.4416 254.777 65.604 254.777C65.7234 254.777 65.8278 254.769 65.9173 254.752C66.0067 254.736 66.0763 254.722 66.1261 254.712L66.3945 255.94C66.3084 255.973 66.1857 256.007 66.0266 256.04C65.8675 256.076 65.6687 256.096 65.43 256.099C65.0389 256.106 64.6744 256.036 64.3363 255.891C63.9982 255.745 63.7248 255.519 63.516 255.214C63.3072 254.91 63.2028 254.527 63.2028 254.066V246.534ZM74.4634 256.149C73.8469 256.149 73.2968 255.992 72.8129 255.677C72.3323 255.359 71.9544 254.906 71.6793 254.32C71.4076 253.73 71.2717 253.022 71.2717 252.197C71.2717 251.371 71.4092 250.665 71.6843 250.079C71.9627 249.492 72.3439 249.043 72.8278 248.732C73.3117 248.42 73.8602 248.264 74.4734 248.264C74.9473 248.264 75.3285 248.344 75.6168 248.503C75.9085 248.659 76.1339 248.841 76.293 249.05C76.4554 249.259 76.5813 249.442 76.6708 249.602H76.7603V245.818H78.2468V256H76.7951V254.812H76.6708C76.5813 254.974 76.4521 255.16 76.283 255.369C76.1173 255.577 75.8886 255.76 75.5969 255.915C75.3053 256.071 74.9274 256.149 74.4634 256.149ZM74.7915 254.881C75.2191 254.881 75.5804 254.769 75.8754 254.543C76.1737 254.315 76.399 253.998 76.5515 253.594C76.7073 253.189 76.7852 252.719 76.7852 252.182C76.7852 251.652 76.7089 251.187 76.5565 250.79C76.404 250.392 76.1803 250.082 75.8853 249.86C75.5903 249.638 75.2257 249.527 74.7915 249.527C74.3441 249.527 73.9712 249.643 73.6729 249.875C73.3746 250.107 73.1493 250.424 72.9968 250.825C72.8477 251.226 72.7731 251.678 72.7731 252.182C72.7731 252.692 72.8493 253.151 73.0018 253.559C73.1542 253.967 73.3796 254.29 73.6779 254.528C73.9795 254.764 74.3507 254.881 74.7915 254.881ZM83.6596 256.154C82.9073 256.154 82.2593 255.993 81.7157 255.672C81.1755 255.347 80.7579 254.891 80.4629 254.305C80.1712 253.715 80.0254 253.024 80.0254 252.232C80.0254 251.449 80.1712 250.76 80.4629 250.163C80.7579 249.567 81.1689 249.101 81.6958 248.766C82.2261 248.432 82.8459 248.264 83.5552 248.264C83.9861 248.264 84.4037 248.335 84.8081 248.478C85.2124 248.621 85.5753 248.844 85.8968 249.149C86.2183 249.454 86.4719 249.85 86.6575 250.337C86.8431 250.821 86.9359 251.41 86.9359 252.102V252.629H80.8656V251.516H85.4792C85.4792 251.125 85.3997 250.778 85.2406 250.477C85.0815 250.172 84.8578 249.931 84.5694 249.756C84.2844 249.58 83.9496 249.492 83.5652 249.492C83.1475 249.492 82.783 249.595 82.4714 249.8C82.1632 250.003 81.9245 250.268 81.7555 250.596C81.5898 250.921 81.5069 251.274 81.5069 251.655V252.525C81.5069 253.035 81.5964 253.469 81.7754 253.827C81.9577 254.185 82.2112 254.459 82.536 254.648C82.8609 254.833 83.2404 254.926 83.6745 254.926C83.9563 254.926 84.2131 254.886 84.4451 254.807C84.6771 254.724 84.8777 254.601 85.0467 254.439C85.2157 254.277 85.345 254.076 85.4345 253.837L86.8414 254.091C86.7288 254.505 86.5266 254.868 86.2349 255.18C85.9466 255.488 85.5836 255.728 85.1461 255.901C84.7119 256.07 84.2164 256.154 83.6596 256.154ZM94.3075 250.228L92.9602 250.467C92.9039 250.294 92.8144 250.13 92.6918 249.974C92.5724 249.819 92.41 249.691 92.2045 249.592C91.9991 249.492 91.7422 249.442 91.4339 249.442C91.013 249.442 90.6617 249.537 90.38 249.726C90.0982 249.911 89.9574 250.152 89.9574 250.447C89.9574 250.702 90.0518 250.907 90.2408 251.063C90.4297 251.219 90.7346 251.347 91.1555 251.446L92.3686 251.724C93.0713 251.887 93.5949 252.137 93.9396 252.475C94.2843 252.813 94.4567 253.252 94.4567 253.793C94.4567 254.25 94.3241 254.658 94.0589 255.016C93.7971 255.37 93.4309 255.649 92.9602 255.851C92.4929 256.053 91.951 256.154 91.3345 256.154C90.4794 256.154 89.7817 255.972 89.2415 255.607C88.7012 255.239 88.3698 254.717 88.2472 254.041L89.6839 253.822C89.7734 254.197 89.9574 254.48 90.2358 254.673C90.5142 254.862 90.8771 254.956 91.3246 254.956C91.8118 254.956 92.2012 254.855 92.4929 254.653C92.7846 254.447 92.9304 254.197 92.9304 253.902C92.9304 253.663 92.8409 253.463 92.6619 253.3C92.4863 253.138 92.2161 253.015 91.8516 252.933L90.5589 252.649C89.8464 252.487 89.3194 252.228 88.978 251.874C88.6399 251.519 88.4709 251.07 88.4709 250.526C88.4709 250.076 88.5968 249.681 88.8487 249.343C89.1006 249.005 89.4486 248.741 89.8928 248.553C90.3369 248.36 90.8456 248.264 91.419 248.264C92.2443 248.264 92.8939 248.443 93.3679 248.801C93.8419 249.156 94.1551 249.631 94.3075 250.228ZM99.3077 256.154C98.5686 256.154 97.9322 255.987 97.3986 255.652C96.8683 255.314 96.4606 254.848 96.1756 254.255C95.8906 253.662 95.748 252.982 95.748 252.217C95.748 251.441 95.8939 250.757 96.1855 250.163C96.4772 249.567 96.8882 249.101 97.4185 248.766C97.9488 248.432 98.5736 248.264 99.2928 248.264C99.8728 248.264 100.39 248.372 100.844 248.587C101.298 248.799 101.664 249.098 101.943 249.482C102.224 249.867 102.392 250.316 102.445 250.83H100.998C100.919 250.472 100.736 250.163 100.451 249.905C100.169 249.646 99.7916 249.517 99.3176 249.517C98.9034 249.517 98.5404 249.626 98.2289 249.845C97.9206 250.061 97.6803 250.369 97.508 250.77C97.3356 251.168 97.2495 251.638 97.2495 252.182C97.2495 252.739 97.334 253.219 97.503 253.624C97.6721 254.028 97.9107 254.341 98.2189 254.563C98.5305 254.785 98.8967 254.896 99.3176 254.896C99.5994 254.896 99.8546 254.845 100.083 254.742C100.315 254.636 100.509 254.485 100.665 254.29C100.824 254.094 100.935 253.859 100.998 253.584H102.445C102.392 254.078 102.231 254.518 101.963 254.906C101.694 255.294 101.334 255.599 100.884 255.821C100.436 256.043 99.9109 256.154 99.3077 256.154ZM104.034 256V248.364H105.471V249.577H105.551C105.69 249.166 105.935 248.843 106.287 248.607C106.641 248.369 107.042 248.249 107.49 248.249C107.583 248.249 107.692 248.253 107.818 248.259C107.947 248.266 108.048 248.274 108.121 248.284V249.706C108.061 249.689 107.955 249.671 107.803 249.651C107.65 249.628 107.498 249.616 107.346 249.616C106.994 249.616 106.681 249.691 106.406 249.84C106.134 249.986 105.919 250.19 105.76 250.452C105.6 250.71 105.521 251.005 105.521 251.337V256H104.034ZM109.407 256V248.364H110.894V256H109.407ZM110.158 247.185C109.9 247.185 109.678 247.099 109.492 246.927C109.31 246.751 109.219 246.542 109.219 246.3C109.219 246.055 109.31 245.846 109.492 245.674C109.678 245.498 109.9 245.411 110.158 245.411C110.417 245.411 110.637 245.498 110.819 245.674C111.005 245.846 111.098 246.055 111.098 246.3C111.098 246.542 111.005 246.751 110.819 246.927C110.637 247.099 110.417 247.185 110.158 247.185ZM112.894 258.864V248.364H114.346V249.602H114.47C114.556 249.442 114.68 249.259 114.843 249.05C115.005 248.841 115.23 248.659 115.519 248.503C115.807 248.344 116.188 248.264 116.662 248.264C117.279 248.264 117.829 248.42 118.313 248.732C118.797 249.043 119.176 249.492 119.451 250.079C119.73 250.665 119.869 251.371 119.869 252.197C119.869 253.022 119.731 253.73 119.456 254.32C119.181 254.906 118.803 255.359 118.323 255.677C117.842 255.992 117.294 256.149 116.677 256.149C116.213 256.149 115.834 256.071 115.539 255.915C115.247 255.76 115.018 255.577 114.853 255.369C114.687 255.16 114.559 254.974 114.47 254.812H114.38V258.864H112.894ZM114.35 252.182C114.35 252.719 114.428 253.189 114.584 253.594C114.74 253.998 114.965 254.315 115.26 254.543C115.555 254.769 115.917 254.881 116.344 254.881C116.788 254.881 117.159 254.764 117.458 254.528C117.756 254.29 117.981 253.967 118.134 253.559C118.29 253.151 118.368 252.692 118.368 252.182C118.368 251.678 118.291 251.226 118.139 250.825C117.99 250.424 117.764 250.107 117.463 249.875C117.164 249.643 116.792 249.527 116.344 249.527C115.913 249.527 115.549 249.638 115.25 249.86C114.955 250.082 114.732 250.392 114.579 250.79C114.427 251.187 114.35 251.652 114.35 252.182ZM125.099 248.364V249.557H120.928V248.364H125.099ZM122.047 246.534H123.533V253.758C123.533 254.046 123.576 254.263 123.662 254.409C123.748 254.552 123.859 254.649 123.995 254.702C124.135 254.752 124.285 254.777 124.448 254.777C124.567 254.777 124.672 254.769 124.761 254.752C124.85 254.736 124.92 254.722 124.97 254.712L125.238 255.94C125.152 255.973 125.029 256.007 124.87 256.04C124.711 256.076 124.512 256.096 124.274 256.099C123.883 256.106 123.518 256.036 123.18 255.891C122.842 255.745 122.569 255.519 122.36 255.214C122.151 254.91 122.047 254.527 122.047 254.066V246.534ZM126.743 256V248.364H128.23V256H126.743ZM127.494 247.185C127.236 247.185 127.014 247.099 126.828 246.927C126.646 246.751 126.555 246.542 126.555 246.3C126.555 246.055 126.646 245.846 126.828 245.674C127.014 245.498 127.236 245.411 127.494 245.411C127.753 245.411 127.973 245.498 128.155 245.674C128.341 245.846 128.434 246.055 128.434 246.3C128.434 246.542 128.341 246.751 128.155 246.927C127.973 247.099 127.753 247.185 127.494 247.185ZM133.446 256.154C132.73 256.154 132.106 255.99 131.572 255.662C131.038 255.334 130.624 254.875 130.329 254.285C130.034 253.695 129.887 253.005 129.887 252.217C129.887 251.424 130.034 250.732 130.329 250.138C130.624 249.545 131.038 249.085 131.572 248.756C132.106 248.428 132.73 248.264 133.446 248.264C134.162 248.264 134.787 248.428 135.321 248.756C135.854 249.085 136.269 249.545 136.564 250.138C136.859 250.732 137.006 251.424 137.006 252.217C137.006 253.005 136.859 253.695 136.564 254.285C136.269 254.875 135.854 255.334 135.321 255.662C134.787 255.99 134.162 256.154 133.446 256.154ZM133.451 254.906C133.915 254.906 134.3 254.784 134.605 254.538C134.91 254.293 135.135 253.967 135.281 253.559C135.43 253.151 135.505 252.702 135.505 252.212C135.505 251.724 135.43 251.277 135.281 250.869C135.135 250.458 134.91 250.129 134.605 249.88C134.3 249.631 133.915 249.507 133.451 249.507C132.984 249.507 132.596 249.631 132.288 249.88C131.983 250.129 131.756 250.458 131.607 250.869C131.461 251.277 131.388 251.724 131.388 252.212C131.388 252.702 131.461 253.151 131.607 253.559C131.756 253.967 131.983 254.293 132.288 254.538C132.596 254.784 132.984 254.906 133.451 254.906ZM140.152 251.466V256H138.665V248.364H140.092V249.607H140.187C140.362 249.202 140.637 248.877 141.012 248.632C141.39 248.387 141.865 248.264 142.439 248.264C142.959 248.264 143.415 248.374 143.806 248.592C144.197 248.808 144.5 249.129 144.716 249.557C144.931 249.984 145.039 250.513 145.039 251.143V256H143.552V251.322C143.552 250.768 143.408 250.336 143.12 250.024C142.831 249.709 142.435 249.552 141.932 249.552C141.587 249.552 141.28 249.626 141.012 249.776C140.747 249.925 140.536 250.143 140.381 250.432C140.228 250.717 140.152 251.062 140.152 251.466ZM153.939 259.023C153.333 259.023 152.811 258.943 152.373 258.784C151.939 258.625 151.584 258.415 151.309 258.153C151.034 257.891 150.829 257.604 150.693 257.293L151.971 256.766C152.06 256.911 152.179 257.066 152.328 257.228C152.481 257.394 152.686 257.535 152.945 257.651C153.207 257.767 153.543 257.825 153.954 257.825C154.518 257.825 154.983 257.687 155.351 257.412C155.719 257.14 155.903 256.706 155.903 256.109V254.608H155.809C155.719 254.77 155.59 254.951 155.421 255.15C155.255 255.349 155.026 255.521 154.735 255.667C154.443 255.813 154.064 255.886 153.596 255.886C152.993 255.886 152.449 255.745 151.966 255.463C151.485 255.178 151.104 254.759 150.822 254.205C150.544 253.648 150.404 252.964 150.404 252.152C150.404 251.34 150.542 250.644 150.817 250.064C151.096 249.484 151.477 249.04 151.961 248.732C152.444 248.42 152.993 248.264 153.606 248.264C154.08 248.264 154.463 248.344 154.755 248.503C155.046 248.659 155.273 248.841 155.436 249.05C155.601 249.259 155.729 249.442 155.819 249.602H155.928V248.364H157.385V256.169C157.385 256.825 157.232 257.364 156.927 257.785C156.622 258.206 156.21 258.517 155.689 258.719C155.172 258.922 154.589 259.023 153.939 259.023ZM153.924 254.653C154.352 254.653 154.713 254.553 155.008 254.354C155.306 254.152 155.532 253.864 155.684 253.489C155.84 253.112 155.918 252.659 155.918 252.132C155.918 251.618 155.842 251.166 155.689 250.775C155.537 250.384 155.313 250.079 155.018 249.86C154.723 249.638 154.359 249.527 153.924 249.527C153.477 249.527 153.104 249.643 152.806 249.875C152.507 250.104 152.282 250.415 152.13 250.81C151.98 251.204 151.906 251.645 151.906 252.132C151.906 252.633 151.982 253.072 152.135 253.45C152.287 253.827 152.512 254.122 152.811 254.335C153.112 254.547 153.484 254.653 153.924 254.653ZM162.595 256.154C161.879 256.154 161.254 255.99 160.721 255.662C160.187 255.334 159.773 254.875 159.478 254.285C159.183 253.695 159.035 253.005 159.035 252.217C159.035 251.424 159.183 250.732 159.478 250.138C159.773 249.545 160.187 249.085 160.721 248.756C161.254 248.428 161.879 248.264 162.595 248.264C163.311 248.264 163.935 248.428 164.469 248.756C165.003 249.085 165.417 249.545 165.712 250.138C166.007 250.732 166.154 251.424 166.154 252.217C166.154 253.005 166.007 253.695 165.712 254.285C165.417 254.875 165.003 255.334 164.469 255.662C163.935 255.99 163.311 256.154 162.595 256.154ZM162.6 254.906C163.064 254.906 163.448 254.784 163.753 254.538C164.058 254.293 164.283 253.967 164.429 253.559C164.578 253.151 164.653 252.702 164.653 252.212C164.653 251.724 164.578 251.277 164.429 250.869C164.283 250.458 164.058 250.129 163.753 249.88C163.448 249.631 163.064 249.507 162.6 249.507C162.132 249.507 161.745 249.631 161.436 249.88C161.132 250.129 160.904 250.458 160.755 250.869C160.609 251.277 160.537 251.724 160.537 252.212C160.537 252.702 160.609 253.151 160.755 253.559C160.904 253.967 161.132 254.293 161.436 254.538C161.745 254.784 162.132 254.906 162.6 254.906ZM171.105 256.154C170.353 256.154 169.705 255.993 169.161 255.672C168.621 255.347 168.203 254.891 167.908 254.305C167.617 253.715 167.471 253.024 167.471 252.232C167.471 251.449 167.617 250.76 167.908 250.163C168.203 249.567 168.614 249.101 169.141 248.766C169.671 248.432 170.291 248.264 171.001 248.264C171.431 248.264 171.849 248.335 172.253 248.478C172.658 248.621 173.021 248.844 173.342 249.149C173.664 249.454 173.917 249.85 174.103 250.337C174.288 250.821 174.381 251.41 174.381 252.102V252.629H168.311V251.516H172.925C172.925 251.125 172.845 250.778 172.686 250.477C172.527 250.172 172.303 249.931 172.015 249.756C171.73 249.58 171.395 249.492 171.01 249.492C170.593 249.492 170.228 249.595 169.917 249.8C169.608 250.003 169.37 250.268 169.201 250.596C169.035 250.921 168.952 251.274 168.952 251.655V252.525C168.952 253.035 169.042 253.469 169.221 253.827C169.403 254.185 169.657 254.459 169.981 254.648C170.306 254.833 170.686 254.926 171.12 254.926C171.402 254.926 171.658 254.886 171.89 254.807C172.122 254.724 172.323 254.601 172.492 254.439C172.661 254.277 172.79 254.076 172.88 253.837L174.287 254.091C174.174 254.505 173.972 254.868 173.68 255.18C173.392 255.488 173.029 255.728 172.591 255.901C172.157 256.07 171.662 256.154 171.105 256.154ZM181.753 250.228L180.406 250.467C180.349 250.294 180.26 250.13 180.137 249.974C180.018 249.819 179.855 249.691 179.65 249.592C179.444 249.492 179.188 249.442 178.879 249.442C178.458 249.442 178.107 249.537 177.825 249.726C177.544 249.911 177.403 250.152 177.403 250.447C177.403 250.702 177.497 250.907 177.686 251.063C177.875 251.219 178.18 251.347 178.601 251.446L179.814 251.724C180.517 251.887 181.04 252.137 181.385 252.475C181.73 252.813 181.902 253.252 181.902 253.793C181.902 254.25 181.769 254.658 181.504 255.016C181.242 255.37 180.876 255.649 180.406 255.851C179.938 256.053 179.396 256.154 178.78 256.154C177.925 256.154 177.227 255.972 176.687 255.607C176.147 255.239 175.815 254.717 175.692 254.041L177.129 253.822C177.219 254.197 177.403 254.48 177.681 254.673C177.96 254.862 178.322 254.956 178.77 254.956C179.257 254.956 179.647 254.855 179.938 254.653C180.23 254.447 180.376 254.197 180.376 253.902C180.376 253.663 180.286 253.463 180.107 253.3C179.932 253.138 179.661 253.015 179.297 252.933L178.004 252.649C177.292 252.487 176.765 252.228 176.423 251.874C176.085 251.519 175.916 251.07 175.916 250.526C175.916 250.076 176.042 249.681 176.294 249.343C176.546 249.005 176.894 248.741 177.338 248.553C177.782 248.36 178.291 248.264 178.864 248.264C179.69 248.264 180.339 248.443 180.813 248.801C181.287 249.156 181.6 249.631 181.753 250.228ZM188.728 251.466V256H187.241V245.818H188.708V249.607H188.803C188.982 249.196 189.255 248.869 189.623 248.627C189.991 248.385 190.471 248.264 191.065 248.264C191.588 248.264 192.046 248.372 192.437 248.587C192.831 248.803 193.136 249.124 193.352 249.552C193.57 249.976 193.68 250.506 193.68 251.143V256H192.193V251.322C192.193 250.762 192.049 250.327 191.761 250.019C191.472 249.708 191.071 249.552 190.558 249.552C190.206 249.552 189.891 249.626 189.613 249.776C189.338 249.925 189.121 250.143 188.962 250.432C188.806 250.717 188.728 251.062 188.728 251.466ZM198.955 256.154C198.202 256.154 197.554 255.993 197.011 255.672C196.47 255.347 196.053 254.891 195.758 254.305C195.466 253.715 195.32 253.024 195.32 252.232C195.32 251.449 195.466 250.76 195.758 250.163C196.053 249.567 196.464 249.101 196.991 248.766C197.521 248.432 198.141 248.264 198.85 248.264C199.281 248.264 199.699 248.335 200.103 248.478C200.507 248.621 200.87 248.844 201.192 249.149C201.513 249.454 201.767 249.85 201.952 250.337C202.138 250.821 202.231 251.41 202.231 252.102V252.629H196.161V251.516H200.774C200.774 251.125 200.695 250.778 200.536 250.477C200.376 250.172 200.153 249.931 199.864 249.756C199.579 249.58 199.245 249.492 198.86 249.492C198.442 249.492 198.078 249.595 197.766 249.8C197.458 250.003 197.219 250.268 197.05 250.596C196.885 250.921 196.802 251.274 196.802 251.655V252.525C196.802 253.035 196.891 253.469 197.07 253.827C197.253 254.185 197.506 254.459 197.831 254.648C198.156 254.833 198.535 254.926 198.969 254.926C199.251 254.926 199.508 254.886 199.74 254.807C199.972 254.724 200.173 254.601 200.342 254.439C200.511 254.277 200.64 254.076 200.729 253.837L202.136 254.091C202.024 254.505 201.821 254.868 201.53 255.18C201.241 255.488 200.879 255.728 200.441 255.901C200.007 256.07 199.511 256.154 198.955 256.154ZM203.88 256V248.364H205.317V249.577H205.396C205.536 249.166 205.781 248.843 206.132 248.607C206.487 248.369 206.888 248.249 207.335 248.249C207.428 248.249 207.538 248.253 207.664 248.259C207.793 248.266 207.894 248.274 207.967 248.284V249.706C207.907 249.689 207.801 249.671 207.649 249.651C207.496 249.628 207.344 249.616 207.191 249.616C206.84 249.616 206.527 249.691 206.252 249.84C205.98 249.986 205.764 250.19 205.605 250.452C205.446 250.71 205.367 251.005 205.367 251.337V256H203.88ZM212.271 256.154C211.519 256.154 210.871 255.993 210.327 255.672C209.787 255.347 209.369 254.891 209.074 254.305C208.783 253.715 208.637 253.024 208.637 252.232C208.637 251.449 208.783 250.76 209.074 250.163C209.369 249.567 209.78 249.101 210.307 248.766C210.837 248.432 211.457 248.264 212.167 248.264C212.597 248.264 213.015 248.335 213.419 248.478C213.824 248.621 214.187 248.844 214.508 249.149C214.83 249.454 215.083 249.85 215.269 250.337C215.454 250.821 215.547 251.41 215.547 252.102V252.629H209.477V251.516H214.091C214.091 251.125 214.011 250.778 213.852 250.477C213.693 250.172 213.469 249.931 213.181 249.756C212.896 249.58 212.561 249.492 212.176 249.492C211.759 249.492 211.394 249.595 211.083 249.8C210.775 250.003 210.536 250.268 210.367 250.596C210.201 250.921 210.118 251.274 210.118 251.655V252.525C210.118 253.035 210.208 253.469 210.387 253.827C210.569 254.185 210.823 254.459 211.147 254.648C211.472 254.833 211.852 254.926 212.286 254.926C212.568 254.926 212.824 254.886 213.056 254.807C213.288 254.724 213.489 254.601 213.658 254.439C213.827 254.277 213.956 254.076 214.046 253.837L215.453 254.091C215.34 254.505 215.138 254.868 214.846 255.18C214.558 255.488 214.195 255.728 213.757 255.901C213.323 256.07 212.828 256.154 212.271 256.154Z" fill="#868898"/>
<g filter="url(#filter0_d_1_215)">
<path d="M30 123.959L32.8144 127.798C35.6452 131.493 41.3563 139.385 46.9521 145.018C52.5644 150.865 58.1437 154.453 63.9042 146.919C69.5 139.385 75.0958 120.013 80.8562 120.121C86.4356 120.013 92.0479 139.385 97.6437 145.018C103.355 150.865 109 142.973 114.596 146.919C120.29 150.865 125.952 165.932 131.548 160.3C137.21 154.453 142.904 127.906 148.5 129.699C154.145 131.493 159.856 145.494 165.452 160.669C171.064 175.987 176.644 175.987 182.404 166.409C188.782 157.24 191.896 153.654 198.755 148.604C205.99 143.97 210.548 150.865 216.144 143.08C221.855 135.439 227.5 112.48 233.096 108.641C238.79 104.946 244.452 120.013 250.048 122.058C255.71 123.959 261.404 112.48 264.202 106.74L267 101" stroke="#121212" stroke-width="1.27563" stroke-linecap="round"/>
</g>
<path d="M33.833 69L45.566 45.7614V45.5767H31.8444V39.9091H52.8387V45.6193L41.0631 69H33.833ZM55.8988 69V63.9432L66.5096 54.6534C67.305 53.9337 67.9821 53.2756 68.5408 52.679C69.0996 52.0729 69.5257 51.4669 69.8192 50.8608C70.1128 50.2453 70.2596 49.5777 70.2596 48.858C70.2596 48.053 70.0844 47.3665 69.734 46.7983C69.3836 46.2206 68.9007 45.7756 68.2852 45.4631C67.6696 45.1506 66.9641 44.9943 66.1687 44.9943C65.3638 44.9943 64.6583 45.16 64.0522 45.4915C63.4461 45.8134 62.9727 46.2822 62.6317 46.8977C62.3003 47.5133 62.1346 48.2614 62.1346 49.142H55.4727C55.4727 47.1629 55.9177 45.4536 56.8079 44.0142C57.698 42.5748 58.948 41.4669 60.5579 40.6903C62.1772 39.9044 64.0569 39.5114 66.1971 39.5114C68.4035 39.5114 70.3211 39.8807 71.9499 40.6193C73.5787 41.358 74.8382 42.3902 75.7283 43.7159C76.628 45.0322 77.0778 46.5616 77.0778 48.304C77.0778 49.4119 76.8552 50.5104 76.4102 51.5994C75.9651 52.6884 75.1649 53.8911 74.0096 55.2074C72.8638 56.5237 71.235 58.1004 69.1232 59.9375L65.6431 63.1477V63.3324H77.4329V69H55.8988ZM80.6634 69V39.9091H87.6947V52.2102H88.0782L97.6947 39.9091H105.976L95.6634 52.892L106.161 69H97.7515L90.5072 57.5653L87.6947 61.1165V69H80.6634Z" fill="#242424"/>
<rect x="192" y="25" width="73" height="32" rx="16" fill="#141414"/>
<path d="M210.889 46L208.165 37.36H209.653L211.933 44.596L214.243 37.36H215.731L213.007 46H210.889ZM216.149 46L218.873 37.36H220.991L223.715 46H222.227L219.755 38.248H220.079L217.637 46H216.149ZM217.667 44.128V42.778H222.203V44.128H217.667ZM225.88 46V37.36H227.326V44.644H231.142V46H225.88ZM236.598 46.18C235.91 46.18 235.304 46.04 234.78 45.76C234.26 45.48 233.852 45.086 233.556 44.578C233.264 44.07 233.118 43.474 233.118 42.79V37.372L234.582 37.36V42.754C234.582 43.078 234.636 43.368 234.744 43.624C234.856 43.88 235.006 44.098 235.194 44.278C235.382 44.454 235.598 44.588 235.842 44.68C236.086 44.772 236.338 44.818 236.598 44.818C236.866 44.818 237.12 44.772 237.36 44.68C237.604 44.584 237.82 44.448 238.008 44.272C238.196 44.092 238.344 43.874 238.452 43.618C238.56 43.362 238.614 43.074 238.614 42.754V37.36H240.078V42.79C240.078 43.474 239.93 44.07 239.634 44.578C239.342 45.086 238.934 45.48 238.41 45.76C237.89 46.04 237.286 46.18 236.598 46.18ZM242.715 46V37.36H248.295V38.716H244.161V40.846H247.575V42.202H244.161V44.644H248.295V46H242.715Z" fill="white"/>
<defs>
<filter id="filter0_d_1_215" x="28.0865" y="100.362" width="240.827" height="75.8274" filterUnits="userSpaceOnUse" color-interpolation-filters="sRGB">
<feFlood flood-opacity="0" result="BackgroundImageFix"/>
<feColorMatrix in="SourceAlpha" type="matrix" values="0 0 0 0 0 0 0 0 0 0 0 0 0 0 0 0 0 0 127 0" result="hardAlpha"/>
<feOffset dy="1.27563"/>
<feGaussianBlur stdDeviation="0.637813"/>
<feColorMatrix type="matrix" values="0 0 0 0 0.156863 0 0 0 0 0.635294 0 0 0 0 0.388235 0 0 0 0.18 0"/>
<feBlend mode="normal" in2="BackgroundImageFix" result="effect1_dropShadow_1_215"/>
<feBlend mode="normal" in="SourceGraphic" in2="effect1_dropShadow_1_215" result="shape"/>
</filter>
</defs>
</svg>
