<svg width="32" height="38" viewBox="0 0 32 38" fill="none" xmlns="http://www.w3.org/2000/svg">
<path d="M17.8495 5.53082V0H0V38H17.8495V32.4692C14.193 32.4692 10.6863 31.0501 8.10081 28.5241C5.51529 25.9982 4.06276 22.5722 4.06276 19C4.06276 15.4278 5.51529 12.0018 8.10081 9.47585C10.6863 6.94989 14.193 5.53082 17.8495 5.53082Z" fill="#242424"/>
<path d="M17.8496 5.53101V32.4694C21.506 32.4694 25.0127 31.0503 27.5983 28.5243C30.1838 25.9984 31.6363 22.5724 31.6363 19.0002C31.6363 15.4279 30.1838 12.002 27.5983 9.47604C25.0127 6.95008 21.506 5.53101 17.8496 5.53101Z" fill="#242424"/>
</svg>
