<svg width="780" height="315" viewBox="0 0 780 315" fill="none" xmlns="http://www.w3.org/2000/svg">
<rect x="134.891" y="0.80661" width="130.129" height="128.547" rx="27.6871" fill="white"/>
<rect x="135.583" y="1.49879" width="128.745" height="127.163" rx="26.9949" stroke="#3E3E3E" stroke-opacity="0.15" stroke-width="1.38435"/>
<path d="M190.394 60.2322V59.8255C190.394 58.7948 191.224 57.94 192.294 57.8689L200.084 57.3516L210.858 73.1336V59.2822L208.084 58.9144V58.7213C208.084 57.6785 208.933 56.818 210.016 56.7628L217.105 56.4016V57.4163C217.105 57.8927 216.749 58.3002 216.261 58.3823L214.555 58.6693V81.1012L212.414 81.8336C210.626 82.4455 208.635 81.7905 207.611 80.2536L197.152 64.5531V79.5384L200.371 80.1513L200.326 80.4483C200.186 81.3788 199.378 82.0825 198.401 82.1257L190.394 82.4803C190.288 81.4797 191.042 80.5845 192.082 80.4758L193.135 80.3658V60.3854L190.394 60.2322Z" fill="#242424"/>
<path fill-rule="evenodd" clip-rule="evenodd" d="M209.364 38.9889L177.265 41.169C175.342 41.2996 173.852 42.8373 173.852 44.6905V75.7487C173.852 77.4899 174.454 79.1817 175.564 80.5575L182.485 89.1346C183.604 90.5214 185.365 91.285 187.187 91.1734L222.814 88.9918C224.64 88.88 226.061 87.4235 226.061 85.6644V50.3542C226.061 49.2659 225.509 48.2461 224.581 47.6222L213.303 40.0368C212.154 39.2638 210.763 38.8938 209.364 38.9889ZM178.856 45.175C178.41 44.8461 178.622 44.1611 179.183 44.1211L209.58 41.9522C210.548 41.8831 211.511 42.1484 212.294 42.7005L218.393 46.9989C218.625 47.1621 218.516 47.5144 218.229 47.5299L186.039 49.2714C185.065 49.3241 184.103 49.0394 183.329 48.469L178.856 45.175ZM184.529 54.7311C184.529 53.6908 185.374 52.8315 186.455 52.773L220.489 50.9291C221.541 50.8721 222.428 51.6776 222.428 52.6915V83.2664C222.428 84.3048 221.586 85.1632 220.508 85.2242L186.689 87.1384C185.517 87.2048 184.529 86.3091 184.529 85.1806V54.7311Z" fill="#242424"/>
<rect x="303.783" y="0.80661" width="128.745" height="128.547" rx="27.6871" fill="white"/>
<rect x="304.475" y="1.49879" width="127.361" height="127.163" rx="26.9949" stroke="#3E3E3E" stroke-opacity="0.15" stroke-width="1.38435"/>
<path d="M390.998 62.9044C394.001 62.9044 396.436 60.4697 396.436 57.4663C396.436 54.463 394.001 52.0283 390.998 52.0283C387.994 52.0283 385.559 54.4632 385.559 57.4668V62.9044H390.998ZM375.77 62.9044C378.773 62.9044 381.208 60.4695 381.208 57.4659V42.2389C381.208 39.2353 378.773 36.8004 375.77 36.8004C372.766 36.8004 370.331 39.2353 370.331 42.2389V57.4659C370.331 60.4695 372.766 62.9044 375.77 62.9044Z" fill="#2EB67D"/>
<path d="M345.315 67.255C342.311 67.255 339.877 69.6897 339.877 72.6931C339.877 75.6964 342.312 78.1311 345.315 78.1311C348.319 78.1311 350.754 75.6962 350.754 72.6926V67.255H345.315ZM360.543 67.255C357.539 67.255 355.105 69.6899 355.105 72.6935V87.9205C355.105 90.9241 357.539 93.359 360.543 93.359C363.547 93.359 365.982 90.9241 365.982 87.9205V72.6935C365.982 69.6899 363.547 67.255 360.543 67.255Z" fill="#E01E5A"/>
<path d="M370.333 87.9214C370.333 90.9247 372.767 93.3594 375.771 93.3594C378.774 93.3594 381.209 90.9245 381.209 87.9211C381.209 84.9175 378.774 82.4824 375.77 82.4824L370.333 82.4824L370.333 87.9214ZM370.333 72.693C370.333 75.6966 372.768 78.1316 375.771 78.1316L390.998 78.1316C394.002 78.1316 396.437 75.6966 396.437 72.693C396.437 69.6894 394.002 67.2545 390.998 67.2545L375.771 67.2545C372.768 67.2545 370.333 69.6894 370.333 72.693Z" fill="#ECB22E"/>
<path d="M365.98 42.2371C365.98 39.2337 363.545 36.799 360.542 36.799C357.539 36.799 355.104 39.2339 355.104 42.2373C355.104 45.2409 357.539 47.676 360.543 47.676L365.98 47.676L365.98 42.2371ZM365.98 57.4654C365.98 54.4618 363.545 52.0269 360.542 52.0269L345.315 52.0269C342.311 52.0269 339.876 54.4618 339.876 57.4654C339.876 60.469 342.311 62.9039 345.315 62.9039L360.542 62.9039C363.545 62.9039 365.98 60.469 365.98 57.4654Z" fill="#36C5F0"/>
<rect x="472.674" y="0.80661" width="128.745" height="128.547" rx="27.6871" fill="white"/>
<rect x="473.366" y="1.49879" width="127.361" height="127.163" rx="26.9949" stroke="#3E3E3E" stroke-opacity="0.15" stroke-width="1.38435"/>
<path d="M542.558 70.6023C539.015 71.9353 535.046 71.9377 531.504 70.6031C530.169 67.0647 530.169 63.0961 531.502 59.5571C535.043 58.2218 539.016 58.2216 542.558 59.5569C543.892 63.0948 543.891 67.0644 542.558 70.6023ZM562.789 60.7284H547.541L558.323 49.953C556.631 47.5776 554.542 45.491 552.165 43.7999L541.383 54.5753V39.3368C538.505 38.853 535.554 38.8538 532.677 39.3368V54.5753L521.895 43.7999C519.519 45.4898 517.429 47.5793 515.737 49.953L526.52 60.7284H511.272C510.896 63.6905 510.773 66.4742 511.272 69.4302H526.52L515.737 80.2056C517.433 82.5845 519.514 84.6643 521.895 86.3595L532.677 75.5833V90.8226C535.555 91.3046 538.505 91.3048 541.383 90.8226V75.5833L552.166 86.3595C554.544 84.6668 556.629 82.5819 558.323 80.2056L547.54 69.4302H562.789C563.273 66.5569 563.273 63.6017 562.789 60.7284Z" fill="#FF4A00"/>
<g opacity="0.1">
<rect x="651.948" y="1.49879" width="127.361" height="127.163" rx="26.9949" fill="#CACACA"/>
<rect x="651.948" y="1.49879" width="127.361" height="127.163" rx="26.9949" stroke="#3E3E3E" stroke-width="1.38435"/>
</g>
<g opacity="0.1">
<rect x="546.737" y="184.233" width="127.361" height="127.163" rx="26.9949" fill="#CACACA"/>
<rect x="546.737" y="184.233" width="127.361" height="127.163" rx="26.9949" stroke="#3E3E3E" stroke-width="1.38435"/>
</g>
<g opacity="0.1">
<rect x="-33.3078" y="1.49882" width="127.361" height="127.163" rx="26.9949" fill="#CACACA"/>
<rect x="-33.3078" y="1.49882" width="127.361" height="127.163" rx="26.9949" stroke="#3E3E3E" stroke-width="1.38435"/>
</g>
<g opacity="0.1">
<rect x="28.9891" y="184.233" width="127.361" height="127.163" rx="26.9949" fill="#CACACA"/>
<rect x="28.9891" y="184.233" width="127.361" height="127.163" rx="26.9949" stroke="#3E3E3E" stroke-width="1.38435"/>
</g>
<rect x="209.646" y="186.31" width="128.745" height="128.547" rx="27.6871" fill="white"/>
<rect x="210.339" y="187.002" width="127.361" height="127.163" rx="26.9949" stroke="#3E3E3E" stroke-opacity="0.15" stroke-width="1.38435"/>
<path d="M264.462 233.814C264.462 234.42 264.413 235.43 263.831 236.086C263.2 236.692 262.229 236.743 261.647 236.743C258.37 236.743 253.825 235.908 250.726 237.197C255.455 228.588 264.618 222.866 264.559 223.36C264.122 226.767 264.462 230.387 264.462 233.814ZM274.266 272.902C274.266 268.711 277.567 265.277 281.644 265.277C282.857 265.277 283.828 266.287 283.828 267.549C283.828 268.408 283.391 269.115 282.712 269.519C281.972 269.981 280.947 269.765 280.285 270.377C279.799 270.781 279.411 271.438 279.411 272.145C279.411 272.902 279.702 273.609 280.188 274.114C281.061 275.024 282.226 275.529 283.488 275.529C286.789 275.529 289.458 272.751 289.458 269.317C289.458 266.236 287.468 263.509 284.847 262.297C280.87 260.228 274.784 261.405 274.315 254.924C273.585 258.352 271.976 264.469 267.617 264.469C254.448 265.283 249.702 254.461 248.784 243.005C248.784 240.531 250.24 238.864 252.085 238.611C255.385 238.611 258.686 238.611 261.986 238.611C263.685 238.611 264.656 238.157 265.287 237.551C266.112 236.743 266.306 235.581 266.306 234.218C266.306 230.666 266.306 225.204 266.306 223.562C266.306 221.418 268.151 220.128 270.529 220.128C271.93 220.128 273.245 220.178 274.606 220.532C277.567 221.289 278.198 224.42 278.198 224.42C278.198 224.42 283.78 225.43 286.595 225.935C289.264 226.44 295.865 226.895 297.127 233.814C300.088 250.277 298.292 266.236 298.147 266.236C296.059 281.791 283.634 281.033 283.634 281.033C279.117 281.033 274.266 277.906 274.266 272.902ZM288.827 246.086C287.226 245.934 285.867 246.591 285.381 247.853C284.693 249.643 291.788 251.13 291.788 248.661C291.594 247.247 290.429 246.288 288.827 246.086Z" fill="#00A82D"/>
<rect x="377.152" y="186.31" width="130.129" height="128.547" rx="27.6871" fill="white"/>
<rect x="377.845" y="187.002" width="128.745" height="127.163" rx="26.9949" stroke="#3E3E3E" stroke-opacity="0.15" stroke-width="1.38435"/>
<path fill-rule="evenodd" clip-rule="evenodd" d="M442.216 250.584C442.216 245.378 446.599 241.157 452.006 241.157C457.412 241.157 461.795 245.378 461.795 250.584C461.795 255.79 457.412 260.011 452.006 260.011C446.599 260.011 442.216 255.79 442.216 250.584Z" fill="#1ABCFE"/>
<path fill-rule="evenodd" clip-rule="evenodd" d="M422.638 269.437C422.638 264.231 427.021 260.01 432.428 260.01H442.217V269.437C442.217 274.643 437.834 278.864 432.428 278.864C427.021 278.864 422.638 274.643 422.638 269.437Z" fill="#0ACF83"/>
<path fill-rule="evenodd" clip-rule="evenodd" d="M442.216 222.303V241.157H452.006C457.412 241.157 461.795 236.936 461.795 231.73C461.795 226.524 457.412 222.303 452.006 222.303H442.216Z" fill="#FF7262"/>
<path fill-rule="evenodd" clip-rule="evenodd" d="M422.638 231.73C422.638 236.936 427.021 241.157 432.428 241.157H442.217V222.303H432.428C427.021 222.303 422.638 226.524 422.638 231.73Z" fill="#F24E1E"/>
<path fill-rule="evenodd" clip-rule="evenodd" d="M422.638 250.584C422.638 255.79 427.021 260.011 432.428 260.011H442.217V241.157H432.428C427.021 241.157 422.638 245.378 422.638 250.584Z" fill="#A259FF"/>
</svg>
