<svg width="35" height="35" viewBox="0 0 35 35" fill="none" xmlns="http://www.w3.org/2000/svg">
<rect x="2" y="2.5" width="30" height="30" rx="4" fill="#F2B53C"/>
<mask id="mask0_1_142" style="mask-type:alpha" maskUnits="userSpaceOnUse" x="2" y="2" width="30" height="31">
<path d="M2 6.5C2 4.29086 3.79086 2.5 6 2.5H28C30.2091 2.5 32 4.29086 32 6.5V28.5C32 30.7091 30.2091 32.5 28 32.5H6C3.79086 32.5 2 30.7091 2 28.5V6.5Z" fill="#B8E731"/>
</mask>
<g mask="url(#mask0_1_142)">
<path d="M13 19.5C13 17.2909 14.7909 15.5 17 15.5H36C38.2091 15.5 40 17.2909 40 19.5V37.5C40 39.7091 38.2091 41.5 36 41.5H17C14.7909 41.5 13 39.7091 13 37.5V19.5Z" fill="#F9E5BC"/>
<path opacity="0.4" d="M7 12.5C7 10.2909 8.79086 8.5 11 8.5H30C32.2091 8.5 34 10.2909 34 12.5V30.5C34 32.7091 32.2091 34.5 30 34.5H11C8.79086 34.5 7 32.7091 7 30.5V12.5Z" fill="white"/>
</g>
</svg>
